<svg width="26" height="30" viewBox="0 0 26 30" fill="none" xmlns="http://www.w3.org/2000/svg">
<g clip-path="url(#clip0_1057_3107)">
<path d="M25.0361 0.713562L25.0074 9.14456H20.683V29.0975H19.3945C19.3013 29.0975 18.2747 27.9283 18.0774 27.8058L16.3593 29.4896L14.649 27.8649L12.9308 29.4868L11.2127 27.8649L9.54401 29.4896L7.82585 27.8058C7.62785 27.9283 6.60126 29.0975 6.50871 29.0975H5.22027V9.14456H0.892954L0.864258 0.713562H25.0361ZM2.58242 2.39948V7.45794H5.2174V5.77202H3.44185V4.0861H22.4585V5.77202H20.683V7.45794H23.318V2.39948H2.58242ZM6.93556 5.77202V26.2022L7.81581 25.4476L9.53397 27.0695L11.2521 25.4476L12.9287 27.0695L14.6468 25.4476L16.365 27.0695L18.0832 25.4476L18.9634 26.2022V5.77202H6.93556Z" fill="white"/>
<path d="M12.0903 7.7395H13.8084V9.22902C15.1234 9.58099 16.188 10.582 16.5575 11.8744L14.9807 12.3918C14.6994 11.8955 14.4175 11.2627 13.8084 11.0839V14.8499C17.5288 15.9572 17.5138 20.8573 13.8084 21.9878V23.4773H12.0903V21.9878C10.7473 21.633 9.62244 20.6313 9.27952 19.2896L10.9137 18.8124C11.096 19.3452 11.4891 20.0013 12.0903 20.1329V16.3669C8.30674 15.3187 8.29454 10.2652 12.0903 9.22902V7.7395ZM12.0903 14.512V11.0839L12.0056 11.0564C10.5967 11.8399 10.5945 13.7546 12.0056 14.5402L12.0903 14.5127V14.512ZM13.8091 16.7041V20.1322C15.226 19.4374 15.2762 17.3608 13.8091 16.7041Z" fill="white"/>
</g>
<defs>
<clipPath id="clip0_1057_3107">
<rect width="24.1719" height="28.776" fill="white" transform="translate(0.864258 0.713562)"/>
</clipPath>
</defs>
</svg>
