<svg width="28" height="30" viewBox="0 0 28 30" fill="none" xmlns="http://www.w3.org/2000/svg">
<g clip-path="url(#clip0_1056_3095)">
<path d="M21.8473 27.9178C21.7735 28.4192 21.2939 28.9872 20.7823 29.0746C19.5336 29.2888 17.3186 27.1252 16.0579 26.7473C14.8236 27.2094 12.2292 29.4966 11.0094 29.3305C10.1738 29.2166 6.96027 26.7201 6.45262 26.7473C5.55681 27.2142 4.72276 27.7894 3.84299 28.2844C2.61357 28.9767 1.28951 29.937 0.712891 27.8608L0.804316 3.44492C1.17723 1.87174 2.51573 0.759849 4.10925 0.565709L23.6806 0.5625C25.2677 0.705297 26.7482 1.90544 27.0513 3.49626C27.2213 4.38834 27.255 9.18809 27.0273 9.97909C26.8332 10.653 25.9037 11.5539 25.1795 11.5539H21.8481V27.9178H21.8473ZM4.16779 2.48625C3.56952 2.5384 2.63683 3.35346 2.63683 3.95754V26.7168C4.15576 26.1055 5.43812 24.404 7.2153 24.9592C7.91782 25.179 11.0664 27.3522 11.3022 27.3354C12.5813 26.7971 14.7771 24.814 16.114 24.8204C17.3322 24.826 18.7958 26.2764 19.9266 26.7168V3.59734C19.9266 3.29249 20.2217 2.80153 20.257 2.48625H4.16779ZM21.8473 3.71687V9.63173H24.9389C24.9702 9.63173 25.2092 9.44641 25.2092 9.42154V3.95754C25.2092 3.70965 24.8082 3.10958 24.6093 2.9363C23.6951 2.13648 22.055 2.48786 21.8473 3.71768V3.71687Z" fill="white"/>
<path d="M6.50997 7.83069H14.6741C14.6877 7.83069 14.8144 7.91813 14.8633 7.9414C15.7455 8.36337 15.3461 9.75203 14.5538 9.75203H6.56932C5.6695 9.75203 5.45457 8.00557 6.50917 7.83069H6.50997Z" fill="white"/>
<path d="M6.44915 14.8567C5.72576 14.7067 5.51404 13.4961 6.24143 13.0878C6.74588 12.8038 11.1182 12.9241 12.0325 12.9353C12.7671 12.9442 13.8449 12.8407 14.5266 12.9618C15.878 13.2017 15.3166 14.8567 14.7335 14.8567H6.44915Z" fill="white"/>
<path d="M6.50954 18.2196H14.6736C14.6865 18.2196 14.8565 18.3239 14.903 18.3504C15.7346 18.8245 15.2952 20.1418 14.6135 20.1418H6.56969C5.66987 20.1418 5.46136 18.4089 6.50954 18.2204V18.2196Z" fill="white"/>
</g>
<defs>
<clipPath id="clip0_1056_3095">
<rect width="26.474" height="28.776" fill="white" transform="translate(0.713867 0.5625)"/>
</clipPath>
</defs>
</svg>
