<svg width="13" height="17" viewBox="0 0 13 17" fill="none" xmlns="http://www.w3.org/2000/svg">
<g clip-path="url(#clip0_334_5081)">
<path d="M9.63934 0.0012207C9.63934 0.959631 9.63835 1.88865 9.63934 2.81715C9.63934 3.12074 9.78541 3.3478 10.0419 3.42991C10.134 3.4593 10.2365 3.46184 10.3341 3.46234C11.1431 3.46488 11.9527 3.46386 12.7618 3.46386C12.8292 3.46386 12.897 3.46386 12.9871 3.46386C12.9916 3.5404 12.9985 3.60679 12.9985 3.67318C12.999 7.87123 12.999 12.0698 12.9985 16.2678C12.9985 16.7752 12.7792 17.0002 12.2894 17.0002C8.42817 17.0002 4.56689 17.0002 0.705614 17.0002C0.222335 17.0002 -0.000488281 16.7752 -0.000488281 16.2866C6.88137e-06 11.0957 6.88137e-06 5.90474 6.88137e-06 0.714327C6.88137e-06 0.230813 0.221345 0.0012207 0.687293 0.0012207C3.60331 0.0012207 6.51932 0.0012207 9.43533 0.0012207H9.63934ZM5.88105 2.75025C5.78895 2.75025 5.69141 2.74721 5.59386 2.75025C4.96748 2.77357 4.48123 3.25049 4.4634 3.87693C4.45449 4.19268 4.46192 4.50996 4.48222 4.8247C4.51787 5.38423 4.91945 5.83987 5.46809 5.88244C6.02118 5.92552 6.57874 5.90677 7.1348 5.91488C7.20561 5.91589 7.27692 5.91488 7.34525 5.91488V6.63711C6.80206 6.63711 6.27174 6.63964 5.74191 6.63204C5.70378 6.63153 5.65229 6.56311 5.63149 6.51547C5.50473 6.22303 5.22793 6.06693 4.94322 6.13586C4.63919 6.20935 4.46142 6.46682 4.48668 6.79828C4.53124 7.38772 5.00164 7.84082 5.58098 7.85197C5.69487 7.854 5.80925 7.85197 5.92017 7.85197C5.95632 8.30609 6.16874 8.54734 6.50991 8.55292C6.85603 8.55849 7.06895 8.32383 7.13183 7.85045C7.21403 7.85045 7.2992 7.85045 7.38437 7.85045C8.08552 7.85045 8.55543 7.36542 8.55196 6.64623C8.55048 6.39941 8.5475 6.15309 8.54354 5.90626C8.53215 5.17795 8.06224 4.69799 7.35218 4.69393C6.85801 4.69089 6.36334 4.69393 5.86917 4.69292C5.8043 4.69292 5.73944 4.68582 5.66318 4.68177V3.98184C5.69339 3.97576 5.71666 3.96664 5.73993 3.96714C6.24054 3.97525 6.74115 3.97981 7.24077 3.99857C7.29969 4.00059 7.37644 4.06699 7.40912 4.12477C7.57451 4.41518 7.87854 4.53834 8.16722 4.41771C8.45441 4.2976 8.59652 3.98894 8.50492 3.66659C8.37915 3.22515 8.09294 2.93778 7.66463 2.81208C7.48934 2.76089 7.30167 2.75279 7.11846 2.72491C7.00705 2.25052 6.8278 2.05438 6.50397 2.05539C6.18112 2.0564 6.00583 2.24799 5.88155 2.75025H5.88105ZM6.48911 10.4449C7.71167 10.4449 8.93373 10.4469 10.1563 10.4439C10.496 10.4429 10.744 10.2031 10.7584 9.87928C10.7738 9.53717 10.5529 9.27666 10.2108 9.23713C10.1434 9.22953 10.0751 9.23105 10.0072 9.23105C7.6676 9.23105 5.32796 9.23105 2.98831 9.23156C2.89621 9.23156 2.80263 9.2346 2.71251 9.25132C2.48671 9.2939 2.33618 9.43479 2.26488 9.65577C2.13465 10.0602 2.42086 10.4424 2.86007 10.4434C4.07024 10.4464 5.27993 10.4444 6.4901 10.4444L6.48911 10.4449ZM6.49456 11.4854C5.44432 11.4854 4.39358 11.4854 3.34334 11.4854C3.15815 11.4854 2.97247 11.4804 2.78728 11.4905C2.49909 11.5067 2.28023 11.7201 2.23715 12.0125C2.19902 12.2725 2.35203 12.5523 2.60654 12.6471C2.7135 12.6871 2.8358 12.6972 2.95118 12.6972C5.31805 12.6998 7.68444 12.6993 10.0513 12.6988C10.131 12.6988 10.2127 12.6952 10.2905 12.6795C10.5648 12.6248 10.7554 12.386 10.7589 12.1012C10.7639 11.7333 10.5088 11.4869 10.1092 11.4864C8.90452 11.4844 7.69929 11.4854 6.49456 11.4854ZM6.48961 13.7342C6.44653 13.7342 6.40295 13.7342 6.35988 13.7342C5.18683 13.7342 4.01379 13.7322 2.84075 13.7352C2.40303 13.7362 2.1198 14.1539 2.2733 14.5588C2.36589 14.8031 2.59169 14.9476 2.89374 14.9481C4.00488 14.9496 5.11603 14.9486 6.22767 14.9486C7.51162 14.9486 8.79608 14.9536 10.08 14.942C10.236 14.9405 10.4098 14.8817 10.542 14.796C10.746 14.6632 10.8079 14.3845 10.7327 14.1529C10.648 13.8934 10.4365 13.7352 10.1563 13.7352C8.93373 13.7337 7.71167 13.7347 6.48911 13.7342H6.48961Z" fill="#36AFFA"/>
<path d="M10.8369 0.00250852C11.3846 0.00250852 11.9154 -0.00509389 12.4457 0.00554948C12.7299 0.0111246 12.975 0.239704 12.9844 0.533157C13.0028 1.09421 12.9899 1.65629 12.9899 2.23356H10.8364V0.00250852H10.8369Z" fill="#36AFFA"/>
</g>
<defs>
<clipPath id="clip0_334_5081">
<rect width="13" height="17" fill="white"/>
</clipPath>
</defs>
</svg>
