<svg width="29" height="29" viewBox="0 0 29 29" fill="none" xmlns="http://www.w3.org/2000/svg">
<g clip-path="url(#clip0_1057_3101)">
<path d="M22.0215 0.411438C22.8245 0.974331 23.4882 1.74263 24.1879 2.43454C24.7382 2.97869 27.9395 6.02884 28.0211 6.43893L28.0355 25.7423C27.9214 26.9921 27.0368 27.8923 25.7853 28.0321L7.36914 28.0357C3.54898 27.8274 0.476249 24.7131 0.411256 20.8853C0.346263 17.0575 3.16913 13.9735 6.90697 13.4913L6.91708 2.60319C7.04345 1.44713 7.89631 0.624054 9.02285 0.411438L22.0215 0.411438ZM9.15862 2.03021C8.96003 2.0994 8.53613 2.44463 8.53613 2.65076V13.4949C9.7515 13.6246 10.7134 14.0737 11.7482 14.6654C11.8566 14.7274 12.2653 15.087 12.3 15.087H23.6196C23.9316 15.087 24.2558 15.6196 24.2471 15.9238C24.2392 16.2078 23.9041 16.7058 23.6196 16.7058H13.8706C13.9371 17.0416 14.1999 17.3271 14.3407 17.6406C14.6693 18.3743 14.8831 19.1476 15.008 19.9426H23.6196C23.9316 19.9426 24.2558 20.4752 24.2471 20.7794C24.2392 21.0633 23.9041 21.5614 23.6196 21.5614H15.008C14.7711 23.4684 13.7962 25.1722 12.3541 26.4169H25.786C25.9377 26.4169 26.4085 25.947 26.4085 25.7964V7.4249H21.6149C21.4402 7.4249 20.9924 6.97804 20.9924 6.80435V2.03021H9.15862ZM22.6173 3.24392V5.80685H25.1896C24.3815 4.91242 23.5149 4.04898 22.6173 3.24392ZM7.22471 15.1022C4.29713 15.3249 2.02453 17.8741 2.03681 20.7779C2.05775 26.0674 8.78744 28.4473 12.1375 24.3117C15.3019 20.406 12.2169 14.7223 7.22543 15.1029L7.22471 15.1022Z" fill="white"/>
<path d="M11.325 10.23H23.6195C23.904 10.23 24.2391 10.728 24.2471 11.012C24.2557 11.3161 23.9308 11.8487 23.6195 11.8487H11.325C11.3011 11.8487 10.956 11.6477 10.9177 11.6073C10.4764 11.1446 10.7415 10.4145 11.325 10.23Z" fill="white"/>
<path d="M6.91113 19.4828C7.02162 18.9184 7.81526 18.669 8.26299 19.0532C8.32293 19.1044 8.53596 19.4453 8.53596 19.4828V24.716C8.53596 25 8.03624 25.3329 7.75099 25.3416C7.44552 25.3502 6.91113 25.0266 6.91113 24.716V19.4828Z" fill="white"/>
<path d="M7.54565 16.1775C8.66787 15.9749 8.87801 17.5944 7.90095 17.771C6.77873 17.9735 6.56859 16.354 7.54565 16.1775Z" fill="white"/>
</g>
<defs>
<clipPath id="clip0_1057_3101">
<rect width="27.625" height="27.625" fill="white" transform="translate(0.411133 0.411438)"/>
</clipPath>
</defs>
</svg>
