<svg width="34" height="35" viewBox="0 0 34 35" fill="none" xmlns="http://www.w3.org/2000/svg">
<rect y="0.5" width="34" height="34" rx="6" fill="#EEF6FF"/>
<g clip-path="url(#clip0_93_1806)">
<path d="M9.49899 17.4851C9.26694 17.4851 9.07055 17.4863 8.87357 17.4851C8.25283 17.4803 7.75016 17.1309 7.51635 16.5438C7.27554 15.9394 7.39478 15.2988 7.84718 14.8627C8.64152 14.0973 9.44287 13.3396 10.2419 12.579C11.7593 11.1338 13.279 9.69034 14.7934 8.24216C15.8186 7.26165 17.1601 7.24976 18.1853 8.22492C20.497 10.4248 22.8081 12.6253 25.1169 14.8288C25.6751 15.3612 25.7628 16.1641 25.3425 16.8148C25.0619 17.248 24.6633 17.4756 24.1513 17.4845C23.9415 17.4881 23.7322 17.4851 23.5002 17.4851V18.4787C23.5002 19.0135 23.4961 19.5483 23.5031 20.0825C23.5048 20.2186 23.4709 20.2935 23.3412 20.3511C23.0279 20.4908 22.7239 20.6518 22.4159 20.8028C21.7426 21.132 21.0669 21.1326 20.3918 20.8105C20.0621 20.6536 19.7336 20.4938 19.4116 20.3208C19.3549 20.2905 19.3052 20.1877 19.304 20.1176C19.2958 19.5091 19.3005 18.9 19.2988 18.2909C19.2952 16.98 18.3969 16.0595 17.1133 16.0607C16.5604 16.0613 15.9998 16.0292 15.4551 16.1041C14.4357 16.2449 13.7144 17.1291 13.701 18.1756C13.6928 18.8138 13.6957 19.4526 13.701 20.0915C13.7021 20.2275 13.6659 20.3 13.535 20.3571C13.2275 20.4914 12.9306 20.6495 12.629 20.798C11.9568 21.1284 11.2817 21.1367 10.6054 20.8141C10.2694 20.6536 9.93327 20.4926 9.60595 20.3143C9.54692 20.2822 9.50249 20.1651 9.50191 20.0867C9.49431 19.307 9.49723 18.5274 9.49723 17.7477C9.49723 17.6681 9.49723 17.5879 9.49723 17.4857L9.49899 17.4851Z" fill="#36AFFA"/>
<path d="M21.3929 23.9096C20.4875 23.9143 19.664 23.622 18.8585 23.2315C18.3541 22.9873 17.8433 22.7353 17.309 22.582C16.4311 22.3307 15.5853 22.5214 14.7653 22.9095C14.1071 23.2208 13.446 23.5524 12.7517 23.7503C11.4628 24.1182 10.2289 23.8377 9.05526 23.2226C8.52512 22.9445 7.9979 22.6516 7.39936 22.5488C7.17784 22.5107 6.95164 22.4887 6.72719 22.478C6.30342 22.459 5.99481 22.1577 6.00007 21.7525C6.00591 21.3466 6.31979 21.0524 6.74823 21.0507C7.69162 21.0471 8.54382 21.3692 9.37732 21.7834C9.83323 22.0098 10.3014 22.2308 10.7871 22.3705C11.5704 22.5951 12.3489 22.4846 13.0901 22.1488C13.6155 21.9111 14.1223 21.6294 14.656 21.4137C16.0219 20.8617 17.3768 20.9389 18.7054 21.5647C19.1081 21.7542 19.5015 21.9664 19.9077 22.1476C20.9014 22.5898 21.9009 22.5915 22.8945 22.1447C23.4866 21.8784 24.0664 21.5825 24.6661 21.3347C25.1899 21.1184 25.7492 21.0417 26.3156 21.0524C26.695 21.0596 26.9942 21.3733 27.0001 21.7513C27.0059 22.1215 26.7259 22.4691 26.3606 22.4673C25.5207 22.4626 24.7848 22.7811 24.0612 23.1614C23.3709 23.5245 22.6566 23.8133 21.8722 23.8787C21.7127 23.8917 21.5525 23.8995 21.3924 23.9096H21.3929Z" fill="#36AFFA"/>
<path d="M21.388 27.5C20.4791 27.4786 19.6556 27.1844 18.8507 26.7934C18.3533 26.5516 17.8495 26.3014 17.3222 26.1498C16.4449 25.8979 15.5921 26.069 14.7791 26.4731C14.1192 26.8017 13.4715 27.1601 12.7473 27.333C11.4509 27.6426 10.2351 27.4043 9.06731 26.7946C8.53658 26.5177 8.01111 26.2212 7.41258 26.1183C7.18346 26.0791 6.95083 26.056 6.71878 26.0441C6.29794 26.0227 5.98932 25.7149 5.99926 25.3096C6.00919 24.9126 6.31898 24.6179 6.73339 24.6167C7.58209 24.6137 8.36883 24.8579 9.12634 25.2299C9.57173 25.4486 10.0136 25.6834 10.4783 25.8503C11.3615 26.1677 12.2429 26.0964 13.0963 25.7107C13.6218 25.473 14.1291 25.1925 14.6627 24.9774C16.0299 24.4259 17.3836 24.5073 18.7116 25.1337C19.1669 25.3482 19.6135 25.5859 20.0782 25.7778C21.0163 26.1665 21.9568 26.1267 22.8808 25.7154C23.4741 25.4516 24.0539 25.1551 24.6525 24.9055C25.1692 24.6898 25.7204 24.6143 26.2791 24.6173C26.686 24.6191 26.9975 24.9299 26.9987 25.3256C27.0004 25.722 26.6965 26.0357 26.2856 26.0399C25.6835 26.0464 25.1212 26.2039 24.5829 26.4678C23.895 26.8047 23.2275 27.1969 22.4664 27.3449C22.1099 27.4144 21.7475 27.4489 21.3874 27.4994L21.388 27.5Z" fill="#36AFFA"/>
</g>
<defs>
<clipPath id="clip0_93_1806">
<rect width="21" height="20" fill="white" transform="translate(6 7.5)"/>
</clipPath>
</defs>
</svg>
