<svg width="21" height="19" viewBox="0 0 21 19" fill="none" xmlns="http://www.w3.org/2000/svg">
<g clip-path="url(#clip0_334_5073)">
<path d="M0 11.6495C0.163819 11.2906 0.444337 11.1726 0.826215 11.1881C1.36369 11.2097 1.90227 11.1936 2.46057 11.1936V11.4351C2.46057 13.5908 2.46057 15.747 2.46057 17.9027C2.46057 18.4266 2.23155 18.6554 1.70886 18.6559C1.41519 18.6559 1.11988 18.6399 0.827311 18.6598C0.445433 18.6864 0.164914 18.5574 0 18.1996V11.6489L0 11.6495Z" fill="#36AFFA"/>
<path d="M3.69128 17.5727V17.3783C3.69128 15.1877 3.69237 12.9977 3.68799 10.8072C3.68799 10.6648 3.72524 10.5867 3.85729 10.5225C5.18044 9.87667 6.54796 9.71328 7.95604 10.168C9.87967 10.7889 11.7956 11.4342 13.7138 12.0711C14.3345 12.2771 14.6775 12.7114 14.6814 13.2841C14.6874 14.1287 13.9034 14.7269 13.0837 14.4721C11.9167 14.1094 10.7579 13.7183 9.59586 13.34C9.33617 13.2553 9.07811 13.165 8.81567 13.0902C8.48036 12.995 8.17903 13.1661 8.07219 13.4973C7.97521 13.7992 8.11657 14.1459 8.41571 14.2467C9.8205 14.7186 11.216 15.226 12.641 15.627C13.8365 15.9637 14.9854 15.7206 16.0149 14.9978C17.0192 14.2921 18.0158 13.576 19.0184 12.8687C19.8063 12.3126 20.815 12.7164 20.9782 13.6574C21.0577 14.116 20.9218 14.5358 20.5498 14.7995C19.2086 15.751 17.9013 16.7685 16.4839 17.5888C14.2754 18.8671 11.8554 19.2736 9.33836 18.8228C7.90837 18.5669 6.49646 18.2063 5.07743 17.8912C4.6183 17.7893 4.16082 17.6813 3.69128 17.5733V17.5727Z" fill="#36AFFA"/>
<path d="M11.1548 4.96601C11.1575 2.22601 13.3617 0.00110815 16.0732 4.11622e-07C18.7929 -0.00110733 21.0009 2.23376 20.9965 4.98263C20.9921 7.73094 18.777 9.95805 16.0562 9.94919C13.3463 9.94033 11.152 7.70933 11.1548 4.96601ZM18.2549 3.13491C18.2247 2.85576 18.0763 2.62812 17.8412 2.53396C17.5782 2.42873 17.3158 2.49962 17.1103 2.74886C16.1071 3.96184 15.1062 5.17704 14.1068 6.39278C13.852 6.7024 13.8707 7.08235 14.1419 7.31498C14.4158 7.54927 14.7884 7.50496 15.0464 7.19313C16.054 5.97516 17.0599 4.75554 18.0598 3.53093C18.1502 3.42016 18.1913 3.26784 18.2549 3.13491ZM18.2236 6.832C18.2193 6.49026 17.9415 6.21444 17.6051 6.21887C17.2703 6.2233 16.9953 6.5091 16.9997 6.84751C17.0046 7.18703 17.2857 7.46563 17.6204 7.4612C17.9563 7.45677 18.228 7.17374 18.2236 6.832ZM14.5391 2.48744C14.2043 2.48633 13.926 2.76714 13.9249 3.10722C13.9238 3.4473 14.1999 3.72922 14.5358 3.73032C14.8722 3.73143 15.1472 3.45339 15.1489 3.1111C15.15 2.76991 14.8755 2.48854 14.5396 2.48744H14.5391Z" fill="#36AFFA"/>
</g>
<defs>
<clipPath id="clip0_334_5073">
<rect width="21" height="19" fill="white"/>
</clipPath>
</defs>
</svg>
