<svg width="246" height="282" viewBox="0 0 246 282" fill="none" xmlns="http://www.w3.org/2000/svg">
<g clip-path="url(#clip0_148_2117)">
<path d="M121.129 244.184C121.129 244.184 24.0948 237.041 12.4261 189.567C0.757346 142.094 26.6181 135.635 35.4481 109.044C44.278 82.4534 4.22533 66.7723 31.0323 30.592C57.8408 -5.58684 97.3735 -6.21802 114.034 10.8223C130.693 27.8626 149.898 0.409367 180.822 15.8717C211.747 31.3341 219.315 62.579 209.539 86.981C199.762 111.385 239.851 134.723 244.879 162.39C249.907 190.059 204.528 256.383 121.131 244.184H121.129Z" fill="#E7F5FE"/>
<path d="M22.8097 282H80.9565L85.7798 269.006C87.488 264.404 90.9841 260.702 95.4561 258.679C99.6673 256.773 105.335 253.311 110.829 247.141C121.52 235.133 127.194 222.254 127.194 222.254L91.159 222.077C91.159 222.077 94.4021 201.909 76.4923 175.121C74.5748 172.254 73.7035 168.813 74.0018 165.377L75.6991 145.842C75.6991 145.842 87.8706 132.232 80.4022 115.35C80.4022 115.35 73.2617 105.457 70.4292 109.079C70.4292 109.079 48.8609 160.47 46.8966 168.111C44.9323 175.752 42.3137 180.555 44.9323 204.571C45.6256 210.928 45.8738 216.231 45.866 220.59C45.8489 228.959 43.9814 237.219 40.4041 244.785L22.8097 282.003V282Z" fill="#FFC0BB"/>
<g style="mix-blend-mode:multiply" opacity="0.2">
<path d="M77.0419 248.663C71.644 242.667 64.1475 243.614 56.2621 240.88C48.3768 238.146 45.8488 218.427 45.8488 218.427V218.424C45.8613 219.168 45.866 219.891 45.8645 220.587C45.8473 228.956 43.9798 237.216 40.4025 244.782L22.8081 282H80.9549L85.7782 269.006C87.4864 264.404 90.9825 260.702 95.4545 258.679C99.038 257.056 103.677 254.306 108.366 249.721C92.3503 256.456 82.4383 254.659 77.0403 248.665L77.0419 248.663Z" fill="#FFC0BB"/>
</g>
<path d="M51.3311 49.1836C64.6987 70.2875 97.6468 89.0948 97.6468 89.0948C97.6468 89.0948 71.4551 86.9669 58.4576 70.0313L63.1701 66.1255C63.1701 66.1255 59.4241 66.4879 56.2856 66.8504C53.3954 62.0525 51.5232 56.2344 51.3296 49.1836H51.3311Z" fill="#9DC8BE" stroke="black" stroke-width="0.5" stroke-miterlimit="10"/>
<path d="M86.4061 57.9124C84.3731 58.8357 81.3658 60.2418 81.3658 60.2418L84.2638 56.0766C80.8895 53.4488 77.1748 51.699 73.4961 50.5522C72.0049 52.7254 70.2514 55.1548 70.2514 55.1548L69.9032 49.6102C60.0395 47.4838 51.3313 49.1836 51.3313 49.1836C64.6989 70.2875 97.647 89.0948 97.647 89.0948C97.4987 73.5887 92.7784 63.907 86.4061 57.9108V57.9124Z" fill="#CAE7E0" stroke="black" stroke-width="0.5" stroke-miterlimit="10"/>
<path d="M46.4219 78.9616C50.3536 76.6494 54.3431 75.4042 58.2202 74.8949C59.3881 76.2291 60.8216 77.7977 60.8216 77.7977L60.9012 74.6574C75.8005 73.9434 88.3639 83.333 88.3639 83.333C79.8369 88.5231 72.4996 89.9791 66.4537 89.5479C66.0727 88.4512 65.5309 86.8139 65.5309 86.8139L64.5191 89.3417C61.6163 88.9277 59.0446 88.0872 56.818 87.0545C57.3551 85.7437 57.9173 84.2438 57.9173 84.2438L54.7397 85.9858C49.2856 82.8987 46.4234 78.9616 46.4234 78.9616H46.4219Z" fill="#FF6E53" stroke="black" stroke-width="0.5" stroke-miterlimit="10"/>
<path d="M66.4536 89.5479C66.0726 88.4512 65.5308 86.8139 65.5308 86.8139L64.519 89.3417C61.6162 88.9277 59.0445 88.0872 56.8179 87.0545C57.355 85.7437 57.9172 84.2438 57.9172 84.2438L54.7396 85.9858C49.2855 82.8987 46.4233 78.9616 46.4233 78.9616C63.7585 76.979 88.3638 83.3314 88.3638 83.3314C79.8368 88.5215 72.4995 89.9776 66.4536 89.5464V89.5479Z" fill="#E45B50" stroke="black" stroke-width="0.5" stroke-miterlimit="10"/>
<path d="M193.139 76.7947L191.882 86.2733L198.61 81.3567L219.204 70.8297L203.274 72.2889C203.274 72.2889 195.159 74.2606 194.719 74.659C194.28 75.0574 193.137 76.7947 193.137 76.7947H193.139Z" fill="#E74A60" stroke="black" stroke-width="0.5" stroke-miterlimit="10"/>
<path d="M186.396 71.0859L219.516 70.8438L193.451 76.8087L186.396 71.0859Z" fill="#FF6E53" stroke="black" stroke-width="0.5" stroke-miterlimit="10"/>
<path d="M204.099 86.3452L195.42 79.3694L219.516 70.8438L204.099 86.3452Z" fill="#FF6E53" stroke="black" stroke-width="0.5" stroke-miterlimit="10"/>
<path d="M189.724 81.7316C190.992 81.2551 191.926 81.152 191.935 81.1504L191.873 80.5614C191.832 80.5661 190.853 80.6739 189.516 81.177L189.724 81.73V81.7316Z" fill="black"/>
<path d="M168.854 134.52C170.223 133.826 171.514 133.076 172.688 132.293L173.016 132.785C171.823 133.582 170.512 134.343 169.121 135.048L168.854 134.52ZM176.178 129.576C177.29 128.559 178.292 127.464 179.154 126.32L179.626 126.677C178.742 127.85 177.716 128.972 176.576 130.014L176.178 129.576ZM181.44 122.554C181.731 121.944 181.998 121.31 182.234 120.666C182.501 119.938 182.738 119.177 182.938 118.406L183.511 118.554C183.306 119.346 183.064 120.126 182.789 120.871C182.547 121.53 182.273 122.182 181.976 122.808L181.442 122.554H181.44ZM183.828 109.613L184.42 109.599C184.456 111.206 184.409 112.68 184.274 114.103L183.686 114.047C183.818 112.645 183.865 111.196 183.829 109.611L183.828 109.613ZM182.986 100.742L183.572 100.658C183.82 102.389 183.996 103.804 184.128 105.11L183.539 105.17C183.408 103.871 183.233 102.465 182.986 100.742ZM182.326 96.2863C182.091 94.6911 182.017 93.1804 182.102 91.7946L182.693 91.8321C182.608 93.1772 182.683 94.6474 182.911 96.1988L182.916 96.2331L182.33 96.3144L182.326 96.2878V96.2863ZM183.069 87.3482C183.664 85.8921 184.529 84.6219 185.636 83.5736L186.042 84.0032C184.996 84.9922 184.179 86.1936 183.615 87.5716L183.067 87.3482H183.069Z" fill="black"/>
<path d="M162.772 137.713C163.534 137.449 164.283 137.171 165.001 136.888L164.784 136.338C164.074 136.618 163.331 136.893 162.578 137.155L162.772 137.714V137.713Z" fill="black"/>
<path d="M159.705 74.8121C159.705 74.8121 172.022 66.5646 174.834 71.9984C177.646 77.4321 158.832 96.6597 158.832 96.6597L159.705 74.8121Z" fill="#EAA0A0"/>
<path d="M159.705 110.749C159.705 110.749 172.022 102.501 174.834 107.935C177.646 113.369 158.832 132.596 158.832 132.596L159.705 110.749Z" fill="#EAA0A0"/>
<path d="M159.705 135.232C159.705 135.232 172.022 126.985 174.834 132.418C177.646 137.852 158.832 157.08 158.832 157.08L159.705 135.232Z" fill="#EAA0A0"/>
<path d="M151.198 65.5709H83.5843C78.5502 65.5709 74.467 69.6548 74.467 74.6933V212.955C74.467 218.034 78.5924 222.077 83.5843 222.077H151.198C156.232 222.077 160.315 217.995 160.315 212.955V74.6918C160.315 69.6079 156.185 65.5693 151.198 65.5693V65.5709Z" fill="#126AA0"/>
<g style="mix-blend-mode:multiply" opacity="0.2">
<path d="M80.6271 181.822C80.6271 181.822 68.3978 211.777 69.5845 217.44C70.7712 223.103 78.1928 230.678 96.4008 228.153C114.609 225.628 127.194 222.254 127.194 222.254C127.194 222.254 127.955 181.828 127.194 179.779C126.434 177.729 93.6948 163.177 92.4066 163.177C91.1185 163.177 80.6271 181.822 80.6271 181.822Z" fill="#FFC0BB"/>
</g>
<path d="M155.897 78.0039H78.8875V209.644H155.897V78.0039Z" fill="white"/>
<g style="mix-blend-mode:multiply" opacity="0.3">
<path d="M137.18 154.784H70.2996C67.9886 154.784 66.1165 156.658 66.1165 158.97V186.586C66.1165 188.896 67.9886 190.771 70.2996 190.771H122.953C125.085 193.746 128.948 199.075 129.29 199.075C129.61 199.075 128.994 194.043 128.56 190.771H137.18C139.489 190.771 141.363 188.898 141.363 186.586V158.97C141.363 156.659 139.49 154.784 137.18 154.784Z" fill="#DAEEF7"/>
</g>
<g style="mix-blend-mode:multiply" opacity="0.3">
<path d="M161.12 92.2179H89.9224C87.6114 92.2179 85.7393 94.0911 85.7393 96.4034V126.084C85.7393 128.395 87.6114 130.27 89.9224 130.27H97.3158C96.8864 133.537 96.3243 138.224 96.6335 138.224C96.9614 138.224 100.55 133.293 102.718 130.27H161.12C163.429 130.27 165.303 128.397 165.303 126.084V96.4034C165.303 94.0927 163.431 92.2179 161.12 92.2179Z" fill="#DAEEF7"/>
</g>
<path d="M133.143 72.217H101.764C101.33 72.217 100.977 72.5696 100.977 73.0045V73.0794C100.977 73.5143 101.33 73.8669 101.764 73.8669H133.143C133.578 73.8669 133.93 73.5143 133.93 73.0794V73.0045C133.93 72.5696 133.578 72.217 133.143 72.217Z" fill="white"/>
<path d="M72.9353 157.629C72.9353 157.629 73.4006 159.357 74.4499 160.207L75.6991 145.84C75.6991 145.84 84.6524 135.829 82.4898 122.327C81.7497 117.704 79.4512 113.451 75.938 110.36C73.9315 108.596 71.7283 107.416 70.4307 109.077C70.4307 109.077 60.2876 133.245 53.2798 150.897L72.9369 157.629H72.9353Z" fill="#FFC0BB"/>
<path d="M134.417 147.621H67.5374C65.228 147.621 63.3542 149.494 63.3542 151.807V179.422C63.3542 181.733 65.2264 183.608 67.5374 183.608H120.193C122.324 186.583 126.187 191.912 126.529 191.912C126.849 191.912 126.234 186.879 125.8 183.608H134.419C136.728 183.608 138.602 181.735 138.602 179.422V151.807C138.602 149.494 136.73 147.621 134.419 147.621H134.417Z" fill="#E75952" stroke="black" stroke-width="0.5" stroke-miterlimit="10"/>
<path d="M155.897 201.856H78.8875V209.642H155.897V201.856Z" fill="#36AFFA"/>
<path d="M155.897 78.0039H78.8875V84.9891H155.897V78.0039Z" fill="#65CEFE"/>
<path d="M72.253 123.271C75.0558 121.98 76.5189 114.684 77.042 111.405C74.7935 109.141 71.9719 107.104 70.4292 109.077C70.4292 109.077 68.1964 114.398 65.1016 121.871C67.2173 123.049 70.1575 124.235 72.253 123.271Z" fill="#EAA0A0"/>
<path d="M142.869 164.702C142.869 164.702 132.469 165.575 132.105 168.341C131.741 171.106 132.54 175.982 142.36 176.929H152.532C152.532 176.929 149.488 168.488 149.634 168.196C149.779 167.905 142.869 164.702 142.869 164.702Z" fill="#EFADAB"/>
<path d="M126.182 205.955C124.774 206.704 124.284 208.485 125.083 209.866C129.869 218.126 148.901 250.949 150.616 253.619C152.58 256.675 157.38 263.88 173.308 267.591C189.237 271.303 195.782 282 195.782 282H244.877C244.877 282 233.313 263.661 223.712 216.067C223.712 216.067 216.293 176.551 202.328 177.86C202.328 177.86 193.818 168.909 185.527 170.656C185.527 170.656 169.817 161.268 160.87 161.268L139.381 135.858C137.254 133.343 133.505 132.851 130.89 134.852C130.048 135.496 129.407 136.347 129.23 137.471C128.576 141.619 134.03 152.099 142.759 164.761C151.487 177.424 173.088 217.595 163.705 235.279C163.705 235.279 154.104 228.075 145.813 216.503C138.869 206.813 130.701 203.554 126.179 205.955H126.182Z" fill="#FFC0BB"/>
<path d="M160.951 161.277C163.802 163.719 166.474 166.369 168.999 169.152C172.407 172.864 176.711 178.365 179.239 182.616C182.426 187.87 184.529 192.477 185.522 198.264L185.458 198.276C184.313 192.841 181.322 186.986 178.717 182.942C176.768 179.78 173.158 174.756 168.61 169.491C166.325 166.853 163.426 163.738 160.907 161.324L160.953 161.277H160.951Z" fill="#EAA0A0"/>
<path d="M185.388 170.587C187.708 171.775 189.777 173.432 191.605 175.306C193.456 177.171 194.992 179.285 196.316 181.594C197.609 183.884 198.601 186.343 199.266 188.878C199.83 191.252 200.195 192.863 200.253 196.62L200.187 196.625C199.972 194.05 199.502 191.499 198.773 189.023C198.036 186.626 197 184.052 195.746 181.916C194.491 179.663 192.961 177.563 191.224 175.654C189.582 173.856 187.433 171.912 185.355 170.644L185.388 170.586V170.587Z" fill="#EAA0A0"/>
<path d="M202.148 177.677C204.2 179.23 206.278 181.978 207.284 183.836C208.552 186.017 209.554 188.548 210.216 191.321C210.702 193.094 210.825 194.816 210.9 196.619L210.835 196.628C210.533 194.88 210.343 193.577 209.72 191.462C208.766 188.254 208.018 186.604 206.74 184.131C205.977 182.606 203.995 179.586 202.117 177.726L202.147 177.677H202.148Z" fill="#EAA0A0"/>
<path d="M136.093 216.118C136.528 213.908 133.954 210.403 131.618 207.758C130.159 206.107 127.856 205.49 125.831 206.18C124.699 207.019 124.354 208.607 125.083 209.864C126.37 212.084 128.684 216.078 131.415 220.782C133.459 219.74 135.688 218.163 136.091 216.117L136.093 216.118Z" fill="#EAA0A0"/>
<path d="M138.155 145.831C139.397 145.582 145.029 143.709 144.684 142.681L139.128 136.113C138.026 134.809 136.486 134.049 134.895 133.899C134.886 133.899 134.878 133.898 134.869 133.896C134.823 133.892 134.722 133.885 134.58 133.885C133.835 133.885 132 134.098 131.597 136.116C131.199 138.108 134.495 142.953 135.949 144.967C136.452 145.664 137.314 146.001 138.155 145.832V145.831Z" fill="#EAA0A0"/>
<path d="M39.564 247.669C45.7161 251.452 65.5246 262.762 86.0062 265.172C87.2054 265.313 88.0501 266.414 87.6956 267.364L84.1184 276.954C83.881 277.588 83.169 277.958 82.368 277.861C76.3314 277.129 51.4263 273.378 33.9037 259.813C33.3073 259.351 33.0559 258.651 33.2792 258.054L36.9314 248.268C37.2749 247.346 38.5647 247.054 39.5655 247.669H39.564Z" fill="#064C91"/>
<path d="M37.7651 256.84L37.698 256.815C37.3388 256.681 37.1562 256.281 37.2904 255.922L38.3913 252.97C38.5255 252.611 38.9253 252.428 39.2844 252.563L39.3516 252.588C39.7107 252.722 39.8934 253.122 39.7591 253.481L38.6583 256.434C38.524 256.793 38.1243 256.976 37.7651 256.842V256.84Z" fill="#063E70"/>
<path d="M41.4502 259.112L41.383 259.087C41.0239 258.953 40.8412 258.553 40.9755 258.193L42.0763 255.24C42.2106 254.881 42.6103 254.698 42.9695 254.833L43.0366 254.858C43.3957 254.992 43.5784 255.392 43.4442 255.751L42.3433 258.703C42.209 259.062 41.8093 259.245 41.4502 259.11V259.112Z" fill="#063E70"/>
<path d="M45.1056 261.355C44.7277 261.215 44.5356 260.793 44.6762 260.415L45.752 257.531C45.8925 257.153 46.3141 256.961 46.692 257.101C47.0699 257.242 47.2619 257.664 47.1214 258.042L46.0455 260.926C45.905 261.304 45.4834 261.496 45.1056 261.355Z" fill="#063E70"/>
<path d="M48.9372 263.202L48.8701 263.177C48.511 263.043 48.3283 262.643 48.4626 262.284L49.5649 259.332C49.6992 258.973 50.099 258.79 50.4581 258.925L50.5252 258.949C50.8844 259.084 51.0671 259.484 50.9328 259.843L49.832 262.796C49.6977 263.155 49.2979 263.338 48.9388 263.204L48.9372 263.202Z" fill="#063E70"/>
<path d="M52.6738 265.336L52.6067 265.311C52.2475 265.177 52.0649 264.777 52.1991 264.418L53.3 261.465C53.4342 261.106 53.834 260.923 54.1931 261.057L54.2602 261.082C54.6194 261.216 54.8021 261.616 54.6678 261.976L53.567 264.929C53.4327 265.288 53.033 265.471 52.6738 265.336Z" fill="#063E70"/>
<path d="M56.0973 266.113L57.2003 263.161C57.3348 262.801 57.7347 262.619 58.0945 262.754L58.1617 262.779C58.5201 262.913 58.7038 263.313 58.5693 263.673L57.4663 266.625C57.3323 266.984 56.9319 267.167 56.5721 267.033L56.5048 267.008C56.1465 266.874 55.9643 266.473 56.0983 266.115L56.0973 266.113Z" fill="#063E70"/>
<path d="M60.0739 267.602L61.1769 264.651C61.3108 264.292 61.7112 264.108 62.071 264.243L62.1383 264.268C62.4966 264.402 62.6803 264.803 62.5458 265.163L61.4429 268.115C61.3083 268.475 60.9085 268.657 60.5487 268.522L60.4814 268.497C60.1231 268.363 59.9394 267.962 60.0739 267.602Z" fill="#063E70"/>
<path d="M64.5721 269.781C64.1942 269.64 64.0022 269.219 64.1427 268.841L65.2185 265.957C65.3591 265.578 65.7807 265.386 66.1585 265.527C66.5364 265.667 66.7285 266.089 66.5879 266.467L65.5121 269.351C65.3716 269.73 64.95 269.922 64.5721 269.781Z" fill="#063E70"/>
<path d="M68.7911 270.619C68.4132 270.478 68.2212 270.056 68.3617 269.678L69.4375 266.794C69.5781 266.416 69.9997 266.224 70.3775 266.364C70.7554 266.506 70.9475 266.927 70.8054 267.305L69.7295 270.189C69.589 270.567 69.1674 270.759 68.7895 270.619H68.7911Z" fill="#063E70"/>
<path d="M72.9321 271.768L72.865 271.743C72.5058 271.609 72.3232 271.209 72.4574 270.85L73.5583 267.897C73.6925 267.538 74.0923 267.355 74.4514 267.489L74.5185 267.514C74.8777 267.649 75.0604 268.049 74.9261 268.408L73.8253 271.359C73.691 271.718 73.2912 271.901 72.9321 271.767V271.768Z" fill="#063E70"/>
<path d="M76.7201 271.572L77.823 268.621C77.9576 268.261 78.3574 268.078 78.7172 268.213L78.7845 268.238C79.1428 268.372 79.3251 268.772 79.1911 269.131L78.0881 272.082C77.9542 272.441 77.5537 272.625 77.194 272.49L77.1267 272.465C76.7684 272.331 76.5861 271.931 76.7201 271.572Z" fill="#063E70"/>
<path d="M81.4342 273.17C81.0563 273.029 80.8642 272.607 81.0048 272.229L82.0806 269.345C82.2211 268.967 82.6427 268.775 83.0206 268.916C83.3985 269.056 83.5905 269.478 83.45 269.856L82.3741 272.74C82.2336 273.118 81.812 273.31 81.4342 273.17Z" fill="#063E70"/>
<path d="M51.7215 269.875L51.7387 269.829C51.6731 269.822 51.6091 269.806 51.5451 269.783L46.6983 267.972C46.2205 267.794 45.9879 267.227 46.1799 266.709L50.5504 254.997C50.744 254.48 51.2905 254.203 51.7684 254.383L56.6151 256.193C56.8993 256.3 57.0945 256.542 57.1678 256.829C57.5488 256.995 57.9314 257.162 58.3186 257.328C58.4482 256.343 57.9423 255.386 57.0414 255.05L52.1946 253.239C51.1328 252.842 49.9196 253.453 49.4918 254.601L45.1213 266.314C44.6934 267.463 45.2087 268.72 46.2705 269.117L51.1172 270.928C51.8449 271.2 52.6412 270.998 53.2096 270.476C52.7146 270.281 52.218 270.081 51.7199 269.876L51.7215 269.875Z" fill="#FFCB83"/>
<path d="M50.658 260.579L48.55 259.792C48.1722 259.651 47.7428 259.866 47.5898 260.276C47.4367 260.685 47.6194 261.13 47.9973 261.271L50.1052 262.058L50.658 260.579Z" fill="#EEFBFF"/>
<g style="mix-blend-mode:multiply" opacity="0.2">
<path d="M145.357 168.745C154.983 184.222 172.253 219.769 163.709 235.28L169.38 240.881C169.38 240.881 183.709 224.999 160.907 189.971C155.602 181.82 150.327 174.77 145.357 168.745Z" fill="#FFC0BB"/>
</g>
<path d="M88.1636 166.351C88.5777 160.571 84.2304 155.55 78.4535 155.135C72.6767 154.721 67.658 159.071 67.2439 164.851C66.8298 170.631 71.1772 175.652 76.954 176.067C82.7308 176.481 87.7495 172.131 88.1636 166.351Z" fill="white"/>
<path d="M72.2514 165.889C72.2514 165.889 71.2114 161.62 73.6879 160.021C76.1644 158.423 78.8094 158.058 80.6176 158.978C83.1237 160.254 84.1527 163.705 83.3517 165.613L76.7015 163.941L72.2514 165.888V165.889Z" fill="#031322"/>
<path d="M79.3685 170.9H76.2893V173.976H79.3685V170.9Z" fill="#FFC0BB"/>
<path d="M79.3685 172.745V170.901H76.2893V172.47C76.9529 172.826 77.9335 173.031 79.3685 172.745Z" fill="#F99893"/>
<path d="M84.223 165.394C83.9013 165.236 83.5281 165.265 83.1909 165.435C83.3064 162.399 80.8284 159.846 77.7086 159.954C74.5873 159.846 72.1108 162.399 72.2264 165.435C71.8891 165.265 71.5159 165.235 71.1942 165.394C70.5775 165.697 70.387 166.568 70.7664 167.338C71.1458 168.108 71.9547 168.485 72.5699 168.181C72.6558 168.139 72.7323 168.085 72.801 168.024C73.1539 170.533 75.2493 172.414 77.7086 172.379C80.1679 172.414 82.2618 170.533 82.6162 168.024C82.6849 168.086 82.7615 168.139 82.8473 168.181C83.4641 168.485 84.2714 168.108 84.6508 167.338C85.0302 166.568 84.8397 165.697 84.223 165.394Z" fill="#FFC0BB"/>
<path d="M79.7245 168.98C79.5886 169.587 78.8938 170.067 78.0397 170.092C77.1871 170.119 76.4626 169.683 76.2893 169.084L79.7245 168.98Z" fill="white"/>
<path d="M72.2265 165.435C72.2265 165.435 76.2566 164.213 78.0195 162.174C78.0195 162.174 77.5198 164.632 77.1482 165.024C77.2653 165.102 81.1736 163.202 81.7045 161.448C82.2354 159.693 77.7103 159.064 77.7103 159.064C77.7103 159.064 76.1598 159.725 76.0817 159.764C76.0036 159.803 74.5484 159.973 74.3813 160.343C74.1642 160.826 73.1368 160.87 73.1368 160.87L72.4888 162.22L72.0344 163.64L72.2265 165.436V165.435Z" fill="#031322"/>
<path d="M68.9255 159.881C69.8156 160.238 70.843 160.406 71.9095 160.078C74.261 159.354 75.1932 159.635 75.5055 159.812C75.6929 159.918 75.9177 159.96 76.1223 159.892C76.3549 159.814 76.5688 159.604 76.5032 159.075C76.5032 159.075 76.5969 156.839 74.681 155.566C72.292 156.286 70.2621 157.836 68.9271 159.881H68.9255Z" fill="#031322"/>
<path d="M73.986 159.734C73.9158 159.642 73.9376 159.51 74.0344 159.446C74.4279 159.189 75.4382 158.606 76.6514 158.545C76.7654 158.539 76.8607 158.631 76.8607 158.745C76.8607 158.851 76.7779 158.939 76.6717 158.943C75.5631 159.001 74.6122 159.548 74.2546 159.782C74.1672 159.839 74.0516 159.818 73.9876 159.735L73.986 159.734Z" fill="#FFCB83"/>
<path d="M164.522 84.3282H93.3247C91.0153 84.3282 89.1416 86.2015 89.1416 88.5137V118.195C89.1416 120.505 91.0138 122.38 93.3247 122.38H100.718C100.289 125.647 99.7267 130.334 100.036 130.334C100.364 130.334 103.952 125.403 106.121 122.38H164.522C166.833 122.38 168.705 120.507 168.705 118.195V88.5137C168.705 86.203 166.833 84.3282 164.522 84.3282Z" fill="#FDCC44" stroke="black" stroke-width="0.75" stroke-miterlimit="10"/>
<path d="M112.809 106.975C114.748 101.515 111.896 95.5156 106.439 93.5755C100.981 91.6354 94.9853 94.4892 93.0463 99.9497C91.1073 105.41 93.9595 111.41 99.4169 113.35C104.874 115.29 110.87 112.436 112.809 106.975Z" fill="white"/>
<path d="M104.586 108.746H101.507V111.822H104.586V108.746Z" fill="#FFC0BB" stroke="black" stroke-width="0.5" stroke-miterlimit="10"/>
<path d="M104.586 110.589V108.746H101.507V110.314C102.17 110.671 103.151 110.875 104.586 110.589Z" fill="#F99893" stroke="black" stroke-width="0.5" stroke-miterlimit="10"/>
<path d="M109.441 103.24C109.119 103.082 108.746 103.111 108.408 103.281C108.524 100.245 106.046 97.6924 102.926 97.8002C99.8048 97.6924 97.3283 100.245 97.4439 103.281C97.1066 103.111 96.7334 103.082 96.4118 103.24C95.795 103.543 95.6045 104.414 95.9839 105.184C96.3634 105.954 97.1722 106.33 97.7874 106.027C97.8733 105.985 97.9498 105.931 98.0185 105.87C98.3714 108.379 100.467 110.26 102.926 110.225C105.384 110.26 107.479 108.379 107.834 105.87C107.902 105.932 107.979 105.985 108.065 106.027C108.682 106.33 109.489 105.954 109.868 105.184C110.248 104.414 110.057 103.543 109.441 103.24Z" fill="#FFC0BB" stroke="black" stroke-width="0.5" stroke-miterlimit="10"/>
<path d="M99.1772 96.5988C99.1772 96.5988 100.723 95.2896 104.235 95.502C107.746 95.713 108.415 97.5471 108.615 100.166L108.408 103.281C108.408 103.281 107.497 102.343 106.308 99.7422C106.308 99.7422 104.342 101.95 103.485 101.689C102.628 101.428 103.808 99.8375 103.808 99.8375C103.808 99.8375 99.8018 103.287 97.4424 103.281C97.4424 103.281 96.1933 99.2438 97.9468 97.7627C97.9468 97.7627 96.6258 97.8252 96.5571 97.5659C96.4868 97.3065 97.1863 96.9175 98.4558 97.0644C98.4558 97.0644 97.5517 95.2943 98.0561 95.1099C98.562 94.9255 99.1756 96.5972 99.1756 96.5972L99.1772 96.5988Z" fill="#031322"/>
<path d="M104.942 106.826C104.806 107.434 104.11 107.913 103.257 107.938C102.405 107.963 101.68 107.529 101.507 106.93L104.942 106.826Z" fill="white" stroke="black" stroke-width="0.5" stroke-miterlimit="10"/>
<path d="M157.845 94.7052H117.932C117.429 94.7052 117.021 94.2974 117.021 93.7928C117.021 93.2897 117.429 92.882 117.932 92.882H157.845C158.348 92.882 158.757 93.2897 158.757 93.7928C158.757 94.2959 158.35 94.7052 157.845 94.7052Z" fill="white" stroke="black" stroke-width="0.5" stroke-miterlimit="10"/>
<path d="M125.967 99.5156H117.933C117.43 99.5156 117.023 99.1079 117.023 98.6048C117.023 98.1017 117.43 97.694 117.933 97.694H125.967C126.47 97.694 126.877 98.1017 126.877 98.6048C126.877 99.1079 126.47 99.5172 125.967 99.5172V99.5156Z" fill="white" stroke="black" stroke-width="0.5" stroke-miterlimit="10"/>
<path d="M157.845 99.5156H131.508C131.006 99.5156 130.598 99.1079 130.598 98.6048C130.598 98.1017 131.006 97.694 131.508 97.694H157.845C158.348 97.694 158.757 98.1017 158.757 98.6048C158.757 99.1079 158.35 99.5156 157.845 99.5156Z" fill="white" stroke="black" stroke-width="0.5" stroke-miterlimit="10"/>
<path d="M137.672 104.326H117.933C117.43 104.326 117.023 103.918 117.023 103.415C117.023 102.912 117.43 102.504 117.933 102.504H137.672C138.174 102.504 138.583 102.912 138.583 103.415C138.583 103.918 138.176 104.326 137.673 104.326H137.672Z" fill="white" stroke="black" stroke-width="0.5" stroke-miterlimit="10"/>
<path d="M157.845 104.326H142.646C142.143 104.326 141.734 103.918 141.734 103.415C141.734 102.912 142.142 102.504 142.646 102.504H157.845C158.348 102.504 158.756 102.912 158.756 103.415C158.756 103.918 158.348 104.328 157.845 104.328V104.326Z" fill="white" stroke="black" stroke-width="0.5" stroke-miterlimit="10"/>
<path d="M157.845 109.138H117.932C117.429 109.138 117.021 108.73 117.021 108.227C117.021 107.724 117.429 107.315 117.932 107.315H157.845C158.348 107.315 158.757 107.723 158.757 108.227C158.757 108.73 158.35 109.138 157.845 109.138Z" fill="white" stroke="black" stroke-width="0.5" stroke-miterlimit="10"/>
<path d="M103.377 158.398H91.151C90.6483 158.398 90.2407 157.99 90.2407 157.486C90.2407 156.983 90.6483 156.575 91.151 156.575H103.377C103.88 156.575 104.288 156.983 104.288 157.486C104.288 157.989 103.88 158.398 103.376 158.398H103.377Z" fill="white"/>
<path d="M98.8178 163.208H91.151C90.6483 163.208 90.2407 162.801 90.2407 162.298C90.2407 161.795 90.6483 161.385 91.151 161.385H98.8178C99.3205 161.385 99.7281 161.793 99.7281 162.298C99.7281 162.801 99.3205 163.208 98.8178 163.208Z" fill="white"/>
<path d="M112.132 163.208H102.277C101.774 163.208 101.366 162.801 101.366 162.298C101.366 161.795 101.774 161.385 102.277 161.385H112.132C112.635 161.385 113.043 161.793 113.043 162.298C113.043 162.801 112.635 163.208 112.132 163.208Z" fill="white"/>
<path d="M129.51 163.208H115.591C115.088 163.208 114.681 162.801 114.681 162.298C114.681 161.795 115.088 161.385 115.591 161.385H129.51C130.013 161.385 130.42 161.793 130.42 162.298C130.42 162.801 130.013 163.208 129.51 163.208Z" fill="white"/>
<path d="M129.51 158.398H107.528C107.025 158.398 106.617 157.99 106.617 157.487C106.617 156.984 107.025 156.575 107.528 156.575H129.51C130.012 156.575 130.42 156.983 130.42 157.486C130.42 157.989 130.012 158.398 129.51 158.398Z" fill="white"/>
<path d="M129.51 172.639H91.151C90.6483 172.639 90.2407 172.231 90.2407 171.728C90.2407 171.225 90.6483 170.817 91.151 170.817H129.51C130.012 170.817 130.42 171.225 130.42 171.728C130.42 172.231 130.012 172.639 129.51 172.639Z" fill="white"/>
<path d="M110.087 168.019H91.151C90.6483 168.019 90.2407 167.611 90.2407 167.108C90.2407 166.605 90.6483 166.196 91.151 166.196H110.085C110.588 166.196 110.995 166.603 110.995 167.107C110.995 167.61 110.588 168.019 110.085 168.019H110.087Z" fill="white"/>
<path d="M129.51 168.019H114.945C114.442 168.019 114.034 167.611 114.034 167.108C114.034 166.605 114.442 166.196 114.945 166.196H129.51C130.012 166.196 130.42 166.603 130.42 167.107C130.42 167.61 130.012 168.019 129.51 168.019Z" fill="white"/>
<path d="M12.4667 98.8798C10.4696 88.7684 25.5438 85.3687 27.9703 95.3864C28.1889 96.2925 28.331 97.3034 28.3747 98.4329C28.8447 110.472 21.5652 123.577 13.8173 121.371C6.06941 119.165 10.5305 110.942 12.8789 106.009C13.975 103.706 12.9819 101.487 12.4667 98.8798Z" fill="#48B8FD"/>
<path d="M231.752 76.8244C227.336 75.2824 222.499 77.6352 220.837 82.0097C219.544 85.4109 218.066 90.1573 217.931 94.3303C217.689 101.859 220.681 118.018 232.123 122.007C243.566 125.997 250.392 115.472 242.776 103.293C239.521 98.0908 241.145 80.1053 231.752 76.8228V76.8244Z" fill="#48B8FD"/>
<path d="M28.7807 160.296C27.7564 159.411 26.9148 158.992 26.907 158.987L27.1677 158.456C27.2052 158.475 28.0859 158.914 29.1664 159.848L28.7807 160.296Z" fill="black"/>
<path d="M29.7175 217.451C28.6558 216.309 27.6877 215.142 26.8429 213.983L27.3207 213.634C28.153 214.775 29.1039 215.923 30.1516 217.048L29.7191 217.451H29.7175ZM24.4586 210.152C23.7481 208.78 23.1735 207.372 22.7488 205.966L23.314 205.794C23.7294 207.166 24.2899 208.539 24.9832 209.878L24.4586 210.15V210.152ZM21.8791 201.525C21.815 200.836 21.7838 200.129 21.7838 199.426C21.7838 198.631 21.826 197.816 21.9072 197.002L22.4958 197.061C22.4162 197.855 22.3756 198.652 22.3756 199.426C22.3756 200.111 22.4068 200.8 22.4693 201.472L21.8806 201.526L21.8791 201.525ZM23.2953 192.712L22.7238 192.56C23.0892 191.177 23.5529 189.778 24.1416 188.282L24.6912 188.5C24.1104 189.973 23.6544 191.351 23.2953 192.712ZM26.4963 184.43L25.9638 184.17C26.5384 182.991 27.1927 181.724 28.0234 180.183L28.5433 180.464C27.7173 181.997 27.0662 183.256 26.4963 184.43ZM30.6888 176.537L30.1672 176.259L30.1844 176.227C30.9339 174.849 31.5101 173.495 31.8958 172.204L32.4626 172.373C32.0644 173.704 31.4726 175.096 30.7028 176.512L30.6903 176.535L30.6888 176.537ZM32.4985 167.888C32.4454 166.4 32.0941 164.991 31.4523 163.701L31.9816 163.438C32.6593 164.804 33.0325 166.294 33.0887 167.867L32.4985 167.888Z" fill="black"/>
<path d="M34.7563 222.146C34.1333 221.635 33.5243 221.115 32.9481 220.601L33.3416 220.158C33.9115 220.668 34.5143 221.182 35.131 221.688L34.7563 222.146Z" fill="black"/>
<path d="M24.8864 150.286L24.1041 159.815L18.5719 153.581L0.680786 138.921L15.9377 143.729C15.9377 143.729 23.4498 147.381 23.7934 147.863C24.1384 148.344 24.8864 150.286 24.8864 150.286Z" fill="#E6A748"/>
<path d="M32.9934 146.192L0.680786 138.921L24.8864 150.286L32.9934 146.192Z" fill="#FFCB83" stroke="#141414" stroke-width="0.5" stroke-miterlimit="10"/>
<path d="M12.4588 157.343L22.4193 152.371L0.680786 138.921L12.4588 157.343Z" fill="#FFCB83" stroke="black" stroke-width="0.5" stroke-miterlimit="10"/>
<path d="M191.708 127.309C191.708 127.309 191.202 132.299 187.268 132.645C191.202 132.99 191.708 137.98 191.708 137.98C191.708 137.98 192.214 132.99 196.149 132.645C192.214 132.299 191.708 127.309 191.708 127.309Z" fill="white"/>
<path d="M47.9364 90.4307C47.9364 90.4307 47.4305 95.4207 43.4956 95.766C47.4305 96.1113 47.9364 101.101 47.9364 101.101C47.9364 101.101 48.4423 96.1113 52.3771 95.766C48.4423 95.4207 47.9364 90.4307 47.9364 90.4307Z" fill="white"/>
<path d="M202.12 113.505C202.12 113.505 201.786 116.806 199.182 117.034C201.785 117.262 202.12 120.563 202.12 120.563C202.12 120.563 202.454 117.262 205.059 117.034C202.456 116.806 202.12 113.505 202.12 113.505Z" fill="white"/>
<path d="M56.2167 33.4495C56.2167 33.4495 55.8826 36.7507 53.2781 36.9788C55.881 37.2069 56.2167 40.5081 56.2167 40.5081C56.2167 40.5081 56.5509 37.2069 59.1554 36.9788C56.5524 36.7507 56.2167 33.4495 56.2167 33.4495Z" fill="white"/>
<path d="M186.907 128.434C186.907 128.434 186.757 129.911 185.592 130.014C186.757 130.115 186.907 131.593 186.907 131.593C186.907 131.593 187.057 130.117 188.222 130.014C187.057 129.912 186.907 128.434 186.907 128.434Z" fill="white"/>
<path d="M51.4327 109.916C51.4327 109.916 51.2828 111.392 50.1179 111.496C51.2828 111.597 51.4327 113.075 51.4327 113.075C51.4327 113.075 51.5826 111.599 52.7474 111.496C51.5826 111.394 51.4327 109.916 51.4327 109.916Z" fill="white"/>
<rect x="220" y="254" width="14" height="484" rx="7" fill="#D9D9D9" fill-opacity="0.1"/>
</g>
<defs>
<clipPath id="clip0_148_2117">
<rect width="246" height="282" fill="white"/>
</clipPath>
</defs>
</svg>
