<svg width="27" height="24" viewBox="0 0 27 24" fill="none" xmlns="http://www.w3.org/2000/svg">
<g clip-path="url(#clip0_1266_864)">
<path d="M19.3482 2.23987C19.3641 4.51948 19.4437 6.81233 18.6616 8.98458C17.7375 11.55 15.7122 13.3981 13.3033 14.5435C11.134 13.5487 9.2035 11.8972 8.19913 9.68519C7.12831 7.32681 7.1913 4.78369 7.22383 2.23987C9.407 2.19107 11.6767 1.55738 13.2673 0C14.9058 1.51834 17.1408 2.20432 19.3482 2.23987ZM15.4498 4.80669C15.274 4.83109 15.0345 4.97331 14.9168 5.10855L12.6901 8.13548C12.2734 7.74927 11.7805 6.57809 11.188 6.51744C10.509 6.44773 10.0757 7.08909 10.3636 7.71371C10.5477 8.11317 11.6919 9.6336 12.0207 10.0107C12.3716 10.4137 12.8866 10.4729 13.2881 10.0958L16.25 6.03364C16.5795 5.47524 16.0922 4.71816 15.4505 4.80669H15.4498Z" fill="#36AFFA"/>
<path d="M11.575 20.9738H6.08248C6.13785 20.3652 5.88866 19.9239 5.51419 19.4854C4.23641 17.9887 2.41249 16.637 1.18593 15.1305C-0.266285 13.3458 1.33198 9.69009 1.3922 7.56176C1.47803 6.58648 2.97109 6.59276 3.07768 7.53736L2.97316 10.7713C0.91113 12.8774 4.00522 14.434 5.1764 15.912C5.46781 16.1734 5.87759 15.8764 5.67132 15.5181L3.20712 13.0433C2.29482 11.9307 3.65151 10.4242 4.81508 11.3716C5.77999 12.1572 6.65215 13.3647 7.61152 14.1914C8.93084 14.4543 9.98227 15.4261 10.8254 16.4341C11.4435 17.1731 11.5314 17.8144 11.5757 18.7576C11.6103 19.4938 11.5515 20.2383 11.5757 20.9752L11.575 20.9738Z" fill="#36AFFA"/>
<path d="M20.4868 20.9738H14.9942C15.0192 20.2376 14.9603 19.4924 14.9942 18.7562C15.0385 17.813 15.1264 17.1717 15.7446 16.4327C16.5946 15.4163 17.6294 14.4605 18.9584 14.1901C19.9178 13.364 20.7899 12.1558 21.7548 11.3702C22.9198 10.4214 24.2689 11.93 23.3628 13.0419L20.8986 15.5167C20.6923 15.875 21.1021 16.172 21.3935 15.9106C22.5647 14.4327 25.6588 12.8753 23.5968 10.77L23.4922 7.53598C23.5573 6.88835 24.3651 6.62902 24.8655 6.98804C25.0836 7.1442 25.1189 7.31499 25.1777 7.56038C25.6228 9.40359 25.7654 11.5988 26.0298 13.4839C25.9564 14.0876 25.7689 14.6564 25.3833 15.1291C24.1277 16.6711 22.2027 18.0459 20.954 19.5914C20.6238 19.9999 20.4383 20.4356 20.4861 20.9724L20.4868 20.9738Z" fill="#36AFFA"/>
<path d="M12.612 21.5997H4.99512V23.9999H12.612V21.5997Z" fill="#36AFFA"/>
<path d="M21.5758 21.5997H13.959V23.9999H21.5758V21.5997Z" fill="#36AFFA"/>
</g>
<defs>
<clipPath id="clip0_1266_864">
<rect width="25.4518" height="24" fill="white" transform="translate(0.578125)"/>
</clipPath>
</defs>
</svg>
