<svg width="28" height="36" viewBox="0 0 28 36" fill="none" xmlns="http://www.w3.org/2000/svg">
<g clip-path="url(#clip0_101_22340)">
<path d="M14.0103 35.999C10.3761 35.999 6.74189 35.999 3.10767 35.999C0.979885 35.999 -0.289475 34.4514 0.057253 32.2776C0.377309 30.2654 0.615376 28.2339 1.04607 26.2471C2.03192 21.697 5.80049 18.1667 10.2902 17.513C11.2118 17.3787 12.1552 17.3737 13.0887 17.3655C14.3314 17.3554 15.582 17.3269 16.8177 17.4357C21.6166 17.8566 25.6914 21.5353 26.7464 26.3843C27.1929 28.4352 27.6167 30.4941 27.9496 32.5674C28.2716 34.5735 27.0072 35.9969 25.0236 35.999C21.3519 36.002 17.6811 35.999 14.0093 35.999H14.0103ZM10.301 34.0386C10.3208 33.877 10.3386 33.7417 10.3534 33.6065C10.4897 32.3345 10.625 31.0625 10.7604 29.7895C11.0162 27.396 11.276 25.0036 11.5171 22.609C11.5309 22.4728 11.4291 22.2745 11.3195 22.182C10.6171 21.5851 10.0946 20.8693 9.83478 19.9634C9.78736 19.7987 9.74588 19.6309 9.69747 19.4489C9.56214 19.4804 9.45348 19.4967 9.34976 19.5313C5.79061 20.6944 3.52552 23.1469 2.68389 26.8785C2.24233 28.8358 2.02303 30.847 1.71977 32.8358C1.60716 33.575 2.18602 34.1342 2.92196 34.0447C3.01876 34.0325 3.11853 34.0407 3.21732 34.0407C5.43499 34.0407 7.65168 34.0407 9.86935 34.0407H10.301V34.0386ZM17.6475 34.1057C18.7677 34.1057 19.8385 34.1057 20.9093 34.1057C22.2893 34.1057 23.6693 34.1129 25.0493 34.1027C25.8613 34.0966 26.3187 33.4926 26.1577 32.7016C25.8119 31.0035 25.4504 29.3076 25.1471 27.6014C24.7144 25.1673 23.6634 23.1093 21.8073 21.5099C20.7463 20.5958 19.5511 19.9492 18.2264 19.5689C18.1948 19.6116 18.174 19.6289 18.1681 19.6512C18.1474 19.7234 18.1325 19.7987 18.1138 19.8719C17.9251 20.6233 17.6357 21.3706 17.0341 21.82C16.387 22.303 16.4325 22.8571 16.5085 23.5262C16.8148 26.2328 17.0924 28.9436 17.3818 31.6523C17.4677 32.4565 17.5556 33.2608 17.6475 34.1057ZM12.086 34.0885H15.8674C15.4931 30.4311 15.1197 26.7961 14.7473 23.1632H13.2052C12.8319 26.8053 12.4604 30.4321 12.0851 34.0885H12.086ZM11.5388 19.2323C11.6405 20.4209 12.819 21.4113 14.0261 21.3808C15.2194 21.3513 16.3525 20.3487 16.4078 19.2323H11.5398H11.5388Z" fill="#054F7D"/>
<path d="M21.837 8.03762C21.8419 12.4789 18.3005 16.1332 13.9867 16.1393C9.65209 16.1444 6.12851 12.5552 6.11369 8.11998C6.09986 3.66141 9.6511 -0.00304843 13.9827 1.90296e-06C18.3163 0.00305223 21.832 3.60143 21.837 8.03762ZM7.88882 8.02847C7.8819 11.4997 10.5866 14.302 13.9541 14.3122C17.3413 14.3233 20.0421 11.5892 20.0608 8.12913C20.0796 4.64464 17.3621 1.82918 13.9768 1.82715C10.5905 1.82512 7.89573 4.5694 7.88783 8.02745L7.88882 8.02847Z" fill="#054F7D"/>
</g>
<defs>
<clipPath id="clip0_101_22340">
<rect width="28" height="36" fill="white"/>
</clipPath>
</defs>
</svg>
