<svg width="34" height="34" viewBox="0 0 34 34" fill="none" xmlns="http://www.w3.org/2000/svg">
<rect width="34" height="34" rx="6" fill="#EEF6FF"/>
<g clip-path="url(#clip0_88_2424)">
<path d="M24.9961 14.8746C24.9961 14.9304 24.9961 14.9725 24.9961 15.0146C24.9961 18.0859 24.9976 21.1573 24.9952 24.2287C24.9947 25.0512 24.4944 25.7314 23.7395 25.9354C23.5807 25.9785 23.4109 25.9971 23.2463 25.9971C19.081 26.0005 14.9156 26.001 10.7502 25.999C9.74489 25.999 9.00233 25.2474 9.00138 24.2287C8.99899 21.1568 9.00043 18.0855 9.00043 15.0141C9.00043 14.972 9.00043 14.9299 9.00043 14.8746H24.9961ZM12.997 17.2067C12.8129 17.2067 12.6283 17.2037 12.4442 17.2071C12.1032 17.2135 11.8619 17.4596 11.8581 17.8095C11.8538 18.1877 11.8543 18.566 11.8581 18.9442C11.8614 19.2965 12.0999 19.5455 12.4404 19.5499C12.8148 19.5548 13.1896 19.5553 13.564 19.5499C13.8964 19.5451 14.1358 19.2994 14.1406 18.9579C14.1459 18.5738 14.1459 18.1892 14.1406 17.8046C14.1358 17.4552 13.8936 17.213 13.5502 17.2071C13.3661 17.2042 13.1815 17.2067 12.9974 17.2067H12.997ZM18.1405 18.3957C18.1405 18.2004 18.1434 18.0052 18.14 17.81C18.1333 17.4582 17.8958 17.2116 17.5544 17.2076C17.1857 17.2032 16.8171 17.2037 16.4484 17.2076C16.105 17.2111 15.8613 17.4557 15.857 17.8041C15.8523 18.1882 15.8523 18.5728 15.857 18.9574C15.8613 19.2975 16.1022 19.5455 16.4331 19.5504C16.8075 19.5558 17.1824 19.5558 17.5567 19.5504C17.8987 19.546 18.1333 19.2989 18.1395 18.9452C18.1429 18.7622 18.14 18.5792 18.14 18.3962L18.1405 18.3957ZM19.855 18.3531C19.855 18.5542 19.8517 18.7558 19.856 18.9569C19.8631 19.2965 20.1016 19.5446 20.433 19.5495C20.8074 19.5548 21.1823 19.5544 21.5566 19.5495C21.8905 19.5451 22.1332 19.3014 22.138 18.9623C22.1442 18.5718 22.1442 18.1814 22.138 17.7909C22.1327 17.4601 21.8919 17.213 21.5709 17.2076C21.1904 17.2013 20.8098 17.2018 20.4292 17.2076C20.1006 17.2125 19.8622 17.4635 19.8555 17.8036C19.8517 17.9866 19.855 18.1696 19.855 18.3526V18.3531ZM12.9965 21.31C12.8124 21.31 12.6278 21.3071 12.4437 21.3105C12.1032 21.3168 11.8619 21.563 11.8581 21.9128C11.8538 22.291 11.8543 22.6693 11.8581 23.0475C11.8614 23.3993 12.0999 23.6484 12.4404 23.6528C12.8148 23.6577 13.1896 23.6582 13.564 23.6528C13.8964 23.6479 14.1358 23.4018 14.1406 23.0602C14.1459 22.6761 14.1459 22.2915 14.1406 21.9069C14.1358 21.5576 13.8936 21.3159 13.5497 21.31C13.3656 21.3071 13.1811 21.3095 12.997 21.3095L12.9965 21.31ZM16.9983 21.3105C16.808 21.3105 16.6177 21.3066 16.4274 21.3115C16.1065 21.3198 15.8627 21.5644 15.8575 21.8923C15.8513 22.2886 15.8503 22.6854 15.858 23.0818C15.8642 23.4003 16.1065 23.6469 16.4184 23.6528C16.8047 23.6601 17.1914 23.6601 17.5777 23.6528C17.8906 23.6469 18.1314 23.4018 18.1381 23.0823C18.1462 22.6859 18.1453 22.2891 18.1386 21.8928C18.1329 21.563 17.8911 21.3203 17.5687 21.3119C17.3784 21.3071 17.1881 21.311 16.9978 21.311L16.9983 21.3105Z" fill="#36AFFA"/>
<path d="M22.1375 9.61556C22.6444 9.61556 23.1247 9.56907 23.5935 9.62583C24.3589 9.7188 24.9613 10.4117 24.9866 11.2034C25.0123 12.0146 24.9928 12.8274 24.9928 13.6391C24.9928 13.6499 24.9842 13.6602 24.9761 13.6797H9.00039C9.00039 13.6225 9.00039 13.5643 9.00039 13.506C9.00039 12.7975 8.99896 12.0895 9.00039 11.381C9.00278 10.3436 9.73293 9.59207 10.7435 9.5862C11.106 9.58424 11.4684 9.5862 11.8566 9.5862C11.8566 9.66546 11.8552 9.73593 11.8566 9.8059C11.8662 10.2262 11.8376 10.6524 11.8948 11.0664C12.0169 11.951 12.821 12.5759 13.698 12.5127C14.5579 12.4511 15.2566 11.7117 15.2804 10.8266C15.2914 10.4195 15.2823 10.0119 15.2823 9.59549H18.7118C18.7118 9.66546 18.7104 9.73593 18.7118 9.8059C18.7213 10.2262 18.6927 10.6524 18.75 11.0664C18.872 11.951 19.6756 12.5759 20.5532 12.5127C21.413 12.4511 22.1117 11.7117 22.1356 10.8266C22.1465 10.4195 22.1375 10.0119 22.1375 9.61604V9.61556Z" fill="#36AFFA"/>
<path d="M14.1416 10.1758C14.1416 10.371 14.1464 10.5668 14.1406 10.7615C14.1316 11.0918 13.8821 11.3433 13.5712 11.3438C13.2607 11.3438 13.0061 11.0913 13.0013 10.763C12.9951 10.3661 12.9941 9.96932 13.0018 9.57298C13.008 9.24465 13.266 8.99609 13.5784 9C13.8817 9.00391 14.1292 9.2515 14.1397 9.57151C14.1464 9.77262 14.1411 9.97421 14.1411 10.1758H14.1416Z" fill="#36AFFA"/>
<path d="M20.9969 10.1734C20.9969 10.3686 21.0012 10.5643 20.9959 10.7591C20.9873 11.0898 20.7393 11.3418 20.4284 11.3433C20.1179 11.3448 19.8618 11.0923 19.8566 10.7644C19.8499 10.3676 19.8499 9.97079 19.8566 9.57445C19.8623 9.24564 20.1189 8.99658 20.4317 9C20.735 9.00294 20.984 9.25004 20.995 9.56956C21.0021 9.77066 20.9964 9.97226 20.9964 10.1739L20.9969 10.1734Z" fill="#36AFFA"/>
</g>
<defs>
<clipPath id="clip0_88_2424">
<rect width="16" height="17" fill="white" transform="translate(9 9)"/>
</clipPath>
</defs>
</svg>
