<svg width="25" height="23" viewBox="0 0 25 23" fill="none" xmlns="http://www.w3.org/2000/svg">
<g clip-path="url(#clip0_1266_860)">
<path d="M12.4811 4.3689L22.4974 14.0868L22.5251 22.4791C22.5186 22.6764 22.3562 22.814 22.2026 22.9162L16.9185 22.9318C16.6965 22.8644 16.6287 22.5791 16.6105 22.3805C16.4365 20.4674 16.7642 18.3259 16.5894 16.388C16.3812 15.5939 15.7253 15.1001 14.8924 15.0362C13.3271 14.9156 11.5958 15.1249 10.0131 15.044C9.23628 15.1121 8.4682 15.7422 8.38812 16.5164C8.19664 18.3628 8.55775 20.5192 8.38957 22.3798C8.359 22.7175 8.2709 22.924 7.90179 22.9567C6.3336 23.095 4.55428 22.8474 2.9628 22.9552C2.76041 22.9488 2.61917 22.7906 2.51433 22.6409L2.50195 14.0868L12.4811 4.3689Z" fill="#929495"/>
<path d="M18.9782 6.01852V2.88709C18.9782 2.77852 19.1806 2.4961 19.3 2.44927C19.4616 2.38612 20.6876 2.38115 20.9031 2.41379C21.08 2.44076 21.2089 2.58693 21.3042 2.72459L21.3537 8.33817L24.9364 11.911C25.0216 12.0791 25.023 12.2835 24.9349 12.451C24.8854 12.5453 24.1064 13.2897 24.0009 13.3436C23.6805 13.5076 23.5029 13.4082 23.2444 13.2088L12.8627 3.08507C12.6486 2.9176 12.3487 2.91973 12.139 3.08507L1.70116 13.2542C1.42523 13.4472 1.24031 13.4962 0.936722 13.306C0.838437 13.2443 0.148988 12.573 0.0885609 12.4794C-0.0191883 12.3112 -0.0213724 12.1238 0.048519 11.9436C3.9486 7.96209 8.04089 4.13171 12.0109 0.204832C12.281 -0.0584264 12.6807 -0.0704895 12.9646 0.179996L18.9782 6.01852Z" fill="#929495"/>
</g>
<defs>
<clipPath id="clip0_1266_860">
<rect width="25" height="23" fill="white"/>
</clipPath>
</defs>
</svg>
