<svg width="18" height="18" viewBox="0 0 18 18" fill="none" xmlns="http://www.w3.org/2000/svg">
<g clip-path="url(#clip0_430_23406)">
<path d="M8.97892 17.9976C7.4955 17.9976 6.01207 18.0051 4.52865 17.9964C2.30663 17.9839 0.513594 16.5072 0.0821213 14.3357C0.0274101 14.0622 0.00751506 13.7776 0.00627163 13.4979C0.00129788 10.5047 -0.00491931 7.51034 0.00627163 4.51717C0.0149757 2.30338 1.50959 0.512202 3.68312 0.0870931C3.943 0.0361297 4.21406 0.0174846 4.47892 0.0162416C6.27195 0.0100266 8.06499 0.0112696 9.85678 0.0137556C10.3678 0.0137556 10.7222 0.322022 10.7906 0.804309C10.8565 1.27665 10.4972 1.74278 10.0234 1.79499C9.92642 1.80617 9.82694 1.80369 9.72871 1.80369C8.00655 1.80369 6.28314 1.8012 4.56098 1.80493C3.27776 1.80742 2.22332 2.59175 1.90003 3.79499C1.83164 4.0498 1.79931 4.32078 1.79931 4.58554C1.79185 7.53023 1.79309 10.4737 1.79558 13.4184C1.79682 15.0231 2.97436 16.2015 4.57839 16.2039C7.5241 16.2064 10.4698 16.2064 13.4155 16.2039C15.0195 16.2027 16.1971 15.0256 16.2008 13.4208C16.2045 11.6707 16.2008 9.92177 16.202 8.17162C16.202 7.64085 16.4992 7.28411 16.9891 7.21326C17.4616 7.14489 17.9292 7.50039 17.9851 7.97398C17.9938 8.04359 17.9938 8.11444 17.9938 8.18405C17.9938 9.94788 18.0025 11.7117 17.9926 13.4755C17.9802 15.6085 16.5999 17.3748 14.5532 17.8658C14.1752 17.9566 13.7749 17.9864 13.3844 17.9901C11.9147 18.0038 10.4462 17.9964 8.97643 17.9964L8.97892 17.9976Z" fill="#36AFFA"/>
<path d="M6.34184 12.5977C5.71266 12.5952 5.28865 12.0682 5.42791 11.4877C5.67038 10.4709 5.92529 9.45786 6.19262 8.4473C6.23739 8.27949 6.34184 8.10796 6.46494 7.98366C7.77552 6.65985 9.09356 5.34475 10.4129 4.03089C10.8145 3.63064 11.3405 3.62691 11.7433 4.02467C12.4931 4.76551 13.2379 5.51131 13.9803 6.2596C14.3807 6.66358 14.3819 7.18937 13.9828 7.58962C12.6684 8.90845 11.3529 10.226 10.0274 11.5349C9.89434 11.6667 9.70534 11.7723 9.52504 11.8196C8.53526 12.0819 7.53927 12.323 6.54576 12.5691C6.46494 12.589 6.37914 12.5927 6.34308 12.5977H6.34184Z" fill="#36AFFA"/>
<path d="M17.9975 2.39646C17.9913 3.1808 17.7774 3.74761 17.3422 4.2212C17.0861 4.49963 16.8162 4.76812 16.5414 5.02791C16.1746 5.37471 15.6499 5.37346 15.2893 5.01796C14.5196 4.25973 13.7549 3.49404 12.9952 2.72461C12.6308 2.35544 12.6321 1.82965 12.9877 1.45799C13.2451 1.1895 13.5012 0.91728 13.7822 0.673651C14.588 -0.0274058 15.5069 -0.193969 16.4855 0.229897C17.4765 0.658735 17.9515 1.46669 17.9987 2.39646H17.9975Z" fill="#36AFFA"/>
</g>
<defs>
<clipPath id="clip0_430_23406">
<rect width="18" height="18" fill="white"/>
</clipPath>
</defs>
</svg>
