<svg width="18" height="18" viewBox="0 0 18 18" fill="none" xmlns="http://www.w3.org/2000/svg">
<g clip-path="url(#clip0_1_20890)">
<path d="M8.97892 17.9975C7.4955 17.9975 6.01207 18.005 4.52865 17.9963C2.30663 17.9839 0.513594 16.5072 0.0821213 14.3356C0.0274101 14.0622 0.00751506 13.7775 0.00627163 13.4978C0.00129788 10.5047 -0.00491931 7.51028 0.00627163 4.51711C0.0149757 2.30332 1.50959 0.512141 3.68312 0.087032C3.943 0.0360687 4.21406 0.0174236 4.47892 0.0161806C6.27195 0.00996552 8.06499 0.0112085 9.85678 0.0136945C10.3678 0.0136945 10.7222 0.321961 10.7906 0.804248C10.8565 1.27659 10.4972 1.74272 10.0234 1.79493C9.92642 1.80611 9.82694 1.80363 9.72871 1.80363C8.00655 1.80363 6.28314 1.80114 4.56098 1.80487C3.27776 1.80736 2.22332 2.59169 1.90003 3.79493C1.83164 4.04974 1.79931 4.32072 1.79931 4.58548C1.79185 7.53016 1.79309 10.4736 1.79558 13.4183C1.79682 15.023 2.97436 16.2014 4.57839 16.2039C7.5241 16.2064 10.4698 16.2064 13.4155 16.2039C15.0195 16.2026 16.1971 15.0255 16.2008 13.4208C16.2045 11.6706 16.2008 9.92171 16.202 8.17156C16.202 7.64079 16.4992 7.28405 16.9891 7.2132C17.4616 7.14483 17.9292 7.50033 17.9851 7.97392C17.9938 8.04353 17.9938 8.11438 17.9938 8.18399C17.9938 9.94781 18.0025 11.7116 17.9926 13.4755C17.9802 15.6085 16.5999 17.3748 14.5532 17.8658C14.1752 17.9565 13.7749 17.9863 13.3844 17.9901C11.9147 18.0038 10.4462 17.9963 8.97643 17.9963L8.97892 17.9975Z" fill="white"/>
<path d="M6.34281 12.5979C5.71363 12.5955 5.28962 12.0684 5.42889 11.4879C5.67136 10.4712 5.92626 9.45811 6.1936 8.44754C6.23837 8.27974 6.34281 8.1082 6.46591 7.9839C7.7765 6.6601 9.09454 5.34499 10.4138 4.03113C10.8155 3.63088 11.3414 3.62716 11.7443 4.02492C12.4941 4.76575 13.2389 5.51156 13.9812 6.25985C14.3816 6.66382 14.3829 7.18962 13.9837 7.58987C12.6694 8.9087 11.3539 10.2263 10.0284 11.5352C9.89531 11.6669 9.70631 11.7726 9.52601 11.8198C8.53624 12.0821 7.54024 12.3232 6.54674 12.5694C6.46591 12.5892 6.38012 12.593 6.34406 12.5979H6.34281Z" fill="white"/>
<path d="M17.9968 2.39646C17.9906 3.1808 17.7767 3.74761 17.3415 4.2212C17.0853 4.49963 16.8155 4.76812 16.5407 5.02791C16.1739 5.37471 15.6492 5.37346 15.2886 5.01796C14.5189 4.25973 13.7542 3.49404 12.9944 2.72461C12.6301 2.35544 12.6313 1.82965 12.987 1.45799C13.2444 1.1895 13.5005 0.91728 13.7815 0.673651C14.5873 -0.0274058 15.5062 -0.193969 16.4847 0.229897C17.4758 0.658735 17.9508 1.46669 17.998 2.39646H17.9968Z" fill="white"/>
</g>
<defs>
<clipPath id="clip0_1_20890">
<rect width="18" height="18" fill="white"/>
</clipPath>
</defs>
</svg>
