<svg width="25" height="29" viewBox="0 0 25 29" fill="none" xmlns="http://www.w3.org/2000/svg">
<g clip-path="url(#clip0_1057_3111)">
<path d="M12.5822 0.5625C13.2545 0.67048 13.6299 0.94691 14.1191 1.37091C15.4161 2.49391 16.8075 4.03227 18.0296 5.27765C19.5644 6.8412 21.0545 7.62442 20.7267 10.1274C20.571 11.3159 19.0002 10.943 19.0002 10.2347V9.21101C17.3876 8.9461 14.6228 9.64942 13.2545 8.75462C12.7695 8.43788 12.0958 7.53876 12.0958 6.94846V2.28659H2.41509C2.20036 2.28659 1.74064 2.74443 1.74064 2.96039V25.7536C1.74064 25.966 2.21549 26.4274 2.41509 26.4274H9.69634C10.3153 26.4274 10.6871 27.6433 9.9579 28.0356C9.61275 28.2213 2.85175 28.2257 2.13551 28.1069C1.15699 27.9442 0.346362 27.1602 0.0948865 26.2122L0.015625 2.90712C0.157575 1.69486 1.04602 0.809415 2.2263 0.5625H12.5822ZM13.8223 3.55284V6.78577C13.8223 6.99814 14.2971 7.45957 14.4967 7.45957H17.7327L13.8223 3.55284Z" fill="white"/>
<path d="M15.8069 12.6484C22.5492 12.1726 26.6967 19.8666 22.4959 25.2044C19.0451 29.5898 12.1508 28.96 9.55176 24.0382C6.94982 19.1107 10.255 13.04 15.8069 12.6484ZM15.915 14.3732C11.8093 14.6648 9.26353 19.0121 10.8632 22.7828C12.6329 26.9537 18.3519 27.7146 21.147 24.1275C24.4075 19.9436 21.1773 13.9996 15.9143 14.374L15.915 14.3732Z" fill="white"/>
<path d="M15.5491 19.0718C15.0354 19.354 14.5014 20.3546 13.9027 20.3934C13.3039 20.4323 12.8593 19.9126 12.9839 19.3108C13.0524 18.9825 14.6059 17.5204 14.9554 17.1857C15.423 16.7379 15.9094 15.9554 16.6307 16.1052C16.9384 16.1692 19.7752 18.9998 19.8393 19.3108C19.964 19.9126 19.5461 20.4338 18.9206 20.3934C18.2952 20.3531 17.7886 19.354 17.2742 19.0718V24.0295C17.2742 24.8862 15.5484 24.8862 15.5484 24.0295V19.0718H15.5491Z" fill="white"/>
</g>
<defs>
<clipPath id="clip0_1057_3111">
<rect width="24.1719" height="27.625" fill="white" transform="translate(0.015625 0.5625)"/>
</clipPath>
</defs>
</svg>
