<svg width="17" height="18" viewBox="0 0 17 18" fill="none" xmlns="http://www.w3.org/2000/svg">
<g clip-path="url(#clip0_1_20884)">
<path d="M6.7642 18C6.45715 17.8606 6.3682 17.6206 6.36915 17.2927C6.37861 14.7928 6.37435 12.2923 6.37435 9.79188V9.57349H10.6239V9.76511C10.6239 11.5921 10.6206 13.419 10.6272 15.2455C10.6281 15.5273 10.5231 15.7185 10.288 15.8716C9.28354 16.5281 8.28527 17.1936 7.28463 17.8549C7.20751 17.9061 7.12613 17.9512 7.04712 17.9996H6.76373L6.7642 18Z" fill="white"/>
<path d="M0.330078 3.16968H16.663C16.6303 3.21148 16.6105 3.24388 16.5844 3.26971C14.8817 4.98349 13.179 6.69773 11.4724 8.40774C11.418 8.46222 11.3225 8.50355 11.2458 8.50355C9.41674 8.50872 7.58768 8.50872 5.75861 8.50402C5.68622 8.50402 5.59397 8.47114 5.54382 8.42136C3.82499 6.69914 2.10994 4.97315 0.394422 3.2467C0.378336 3.23073 0.365089 3.21195 0.330078 3.16968Z" fill="white"/>
<path d="M0.00185384 2.09885C0.00185384 1.55828 -0.00382355 1.03132 0.00469254 0.50484C0.00895058 0.225865 0.236046 0.0159289 0.51897 0.00136963C0.571958 -0.0014483 0.624947 0.000430321 0.67841 0.000430321C5.89451 0.000430321 11.1106 0.000430321 16.3267 0.000430321C16.8145 0.000430321 17 0.184065 17 0.66734C17 1.14075 17 1.61416 17 2.09885H0.00185384Z" fill="white"/>
</g>
<defs>
<clipPath id="clip0_1_20884">
<rect width="17" height="18" fill="white"/>
</clipPath>
</defs>
</svg>
