<svg width="20" height="22" viewBox="0 0 20 22" fill="none" xmlns="http://www.w3.org/2000/svg">
<g clip-path="url(#clip0_1266_871)">
<path d="M17.1909 10.507C16.6107 10.0259 15.99 9.67529 15.2316 9.55579C11.4916 8.96682 9.47291 13.8605 12.534 16.054L12.5634 16.149C10.7755 16.8213 9.42272 18.5637 9.17115 20.4599L3.97377 20.4617C2.1191 20.306 0.672081 18.8107 0.560066 16.9524L0.557617 3.55523C0.639027 1.69947 2.08421 0.174054 3.92786 0.00245146L13.7797 0C15.7507 0.162409 17.1971 1.81653 17.1934 3.78444L17.1909 10.507ZM4.46957 4.89495C4.53385 4.9593 4.66239 5.00404 4.74135 5.0592L12.8627 5.09536C13.768 4.88085 13.6279 3.69619 12.7238 3.62693H5.0272C4.37347 3.62938 4.00132 4.42672 4.46957 4.89556V4.89495ZM4.47019 8.79399C4.52222 8.84977 4.63484 8.89879 4.69544 8.95885L12.8621 8.99379C13.8207 8.75906 13.5936 7.53885 12.6326 7.52659C10.1976 7.67307 7.52704 7.32802 5.11963 7.52659C4.8301 7.55049 4.56751 7.61055 4.3998 7.8606C4.20025 8.15784 4.22657 8.5323 4.4708 8.79461L4.47019 8.79399ZM4.47019 12.693C4.57241 12.8009 4.74074 12.8763 4.88948 12.8922C6.0739 13.0203 7.48113 12.7991 8.68942 12.8892C9.54392 12.6121 9.4013 11.5323 8.50395 11.4293C7.70455 11.3374 5.88721 11.3509 5.07311 11.425C4.39245 11.4869 3.96398 12.1598 4.46957 12.693H4.47019Z" fill="#929495"/>
<path d="M14.4341 16.8059C16.5324 16.6833 18.5125 18.1364 19.012 20.1773C19.1613 20.7877 19.3737 21.7468 18.6141 22.0006L10.6984 21.9871C10.3832 21.8578 10.1781 21.566 10.1787 21.2192C10.1812 18.8927 12.1521 16.9389 14.4341 16.8059Z" fill="#929495"/>
<path d="M14.5722 10.6111C17.6755 10.5014 18.1542 15.0409 15.1861 15.6323C11.612 16.3444 11.0097 10.7367 14.5722 10.6111Z" fill="#929495"/>
</g>
<defs>
<clipPath id="clip0_1266_871">
<rect width="18.5994" height="22" fill="white" transform="translate(0.557617)"/>
</clipPath>
</defs>
</svg>
