<svg width="17" height="17" viewBox="0 0 17 17" fill="none" xmlns="http://www.w3.org/2000/svg">
<g clip-path="url(#clip0_310_2009)">
<path d="M16.9999 4.00476C16.7347 4.31048 16.4353 4.31539 16.0752 4.16498C13.8763 3.24737 11.6712 2.34537 9.47052 1.43177C9.21861 1.32734 8.99286 1.32555 8.73829 1.43133C6.50746 2.35832 4.27308 3.27638 2.03959 4.19623C1.67236 4.34753 1.34151 4.24175 1.18894 3.92844C1.02618 3.5937 1.18052 3.22996 1.5535 3.07598C2.44273 2.70912 3.3324 2.34359 4.22163 1.97717C5.80628 1.32555 7.39048 0.671704 8.9769 0.02366C9.0483 -0.0057966 9.15164 -0.00892078 9.2226 0.0200895C11.6982 1.03456 14.1726 2.05304 16.6438 3.07822C16.7755 3.13267 16.8819 3.24915 17.0004 3.33708V4.0052L16.9999 4.00476Z" fill="#36AFFA"/>
<path d="M17 14.7957C16.8523 15.1304 16.5853 15.221 16.2434 15.1925C15.8163 15.1568 15.4007 15.0791 15.0047 14.91C14.2104 14.5703 13.4205 14.5815 12.6209 14.9086C11.6562 15.3032 10.6761 15.3085 9.71323 14.9126C9.10252 14.6614 8.49004 14.5913 7.84873 14.7256C7.83365 14.7287 7.8168 14.7243 7.81104 14.7238C7.92856 14.357 8.04565 13.9901 8.16939 13.6036C8.75127 13.5496 9.34822 13.5991 9.91103 13.8464C10.7506 14.215 11.5697 14.1967 12.4168 13.8477C13.3447 13.4657 14.2973 13.4831 15.2313 13.8513C15.6376 14.0115 16.0456 14.1276 16.4847 14.1258C16.7539 14.1244 16.8962 14.3048 16.9991 14.5284V14.7957H17Z" fill="#36AFFA"/>
<path d="M17 12.6578C16.8527 12.9921 16.5857 13.0832 16.2438 13.0546C15.8167 13.0189 15.4016 12.9417 15.006 12.7725C14.2121 12.4329 13.4227 12.4436 12.623 12.7699C11.6473 13.168 10.6605 13.1653 9.68568 12.7645C9.24706 12.5842 8.80045 12.4931 8.32856 12.5226C8.26957 12.5262 8.2097 12.523 8.16357 12.523V11.4336C8.52459 11.4572 8.86742 11.4514 9.19872 11.5099C9.49986 11.563 9.79479 11.6701 10.0826 11.7804C10.802 12.0558 11.5222 12.0732 12.2318 11.7768C13.2994 11.3309 14.3522 11.3412 15.4207 11.779C15.7063 11.896 16.0278 11.9585 16.3365 11.9745C16.6563 11.991 16.8767 12.0923 16.9995 12.3909V12.6583L17 12.6578Z" fill="#36AFFA"/>
<path d="M16.9998 10.5196C16.8521 10.8539 16.5855 10.9449 16.2436 10.9163C15.8165 10.8806 15.4014 10.803 15.0053 10.6338C14.211 10.2942 13.4211 10.3049 12.6219 10.6325C11.675 11.0203 10.7118 11.031 9.76132 10.6548C9.27879 10.4638 8.79492 10.346 8.27646 10.3866C8.24985 10.3888 8.2228 10.3834 8.18555 10.3812V9.3306C8.445 9.3306 8.71332 9.29311 8.967 9.33952C9.34443 9.40826 9.72052 9.51046 10.0806 9.64391C10.8031 9.91169 11.5211 9.9358 12.2312 9.63944C13.2992 9.19358 14.352 9.20295 15.4209 9.64078C15.7065 9.75772 16.028 9.8202 16.3372 9.83627C16.6569 9.85278 16.8778 9.95409 17.0002 10.2527V10.52L16.9998 10.5196Z" fill="#36AFFA"/>
<path d="M15.1709 8.20145C14.9891 8.19342 14.825 8.18583 14.6609 8.17914C14.0147 8.15147 13.3996 8.27956 12.8039 8.53083C11.9573 8.88788 11.1013 8.88833 10.2573 8.52815C9.526 8.21618 8.77026 8.12156 7.98615 8.20279C7.94312 8.20726 7.89611 8.21127 7.8562 8.19833C6.81662 7.86092 5.77749 7.52083 4.73791 7.18252C4.48068 7.09862 4.2199 7.02498 3.96444 6.93616C3.66773 6.83262 3.37369 6.73443 3.05082 6.92277C3.04372 6.84779 3.0353 6.80138 3.0353 6.75496C3.03441 6.2542 3.03884 5.75299 3.0313 5.25223C3.02953 5.13663 3.07122 5.08799 3.1719 5.04648C5.10425 4.25383 7.03571 3.4585 8.96585 2.66005C9.06697 2.6181 9.14724 2.62122 9.24614 2.66228C11.1661 3.45627 13.0869 4.24803 15.0099 5.03532C15.1297 5.08442 15.1758 5.13931 15.1745 5.27544C15.1674 6.19395 15.1709 7.11201 15.1709 8.03052C15.1709 8.08497 15.1709 8.13942 15.1709 8.20145Z" fill="#36AFFA"/>
<path d="M6.9107 9.16587C6.9107 9.22835 6.9107 9.28905 6.9107 9.34975C6.9107 10.7583 6.90493 12.1669 6.91247 13.5754C6.91868 14.7787 6.36652 15.6543 5.37928 16.2832C4.83155 16.6322 4.23104 16.8536 3.59993 16.9884C3.48196 17.0134 3.34669 16.9937 3.22606 16.9652C2.34171 16.7541 1.52521 16.4028 0.867053 15.749C0.286504 15.1728 0.00620907 14.4649 0.00399155 13.6482C0 12.2061 0.00487856 10.7646 0 9.32252C0 9.19443 0.0363674 9.14444 0.158775 9.10651C1.2192 8.77579 2.27651 8.43615 3.3356 8.10275C3.40523 8.08088 3.49172 8.07017 3.55869 8.09115C4.64971 8.43347 5.73896 8.78204 6.82865 9.12971C6.85437 9.13775 6.87788 9.15114 6.9107 9.16587ZM3.20743 12.5422C3.06107 12.3905 2.93113 12.2539 2.79896 12.12C2.66281 11.9816 2.52798 11.8415 2.38606 11.7094C2.12572 11.467 1.7585 11.472 1.52167 11.7152C1.2875 11.9553 1.29237 12.3302 1.54162 12.5837C1.95009 12.9988 2.36122 13.4107 2.77546 13.82C3.0389 14.0798 3.38395 14.0793 3.64739 13.8164C4.4284 13.0367 5.20631 12.2548 5.98289 11.4706C6.23701 11.214 6.245 10.8489 6.01216 10.6034C5.77621 10.3548 5.39657 10.3486 5.13668 10.6008C4.84618 10.8824 4.56456 11.1734 4.27938 11.4608C3.92813 11.8147 3.57776 12.1691 3.20787 12.5427L3.20743 12.5422Z" fill="#36AFFA"/>
</g>
<defs>
<clipPath id="clip0_310_2009">
<rect width="17" height="17" fill="white"/>
</clipPath>
</defs>
</svg>
