<svg width="18" height="19" viewBox="0 0 18 19" fill="none" xmlns="http://www.w3.org/2000/svg">
<g clip-path="url(#clip0_430_23403)">
<path d="M7.50316 14.3142C7.50316 14.2317 7.50316 14.1491 7.50316 14.0666C7.50316 11.2475 7.50316 8.42531 7.50316 5.60627C7.50316 4.84754 7.9063 4.24436 8.54411 4.03166C9.50383 3.7142 10.4846 4.44754 10.4936 5.51103C10.5057 6.98722 10.5027 8.46341 10.4936 9.9396C10.4936 10.1459 10.5478 10.2317 10.7373 10.2856C11.9768 10.6507 13.2133 11.0221 14.4498 11.3999C15.4457 11.7015 15.912 12.5364 15.6833 13.6063C15.3163 15.3237 14.9402 17.0348 14.5762 18.7523C14.5401 18.9269 14.4859 19.0031 14.2934 19.0031C12.1393 18.9936 9.9882 18.9999 7.8341 18.9904C7.72579 18.9904 7.5874 18.9364 7.51219 18.8571C6.16437 17.4475 4.82557 16.0317 3.48678 14.6158C3.0355 14.1396 2.89109 13.5713 3.09567 12.9364C3.29424 12.3206 3.73348 11.965 4.34421 11.8856C4.82257 11.8221 5.23774 11.9936 5.58071 12.3523C6.15233 12.9523 6.72094 13.5523 7.28956 14.1555C7.34672 14.2158 7.39485 14.2825 7.446 14.3491C7.46706 14.3396 7.48812 14.3269 7.50617 14.3174L7.50316 14.3142Z" fill="#36AFFA"/>
<path d="M12.798 8.17813C12.4219 8.594 12.0609 8.98765 11.7029 9.38448C11.6788 9.3686 11.6548 9.35273 11.6307 9.33686C11.6307 9.25432 11.6307 9.17495 11.6307 9.09241C11.6307 7.91781 11.6367 6.74321 11.6307 5.5686C11.6187 4.03845 10.4875 2.80352 9.08849 2.77495C7.58724 2.74638 6.38984 3.96543 6.37781 5.55273C6.36878 6.72733 6.37781 7.90194 6.37781 9.07654C6.37781 9.16226 6.37781 9.2448 6.37781 9.394C6.20031 9.23845 6.04687 9.12416 5.92352 8.98448C5.71293 8.74956 5.5264 8.49241 5.31881 8.25114C5.26165 8.18765 5.17139 8.11781 5.09618 8.11781C3.99807 8.10829 2.89996 8.11146 1.80184 8.11464C1.78079 8.11464 1.75973 8.12099 1.70557 8.13051C1.70557 8.49241 1.69956 8.86067 1.71159 9.22575C1.71159 9.27654 1.78981 9.32734 1.83795 9.37178C2.24711 9.73686 2.37046 10.3019 2.15083 10.7972C1.93723 11.2765 1.44985 11.5464 0.95645 11.4607C0.441992 11.3718 0.056901 10.9464 0.0147816 10.394C-0.0183121 9.9813 0.126097 9.6321 0.435975 9.37813C0.541273 9.29241 0.574367 9.20353 0.574367 9.07019C0.56835 8.3686 0.574367 7.66702 0.574367 6.93686H4.67198C4.60579 6.40353 4.54261 5.89559 4.47642 5.34638H3.63704C3.55581 5.34638 3.47458 5.34638 3.39636 5.34638C3.09852 5.33686 2.85182 5.35908 2.60813 5.63845C2.18994 6.11464 1.45586 6.02892 1.0437 5.53686C0.628521 5.03845 0.679665 4.29559 1.15802 3.85749C1.62434 3.4321 2.34037 3.48289 2.72847 3.99083C2.84279 4.14003 2.95411 4.17495 3.11657 4.17178C3.59192 4.16226 4.06726 4.17178 4.54562 4.16543C4.61181 4.16543 4.7171 4.12099 4.73516 4.07019C4.93071 3.46384 5.23156 2.92416 5.64674 2.40353C5.46021 2.2194 5.28271 2.03527 5.09317 1.86384C5.04503 1.8194 4.9608 1.79718 4.89461 1.79718C4.01612 1.794 3.13763 1.79083 2.25914 1.79718C2.18092 1.79718 2.08164 1.85432 2.02748 1.92099C1.67248 2.35908 1.15802 2.50194 0.682674 2.27654C0.228387 2.06067 -0.0483974 1.55908 0.00575606 1.07019C0.0719436 0.508287 0.451018 0.0860648 0.989543 0.0130489C1.3987 -0.0440939 1.74167 0.111462 1.9974 0.451144C2.07863 0.562255 2.16287 0.597176 2.28923 0.597176C3.29106 0.590827 4.29591 0.590827 5.29775 0.60035C5.40606 0.60035 5.53542 0.663843 5.61665 0.740033C5.90547 1.02257 6.17624 1.32416 6.444 1.6067C8.42962 0.384478 10.2889 0.527335 12.1181 2.08289C12.2234 1.95273 12.3317 1.79718 12.458 1.66067C12.792 1.30194 13.135 0.955906 13.4719 0.603525C13.9473 0.603525 14.4226 0.597176 14.898 0.597176C15.1747 0.597176 15.4545 0.609874 15.7313 0.590827C15.8246 0.584477 15.9389 0.527335 15.9961 0.451144C16.4293 -0.0885384 17.1543 -0.15203 17.6357 0.317811C18.1141 0.784478 18.1201 1.5813 17.6477 2.05114C17.1724 2.52416 16.4293 2.47654 16.0111 1.93368C15.9269 1.82575 15.8486 1.7813 15.7193 1.78448C15.1838 1.79083 14.6513 1.77813 14.1157 1.794C14.0074 1.794 13.8751 1.85432 13.7938 1.93368C13.4509 2.27019 13.1259 2.62575 12.813 2.95273C12.9755 3.34638 13.1229 3.71464 13.2824 4.07654C13.3034 4.12099 13.3847 4.15908 13.4358 4.15908C13.9713 4.16543 14.5038 4.1686 15.0394 4.15908C15.1085 4.15908 15.1928 4.08606 15.2409 4.02575C15.5689 3.60987 16.0592 3.46384 16.5256 3.65114C16.9768 3.8321 17.2807 4.31781 17.2506 4.80987C17.2175 5.34638 16.8806 5.78448 16.3872 5.90511C15.9419 6.01305 15.5568 5.87972 15.268 5.50511C15.1717 5.37813 15.0785 5.34321 14.9371 5.34321C14.4617 5.34956 13.9894 5.34321 13.5622 5.34321C13.4689 5.89876 13.3786 6.4194 13.2944 6.94003C13.2884 6.98448 13.3064 7.03845 13.3245 7.08289C13.3395 7.11464 13.3786 7.13686 13.3997 7.16543C13.7126 7.62575 14.1218 7.8194 14.6603 7.72733C14.8739 7.69241 15.0995 7.71146 15.3191 7.72416C15.6441 7.74003 15.9058 7.70829 16.1675 7.41622C16.5887 6.94956 17.3288 7.04797 17.729 7.54638C18.1291 8.04162 18.0719 8.7813 17.6026 9.20988C17.1363 9.63527 16.4233 9.58765 16.0322 9.07972C15.9178 8.93368 15.8095 8.89559 15.6441 8.89559C14.9702 8.90194 14.2962 8.90511 13.6223 8.89559C13.5261 8.89559 13.4117 8.84162 13.3395 8.77178C13.141 8.57813 12.9605 8.36543 12.789 8.17813H12.798Z" fill="#36AFFA"/>
</g>
<defs>
<clipPath id="clip0_430_23403">
<rect width="18" height="19" fill="white"/>
</clipPath>
</defs>
</svg>
