<svg width="26" height="22" viewBox="0 0 26 22" fill="none" xmlns="http://www.w3.org/2000/svg">
<g clip-path="url(#clip0_1283_876)">
<path d="M0.578343 12.5605H12.8763C13.9267 14.1629 15.387 15.4476 16.9769 16.4639C18.7155 17.5751 19.1887 17.556 20.9173 16.4449C22.5317 15.407 23.7905 14.2687 24.9084 12.6824C24.9503 12.6233 24.9425 12.5352 25.0506 12.5605V20.6703C24.8481 21.4478 24.3492 21.9396 23.5468 21.9993L1.98781 21.9969C1.24274 21.9008 0.761173 21.401 0.577148 20.6703V12.5605H0.578343ZM4.24629 15.7185C3.43252 15.9339 3.42953 17.0407 4.24629 17.2679C5.27336 17.1854 6.58304 17.4199 7.57666 17.2753C8.42449 17.1515 8.43464 15.86 7.61729 15.7185C6.6404 15.5498 5.265 15.8102 4.24629 15.7185Z" fill="#929495"/>
<path d="M25.0502 2.97638V7.1544L24.8931 8.44283C24.4157 11.5208 22.551 13.5867 20.0457 15.1559C19.7607 15.3344 19.2242 15.721 18.9081 15.7111C18.6225 15.7025 18.0519 15.3036 17.7896 15.1374C14.6959 13.1749 12.9781 10.7778 12.812 6.93587C12.766 5.87643 12.7074 4.11831 12.8138 3.0995C12.8473 2.77816 12.9924 2.53439 13.2822 2.40142L18.7378 0L19.232 0.0381667C20.884 0.932005 22.974 1.48481 24.5824 2.40081C24.8608 2.55963 24.9367 2.6729 25.0502 2.97638ZM18.2622 8.08825C17.8763 7.67088 17.6331 7.04667 17.2788 6.61822C16.6072 5.80626 15.5347 6.55297 15.9954 7.49544C16.2063 7.92697 17.2632 9.57429 17.5686 9.90794C17.9253 10.297 18.4134 10.3087 18.7653 9.90794L21.8776 5.88321C22.3185 5.09525 21.3757 4.32145 20.6982 4.91611L18.261 8.08764L18.2622 8.08825Z" fill="#929495"/>
<path d="M0.578125 6.0235C0.725106 5.55627 0.906741 5.15983 1.34111 4.91606C1.43671 4.8625 1.81193 4.69629 1.89259 4.69629H11.285C11.2772 6.27528 11.2384 7.87643 11.6196 9.41418H0.578125V6.0235Z" fill="#929495"/>
</g>
<defs>
<clipPath id="clip0_1283_876">
<rect width="24.4729" height="22" fill="white" transform="translate(0.578125)"/>
</clipPath>
</defs>
</svg>
