<svg width="24" height="23" viewBox="0 0 24 23" fill="none" xmlns="http://www.w3.org/2000/svg">
<g clip-path="url(#clip0_1260_845)">
<path d="M14.2428 0C15.5276 0.246066 16.3956 1.24053 16.4854 2.5813L16.4778 7.27156L13.6107 8.26063C13.4376 7.96655 13.2099 7.72528 12.8595 7.68207L4.07579 7.68507C3.30166 7.89453 3.06044 8.92741 3.74653 9.40934C3.79231 9.44114 4.0441 9.56958 4.07344 9.56958H10.4215C9.87564 10.1187 9.47067 10.8335 9.45424 11.6359C9.31221 11.5513 9.15843 11.5135 8.99469 11.4997C7.45346 11.3653 5.72501 11.5999 4.16441 11.5051C3.03696 11.7272 3.08978 13.299 4.25421 13.4274C5.76433 13.3464 7.41355 13.5541 8.90724 13.4346C9.10327 13.419 9.2723 13.362 9.45483 13.2984C9.47185 15.1025 9.28814 16.9108 9.99243 18.611L10.729 20.1264H2.79867C2.68833 20.1264 2.21704 19.9644 2.08792 19.9098C1.2416 19.5503 0.709858 18.7358 0.536133 17.835V2.29142C0.750355 1.08209 1.59609 0.22266 2.77696 0H14.2434H14.2428ZM4.21665 3.83143C3.10328 3.97427 3.04987 5.49748 4.12685 5.73995C5.37991 5.64152 6.93581 5.91039 8.15423 5.74715C9.23473 5.60191 9.29929 3.92326 7.98403 3.81763C6.77734 3.721 5.43684 3.88245 4.21665 3.83203V3.83143Z" fill="#929495"/>
<path d="M16.9558 9.13027C17.2129 9.08826 17.3766 9.13688 17.6161 9.19749C19.2101 9.6002 20.8899 10.4488 22.4892 10.908C22.8067 11.0562 23.021 11.3827 23.0321 11.7458C22.9358 14.1944 23.4265 16.5435 22.2186 18.7791C21.3717 20.3467 19.2952 22.23 17.6566 22.8746C17.1577 23.0708 17.0292 23.0258 16.5567 22.8152C14.4174 21.8621 12.1338 19.6169 11.524 17.2697C11.1941 15.9997 11.1947 13.188 11.2992 11.8358C11.3338 11.3833 11.4887 11.0736 11.9037 10.8815L16.9564 9.13027H16.9558ZM16.8783 16.2626C16.8144 16.2806 16.8056 16.2452 16.7686 16.2188C16.3789 15.9433 15.7937 15.0317 15.3735 14.905C14.4661 14.632 13.7748 15.6072 14.3124 16.3946C14.5254 16.7067 16.0461 18.2545 16.356 18.4826C16.7844 18.7977 17.2399 18.7419 17.6255 18.3962L20.5706 14.3547C21.0478 13.407 19.9637 12.5068 19.1426 13.164L16.8783 16.2626Z" fill="#929495"/>
</g>
<defs>
<clipPath id="clip0_1260_845">
<rect width="22.5151" height="23" fill="white" transform="translate(0.536133)"/>
</clipPath>
</defs>
</svg>
