<svg width="13" height="17" viewBox="0 0 13 17" fill="none" xmlns="http://www.w3.org/2000/svg">
<g clip-path="url(#clip0_334_5078)">
<path d="M0.000164403 7.37438C0.000164403 5.16157 0.000164403 2.94825 0.000164403 0.735447C0.000164403 0.218483 0.214217 0.000547373 0.720743 0.000547373C3.81612 0.000547373 6.9115 -0.000973108 10.0069 0.0010542C11.4653 0.00206785 12.6539 0.99697 12.943 2.45917C12.9829 2.6619 12.9982 2.87324 12.9982 3.08054C13.0012 7.4874 13.0007 11.8943 13.0002 16.3016C13.0002 16.7659 12.7713 16.999 12.3171 16.999C9.21528 16.999 6.11398 17.0005 3.01219 16.999C1.29681 16.998 0.00213724 15.664 0.000657612 13.8998C-0.000822015 11.725 0.000657612 9.54968 0.000657612 7.37488L0.000164403 7.37438ZM6.50904 4.25029C5.53052 4.25029 4.55199 4.24877 3.57346 4.25131C3.21441 4.25232 2.95301 4.51536 2.95547 4.86203C2.95794 5.19907 3.21786 5.46313 3.56508 5.46313C5.52213 5.46567 7.47918 5.46617 9.43624 5.45958C9.55214 5.45958 9.68087 5.41549 9.78148 5.35416C10.0039 5.21783 10.0937 4.9411 10.0217 4.69377C9.94326 4.42363 9.72822 4.25232 9.44462 4.25131C8.46609 4.24827 7.48757 4.25029 6.50904 4.25029ZM6.50066 9.10722C7.47277 9.10722 8.44538 9.10823 9.41749 9.10671C9.69517 9.10671 9.91021 8.96328 10.0029 8.72659C10.1647 8.31353 9.86779 7.89438 9.40714 7.89387C7.88115 7.89235 6.35467 7.89337 4.82868 7.89337C4.40403 7.89337 3.97937 7.89083 3.55472 7.89438C3.29233 7.89691 3.08321 8.04643 2.99493 8.28261C2.84154 8.69314 3.13204 9.10519 3.58382 9.1062C4.55594 9.10925 5.52854 9.10722 6.50066 9.10722ZM6.50954 11.5359C5.52509 11.5359 4.54015 11.5334 3.55571 11.5375C3.21046 11.539 2.9535 11.8076 2.95597 12.1472C2.95794 12.4771 3.21342 12.7478 3.54634 12.7483C5.51572 12.7518 7.4851 12.7533 9.45399 12.7422C9.59258 12.7412 9.75485 12.6606 9.86385 12.5663C10.0542 12.4016 10.0932 12.169 10.0044 11.9262C9.91514 11.6819 9.70109 11.5375 9.42637 11.5369C8.45426 11.5354 7.48165 11.5364 6.50954 11.5364V11.5359Z" fill="#36AFFA"/>
</g>
<defs>
<clipPath id="clip0_334_5078">
<rect width="13" height="17" fill="white"/>
</clipPath>
</defs>
</svg>
