<svg width="18" height="18" viewBox="0 0 18 18" fill="none" xmlns="http://www.w3.org/2000/svg">
<g clip-path="url(#clip0_425_23392)">
<path d="M17.9996 7.17338V11.3919C17.97 11.5938 17.9555 11.799 17.908 11.9966C17.5804 13.3563 16.3214 14.1907 14.8612 14.0136V11.2158C14.9232 11.2158 14.9749 11.2158 15.0271 11.2158C15.4505 11.2135 15.6925 11.0215 15.6925 10.6881C15.6925 10.3548 15.4481 10.1613 15.0266 10.1613C10.9933 10.1613 6.96042 10.1613 2.9271 10.1613C2.87447 10.1613 2.82136 10.1595 2.76872 10.1623C2.47969 10.1778 2.26021 10.4041 2.25927 10.6862C2.25833 10.9684 2.4764 11.1985 2.76496 11.214C2.86977 11.2196 2.97504 11.2149 3.09065 11.2149V14.0268C2.90689 14.0268 2.73206 14.0301 2.55723 14.0263C1.23332 13.9967 0.10679 12.9206 0.0165551 11.6004C0.0151451 11.583 0.0127953 11.5652 0.0127953 11.5478C0.0127953 10.0369 -0.0219828 8.52463 0.0231347 7.01469C0.0649624 5.62025 1.23567 4.53991 2.62961 4.5385C6.87394 4.53381 11.1183 4.53428 15.3621 4.5385C16.5686 4.53944 17.61 5.36437 17.8986 6.53485C17.9498 6.74331 17.9672 6.96023 17.9996 7.17338ZM3.6283 7.84102C3.89807 7.84102 4.16783 7.8429 4.43713 7.84055C4.76423 7.83727 4.99734 7.61613 4.99734 7.31377C4.99734 7.0114 4.76376 6.78886 4.43713 6.78745C3.8976 6.7851 3.35854 6.7851 2.81901 6.78745C2.49238 6.78886 2.2588 7.01187 2.2588 7.31377C2.2588 7.61566 2.49285 7.83727 2.81901 7.84055C3.08877 7.84337 3.35854 7.84102 3.62783 7.84102H3.6283Z" fill="#36AFFA"/>
<path d="M5.01839 18.0001C4.89197 17.9428 4.75709 17.8992 4.64053 17.8255C4.36231 17.6499 4.20252 17.3926 4.16727 17.063C4.15928 16.9874 4.15646 16.9109 4.15646 16.8353C4.15599 15.0258 4.15646 13.2163 4.15646 11.4073C4.15646 11.35 4.15646 11.2923 4.15646 11.2256H13.7966V11.4425C13.7966 13.1877 13.7966 14.9324 13.7966 16.6775C13.7966 17.4639 13.6405 17.7029 12.9346 18.0006H5.01839V18.0001ZM8.9939 12.4111C8.53662 12.4111 8.07933 12.4097 7.62205 12.4111C7.28132 12.4125 7.04398 12.6299 7.04398 12.9374C7.04398 13.2449 7.28132 13.4642 7.62158 13.4647C8.5244 13.4661 9.42722 13.4661 10.33 13.4647C10.6712 13.4642 10.9081 13.2459 10.9081 12.9379C10.9081 12.6299 10.6712 12.412 10.3305 12.4111C9.88497 12.4097 9.43944 12.4111 8.9939 12.4111ZM8.98967 15.7155C9.42957 15.7155 9.86899 15.716 10.3089 15.7155C10.6675 15.7146 10.9058 15.5061 10.9086 15.1925C10.9114 14.8788 10.6717 14.6619 10.3173 14.6614C9.42628 14.6605 8.53521 14.6605 7.64413 14.6614C7.28601 14.6614 7.0468 14.8713 7.04445 15.184C7.04163 15.5028 7.28414 15.715 7.65354 15.7155C8.09907 15.716 8.5446 15.7155 8.99014 15.7155H8.98967Z" fill="#36AFFA"/>
<path d="M14.8422 3.47777H3.10887C3.10887 3.14301 3.0896 2.81107 3.11263 2.48195C3.18218 1.48377 3.67895 0.754627 4.55686 0.285119C4.9131 0.094029 5.30083 0.0034139 5.70547 0.00294439C7.88615 0.00153587 10.0664 -0.00362872 12.247 0.00435292C13.6208 0.00951751 14.7567 1.09267 14.8389 2.46504C14.8587 2.79652 14.8418 3.13034 14.8418 3.4773L14.8422 3.47777Z" fill="#36AFFA"/>
</g>
<defs>
<clipPath id="clip0_425_23392">
<rect width="18" height="18" fill="white"/>
</clipPath>
</defs>
</svg>
