 <svg width="288" height="251" viewBox="0 0 288 251" fill="none" xmlns="http://www.w3.org/2000/svg">
<path d="M273.905 248.451C275.856 248.373 278.356 248.126 280.258 248.507C280.799 248.617 280.991 248.767 281.274 249.207C281.281 249.679 281.228 249.901 281.017 250.329C279.062 250.313 276.9 250.495 274.981 250.248C274.324 250.163 273.998 250.038 273.585 249.545C273.565 249.001 273.638 248.913 273.908 248.454L273.905 248.451Z" fill="#0A2587"/>
<path d="M267.8 228.248C268.186 228.286 268.678 228.32 268.936 228.623C269.596 229.398 269.24 231.101 269.207 232.067C270.115 232.057 271.234 231.961 272.129 232.12C272.782 232.236 273.37 232.411 273.766 232.929L273.558 233.257C272.175 234.017 270.603 233.826 269.068 233.795C269.101 235.036 269.349 236.682 268.847 237.839C268.5 237.789 268.107 237.736 267.863 237.479C267.057 236.636 267.387 234.726 267.417 233.67C266.519 233.695 265.532 233.776 264.64 233.676C264.053 233.611 263.247 233.426 262.887 232.957L263.062 232.645C264.393 231.914 266.063 232.114 267.549 232.142C267.559 230.833 267.513 229.536 267.794 228.248H267.8Z" fill="#0A2587"/>
<path d="M236.507 7.54129C237.058 7.50379 237.686 7.41941 238.23 7.55066C239.079 7.75066 239.891 8.36003 240.33 9.06627C240.383 9.15064 240.436 9.24127 240.479 9.33189C240.525 9.42251 240.561 9.51626 240.598 9.61001C240.631 9.70376 240.66 9.80064 240.683 9.89751C240.707 9.99438 240.726 10.0944 240.74 10.1944C240.753 10.2944 240.759 10.3944 240.763 10.4944C240.763 10.5944 240.763 10.6944 240.753 10.7944C240.743 10.8944 240.73 10.9944 240.71 11.0912C240.69 11.1881 240.664 11.285 240.634 11.3819C240.31 12.3725 239.607 12.9131 238.683 13.3943C238.201 13.4412 237.712 13.4975 237.227 13.435C236.352 13.3225 235.516 12.8787 234.995 12.2006C234.486 11.5381 234.318 10.7194 234.486 9.92251C234.734 8.7444 235.49 8.16315 236.507 7.54129Z" fill="#89D4F1"/>
<path d="M10.2584 232.689C10.8989 232.704 11.5526 232.761 12.1469 233.014C13.0483 233.398 13.7516 234.167 14.052 235.054C14.3558 235.945 14.2666 236.904 13.7714 237.717C13.1903 238.676 12.3417 239.054 11.2654 239.357C11.1201 239.364 10.9715 239.373 10.8263 239.373C9.84235 239.379 8.81883 239.151 8.12217 238.448C7.16138 237.479 7.18449 236.304 7.2043 235.07C8.01322 233.839 8.7594 233.089 10.2584 232.686V232.689Z" fill="#A6CBF3"/>
<path d="M206.597 0.847607C207.65 0.853857 208.647 1.04761 209.535 1.6101C210.605 2.28822 211.305 3.3757 211.549 4.56319C211.82 5.88505 211.549 7.26004 210.707 8.35377C209.816 9.51313 208.601 10.0475 207.142 10.2725C206.055 10.21 205.091 9.9975 204.177 9.41314C204.031 9.32251 203.893 9.22564 203.757 9.11939C203.622 9.01626 203.493 8.90377 203.374 8.78814C203.256 8.67252 203.137 8.54752 203.028 8.4194C202.919 8.29127 202.816 8.1569 202.724 8.0194C202.628 7.8819 202.542 7.73815 202.463 7.59441C202.384 7.44753 202.311 7.29753 202.249 7.14441C202.186 6.99129 202.13 6.83504 202.083 6.67567C202.037 6.51629 202.001 6.35692 201.971 6.19442C201.945 6.04442 201.925 5.89443 201.915 5.74443C201.905 5.59443 201.902 5.44443 201.908 5.29131C201.915 5.14131 201.928 4.99131 201.948 4.84131C201.971 4.69131 202.001 4.54444 202.037 4.39757C202.074 4.25069 202.12 4.10695 202.173 3.9632C202.225 3.81945 202.288 3.68195 202.354 3.54445C202.424 3.40695 202.496 3.2757 202.579 3.14758C202.661 3.01946 202.75 2.89446 202.846 2.77259C203.797 1.56947 205.075 1.06635 206.594 0.844482L206.597 0.847607Z" fill="#0A2587"/>
<path d="M205.762 2.54443C206.339 2.47255 206.986 2.41318 207.561 2.53818C208.406 2.72568 209.192 3.27567 209.648 3.97566C209.704 4.06316 209.757 4.15066 209.803 4.24441C209.849 4.33503 209.892 4.42878 209.928 4.52566C209.965 4.62253 209.998 4.7194 210.024 4.81628C210.05 4.91628 210.074 5.01628 210.087 5.11627C210.103 5.21627 210.113 5.3194 210.12 5.4194C210.123 5.52252 210.123 5.62252 210.12 5.72564C210.113 5.82877 210.103 5.92876 210.087 6.02876C210.07 6.12876 210.047 6.22876 210.021 6.32876C209.707 7.41937 208.882 8.03812 207.885 8.56936C207.264 8.71936 206.676 8.79436 206.045 8.62873C205.94 8.60061 205.834 8.56936 205.735 8.53186C205.633 8.49436 205.534 8.45061 205.435 8.40374C205.336 8.35686 205.243 8.30374 205.151 8.24749C205.058 8.19124 204.969 8.13187 204.883 8.06624C204.797 8.00062 204.715 7.93187 204.636 7.85999C204.556 7.78812 204.48 7.71312 204.411 7.63187C204.342 7.55375 204.272 7.46937 204.213 7.385C204.15 7.30062 204.094 7.21 204.041 7.11938C203.573 6.31001 203.47 5.3069 203.79 4.43191C204.147 3.46317 204.827 2.9788 205.768 2.53818L205.762 2.54443Z" fill="#FEFEFE"/>
<path d="M237.19 104.968C242.271 103.081 247.614 100.7 252.193 97.8745C254.21 96.6308 256.049 95.0621 258.096 93.8871C266.529 99.5245 277.953 105.999 287.993 108.54C288.023 113.787 287.927 119.006 287.234 124.221C285.454 137.627 279.957 151.258 269.765 160.952C267.562 163.046 260.348 169.036 257.413 169.155C257.083 169.167 256.73 168.958 256.449 168.811C252.487 166.986 249.063 164.189 245.953 161.271C234.46 150.486 229.497 133.765 228.272 118.877C228.002 115.593 228.035 112.293 228.018 109.003L228.19 108.515C229.302 107.543 235.338 105.646 237.19 104.968Z" fill="#0A2587"/>
<path d="M280.568 107.599C282.522 108.393 284.477 109.065 286.531 109.599C286.531 113.924 286.494 118.212 285.986 122.518C284.381 136.165 278.891 150.374 268.457 160.211C265.129 163.352 261.652 165.627 257.598 167.83C256.713 167.368 255.785 166.927 254.937 166.408C255.937 165.058 256.921 163.696 257.888 162.327C258.714 161.661 259.52 160.974 260.299 160.261C266.539 154.518 271.944 147.496 275.193 139.812C276.517 136.677 277.451 133.412 278.323 130.146C278.699 128.781 279.036 127.406 279.326 126.021C279.617 124.637 279.865 123.246 280.069 121.846C280.274 120.446 280.432 119.043 280.548 117.637C280.664 116.231 280.736 114.818 280.763 113.409C280.749 111.553 280.934 109.421 280.564 107.603L280.568 107.599Z" fill="#CBCCDD"/>
<path d="M258.06 95.5715C265.535 100.418 272.416 103.931 280.571 107.603C280.941 109.424 280.759 111.553 280.769 113.409C271.947 111.009 265.146 106.606 257.618 101.787C250.503 106.371 242.727 110.749 234.496 113.281C234.579 117.028 235.259 120.768 235.975 124.446C238.897 139.452 245.085 150.777 256.74 161.43C257.106 161.765 257.456 162.08 257.895 162.327C256.928 163.699 255.944 165.058 254.943 166.408C252.081 164.805 249.476 162.749 247.135 160.524C233.321 147.387 229.372 127.009 229.408 109.19C237.081 106.606 244.827 103.734 251.79 99.6871C253.96 98.4278 256.003 96.9809 258.064 95.5715H258.06Z" fill="#DFEAF5"/>
<path d="M234.493 113.281C242.724 110.753 250.499 106.371 257.614 101.787C265.146 106.606 271.944 111.006 280.766 113.409C280.739 114.821 280.667 116.231 280.551 117.637C280.436 119.043 280.274 120.446 280.073 121.846C279.868 123.246 279.62 124.637 279.33 126.021C279.039 127.406 278.702 128.781 278.326 130.146C277.454 133.412 276.52 136.677 275.196 139.812C271.947 147.496 266.542 154.518 260.302 160.261C259.523 160.974 258.717 161.665 257.892 162.327C257.453 162.077 257.103 161.765 256.736 161.43C245.081 150.777 238.894 139.452 235.972 124.446C235.255 120.768 234.575 117.028 234.493 113.281Z" fill="#FEFEFE"/>
<path d="M269.511 120.437C270.825 120.937 273.403 123.852 274.486 124.984C267.929 131.718 260.362 137.627 253.748 144.318C251.662 142.558 249.757 140.49 247.792 138.605C245.97 136.887 244.134 135.165 242.45 133.321C243.886 131.762 245.53 130.33 247.079 128.871C249.397 130.68 251.282 132.987 253.547 134.877C259.12 130.646 264.178 125.059 269.511 120.44V120.437Z" fill="#E85D56"/>
<path d="M43.6616 29.9129C43.721 25.6567 42.988 20.8317 44.5728 16.7849C44.6851 16.4974 44.8073 16.2099 44.936 15.9286C45.0648 15.6474 45.2002 15.3661 45.3421 15.0912C45.4841 14.8162 45.636 14.5412 45.7912 14.2724C45.9496 14.0037 46.1114 13.738 46.2831 13.4755C46.4548 13.213 46.6298 12.9568 46.8147 12.7006C46.9996 12.4474 47.1878 12.1974 47.3859 11.9537C47.584 11.7099 47.7854 11.4693 47.9934 11.2318C48.2014 10.9974 48.416 10.7662 48.6372 10.5412C48.8584 10.3162 49.0862 10.0943 49.3174 9.87871C49.5485 9.66309 49.7862 9.45371 50.0305 9.25059C50.2749 9.04747 50.5225 8.84747 50.7734 8.65372C51.0276 8.45998 51.2852 8.2756 51.5493 8.09435C51.8134 7.91311 52.0809 7.73811 52.3516 7.56936C52.6224 7.40061 52.8997 7.23811 53.1803 7.08187C53.461 6.92562 53.7449 6.77562 54.0322 6.635C54.3194 6.49125 54.61 6.35687 54.9071 6.22563C55.2142 6.08813 55.5245 5.96 55.8382 5.83813C56.1519 5.71626 56.4688 5.60063 56.7891 5.49438C57.1094 5.38814 57.4329 5.28814 57.7565 5.19751C58.08 5.10689 58.4102 5.02251 58.7404 4.94439C59.0706 4.86627 59.4007 4.79752 59.7342 4.73814C60.0677 4.67564 60.4011 4.62252 60.7379 4.57877C61.0747 4.5319 61.4115 4.4944 61.7482 4.46627C62.085 4.43815 62.4251 4.41627 62.7652 4.40065C63.1052 4.38815 63.4453 4.3819 63.7821 4.3819C64.1221 4.3819 64.4622 4.3944 64.799 4.41315C65.1391 4.4319 65.4758 4.4569 65.8126 4.49127C66.1494 4.52565 66.4862 4.56627 66.8229 4.61627C67.1597 4.66627 67.4932 4.72252 67.8233 4.78814C68.1568 4.85377 68.487 4.92564 68.8139 5.00689C69.144 5.08814 69.4676 5.17564 69.7912 5.27251C70.1147 5.36939 70.435 5.47251 70.7552 5.58501C76.5233 7.64748 80.2839 11.6724 82.7437 16.888C84.2559 21.363 84.0016 25.4067 83.9818 30.016C86.227 30.0004 91.0045 29.3941 92.7379 30.9566C94.4449 32.4972 94.0553 35.5847 94.0388 37.644C95.5477 37.8034 97.1424 38.0503 98.1164 39.2815C98.7404 40.069 98.8394 41.619 98.9121 42.5908C99.1366 45.5658 98.9946 48.6376 99.0012 51.6282V68.5062L98.9913 77.5967C98.9913 79.3654 99.1861 81.3716 98.8295 83.0998C98.5291 84.5529 97.7004 85.4529 96.6009 86.431H79.6632C76.5728 86.4435 73.2051 86.1841 70.1741 86.7278L69.9199 86.7716C69.8704 86.781 69.8176 86.7903 69.768 86.7997C69.3388 86.506 69.2002 86.4935 68.6719 86.4435C66.1923 86.2028 63.5113 86.3903 61.0054 86.3966C55.5741 86.4091 50.1329 86.4591 44.7016 86.406C42.9418 86.3872 40.9806 86.2997 39.6995 84.9935C38.4416 83.7091 38.3689 82.006 38.3921 80.3592C37.319 80.2217 36.4011 79.9342 35.6318 79.1748C35.1498 78.6998 34.9484 78.2248 34.8659 77.5779C34.4829 74.5499 34.7668 71.1811 34.7668 68.1218L34.7899 49.1626C34.8427 44.6096 34.846 40.0565 34.8031 35.5065C34.7932 33.9097 34.5555 31.9597 35.8894 30.7597C37.4379 29.3629 41.5815 29.9066 43.6616 29.9191V29.9129Z" fill="#0A2587"/>
<path d="M71.967 7.73816C76.4871 9.89438 79.7821 13.0881 81.3802 17.7037C82.7206 21.5724 82.3641 25.9598 82.3509 29.991C80.5547 29.9785 78.7421 30.0129 76.9493 29.9285C76.9394 25.1661 77.5733 21.2036 75.0178 16.8818C75.031 14.7787 72.0067 10.5319 71.967 7.73816Z" fill="#89D4F1"/>
<path d="M45.2397 29.8473C45.243 25.2755 44.6619 20.1068 46.6694 15.8443C48.5645 11.8225 52.6388 8.50689 56.964 6.97253C61.9529 5.20068 67.1894 5.70067 71.9669 7.74127C72.0032 10.535 75.0276 14.7787 75.0177 16.8849C74.4498 16.1068 73.8654 15.3631 73.1588 14.6912C70.633 12.2975 67.295 11.1319 63.7457 11.1256C59.9851 11.1194 56.9574 12.5693 54.3425 15.0787C49.8753 19.3661 50.6149 24.2848 50.6578 29.8379L45.2397 29.8504V29.8473Z" fill="#A6CBF3"/>
<path d="M62.8973 12.5787C63.1251 12.5599 63.3496 12.5443 63.5807 12.5443C66.8395 12.5537 69.9233 13.6412 72.2311 15.8599C76.2625 19.7349 75.4239 24.9067 75.3809 29.8816H65.0632L52.2856 29.9035C52.2361 25.5098 51.5757 20.8192 54.5341 17.088C56.6471 14.4224 59.447 13.0193 62.8973 12.5787Z" fill="#FEFEFE"/>
<path d="M75.3876 31.3035L84.6785 31.2848C86.3228 31.2785 88.0628 31.1598 89.6938 31.3535C90.3806 31.4347 91.1796 31.5785 91.6748 32.0785C92.0842 32.4941 92.1965 32.9504 92.2394 33.5035C92.4243 35.7784 92.2889 38.1628 92.2955 40.4471L92.3253 54.0689L92.3154 68.6593C92.3055 71.1687 92.4441 73.8061 92.213 76.2999C92.1503 76.9842 92.0677 77.9467 91.622 78.5092C89.7466 79.4248 81.6773 78.8936 79.168 78.9061C80.7099 78.6561 83.1796 76.9811 84.0842 75.8061C86.0983 73.1905 84.6125 69.5093 84.0908 66.6156C84.279 66.5781 84.5366 66.5437 84.7182 66.4625C85.1375 66.2719 85.296 66.075 85.4842 65.6875C85.4412 65.2531 85.4049 65.2187 85.1144 64.8781C84.6356 64.625 84.2097 64.6969 83.6847 64.7344C83.6352 63.0531 83.2753 61.3375 83.1003 59.6594C83.7442 59.6907 84.5498 59.8032 85.1375 59.5219C85.4941 59.3501 85.6525 59.1532 85.778 58.8094C85.6889 58.6188 85.6063 58.4719 85.428 58.3407C84.5828 57.7157 83.6286 57.9313 82.6447 58.0219C82.3607 53.8407 81.3471 49.4752 79.7161 45.5783L79.3925 45.3596C78.7751 44.9596 78.3063 44.5846 77.8341 44.0346C77.7087 43.8409 77.5964 43.644 77.4941 43.4377C76.8733 42.1909 76.7215 41.3878 77.2101 40.0815C76.1073 37.3253 75.7871 34.2066 75.3843 31.3035H75.3876Z" fill="#F9AA47"/>
<path d="M77.2134 40.0815C78.1016 38.969 79.4222 37.9003 80.9311 37.694C81.915 37.5597 82.8758 37.8503 83.6451 38.4315C84.6191 39.169 85.2728 40.3128 85.3521 41.494C85.4214 42.5502 85.078 43.6877 84.3153 44.4752C83.5031 45.3127 82.2947 45.6377 81.1226 45.6439C80.6571 45.6439 80.1783 45.6439 79.7161 45.5783L79.3925 45.3596C78.7751 44.9596 78.3063 44.5846 77.8341 44.0346C77.7087 43.8408 77.5964 43.644 77.494 43.4377C76.8733 42.1909 76.7214 41.3877 77.2101 40.0815H77.2134Z" fill="#0A2587"/>
<path d="M77.834 44.0346C78.491 43.9658 79.0985 43.8002 79.7325 43.6315L79.8843 43.8002L79.3924 45.3596C78.775 44.9596 78.3061 44.5846 77.834 44.0346Z" fill="#0A2587"/>
<path d="M79.7359 43.6283L79.8085 43.4158C79.967 42.9408 80.1387 42.594 79.9472 42.1002C79.7127 41.844 79.475 41.5909 79.2373 41.3377C79.4156 41.0815 79.4519 41.0721 79.6995 40.9096C80.1123 40.6377 80.3037 40.294 80.5349 39.8846L80.7957 39.8127C81.0466 40.219 81.1127 40.5065 81.5815 40.6877L82.8097 40.394L82.9649 40.4909C82.9781 41.2346 82.4532 41.2752 82.1989 41.8471C82.0371 42.2096 82.7932 42.9565 82.681 43.4877L82.4961 43.6127C81.9084 43.4158 81.4825 43.0346 81.0103 42.6627C80.6438 43.0377 80.2839 43.4565 79.891 43.8033L79.7392 43.6346L79.7359 43.6283Z" fill="#FEFEFE"/>
<path d="M94.0422 37.644C95.5511 37.8034 97.1458 38.0503 98.1198 39.2815C98.7438 40.069 98.8429 41.619 98.9155 42.5909C99.14 45.5658 98.998 48.6377 99.0046 51.6283V68.5062L98.9947 77.5967C98.9947 79.3654 99.1895 81.3717 98.833 83.0998C98.5325 84.5529 97.7038 85.4529 96.6043 86.431H79.6666C76.5763 86.4435 73.2085 86.1841 70.1776 86.7279L69.9233 86.7716C69.8738 86.781 69.821 86.7904 69.7715 86.7997C69.3422 86.506 69.2036 86.4935 68.6753 86.4435C66.1957 86.2029 63.5148 86.3904 61.0088 86.3966C55.5775 86.4091 50.1363 86.4591 44.705 86.406C42.9452 86.3872 40.984 86.2997 39.703 84.9935C38.445 83.7091 38.3724 82.006 38.3955 80.3592C42.6514 80.2123 46.9667 80.3561 51.2259 80.3623L77.5833 80.3967L85.7219 80.4342C87.3464 80.4436 89.0533 80.5436 90.6646 80.3623C91.556 80.2623 92.1371 80.0311 92.7843 79.4279C93.6658 78.6092 93.8177 77.6217 93.9465 76.5061C94.1247 74.9936 94.0389 73.4124 94.0455 71.8874L94.0554 64.0406L94.0389 37.6472L94.0422 37.644Z" fill="#A6CBF3"/>
<path d="M79.1679 78.9061L50.4498 78.9186C47.7853 78.9217 39.6334 79.2842 37.4444 78.7217C37.0317 78.6155 36.8831 78.4592 36.7114 78.0936C36.4044 77.4405 36.3185 76.5842 36.2921 75.8717C36.1931 72.9311 36.2822 69.9593 36.2822 67.0156C36.2723 61.0875 36.2921 55.1564 36.3482 49.2283L36.4044 39.4378C36.4077 37.6565 36.3284 35.8284 36.4605 34.0535C36.5199 33.2629 36.6619 32.541 36.9557 31.7972C37.4477 31.3785 38.5141 31.3754 39.1679 31.3379C43.4931 31.0879 47.9702 31.3097 52.3119 31.3129L75.3874 31.3004C75.7869 34.2035 76.1072 37.3222 77.2133 40.0784C76.7213 41.3846 76.8765 42.1877 77.4972 43.4346C77.5996 43.6409 77.7085 43.8377 77.8373 44.0315C78.3094 44.5783 78.7783 44.9565 79.3957 45.3565L79.7193 45.5752C81.3536 49.4752 82.3639 53.8407 82.6479 58.0188C83.6318 57.9251 84.5893 57.7126 85.4312 58.3376C85.6095 58.4688 85.692 58.6157 85.7812 58.8063C85.6557 59.1532 85.4972 59.3469 85.1406 59.5188C84.5529 59.8032 83.744 59.6875 83.1035 59.6563C83.2785 61.3344 83.6384 63.05 83.6879 64.7312C84.2129 64.6937 84.6355 64.6219 85.1175 64.875C85.4081 65.2156 85.4444 65.25 85.4873 65.6844C85.2991 66.075 85.1406 66.2718 84.7213 66.4593C84.543 66.5406 84.2855 66.575 84.094 66.6125C84.6157 69.5062 86.1014 73.1874 84.0874 75.803C83.1827 76.978 80.7131 78.6498 79.1712 78.903L79.1679 78.9061Z" fill="#FCD171"/>
<path d="M56.8484 64.9156C58.4662 64.8843 63.0325 64.4624 64.3829 65.1343C64.6305 65.2562 64.614 65.3812 64.7064 65.6093C64.5975 66.0749 64.4126 66.1968 64.0527 66.4999C62.0255 66.5968 59.7011 66.7249 57.6937 66.4999C57.1225 66.4374 56.8451 66.328 56.4819 65.9124C56.5017 65.4124 56.5546 65.3406 56.8451 64.9187L56.8484 64.9156Z" fill="#0A2587"/>
<path d="M41.542 64.8907C43.5296 64.847 50.3905 64.5501 51.8928 64.8876C52.3286 64.9844 52.388 65.1001 52.629 65.4219C52.6588 65.8938 52.5366 66.0438 52.2758 66.4219C49.1722 66.4407 45.778 66.7344 42.7042 66.4501C42.0108 66.3876 41.6575 66.3407 41.2085 65.8219C41.2151 65.3407 41.2547 65.2938 41.5387 64.8876L41.542 64.8907Z" fill="#0A2587"/>
<path d="M83.6846 64.7343C84.2096 64.6968 84.6322 64.6249 85.1142 64.8781C85.4048 65.2187 85.4411 65.2531 85.484 65.6874C85.2958 66.078 85.1373 66.2749 84.718 66.4624C84.5397 66.5437 84.2822 66.578 84.0907 66.6155C82.0205 66.4749 72.8815 67.0874 71.8117 65.9593C71.6466 65.7843 71.7193 65.6937 71.7391 65.4812C73.1291 64.0906 81.1456 65.3093 83.4502 64.7906C83.5294 64.7718 83.6087 64.7531 83.6879 64.7343H83.6846Z" fill="#0A2587"/>
<path d="M45.8407 37.5628C46.7487 37.4784 47.5873 37.4472 48.4293 37.8347C48.558 37.8941 48.6802 37.9566 48.8024 38.0253C48.9212 38.0941 49.0401 38.1691 49.1523 38.2503C49.2646 38.3316 49.3736 38.4159 49.4759 38.5066C49.5783 38.5972 49.6773 38.6941 49.7731 38.7941C49.8655 38.8941 49.9547 39.0003 50.0372 39.1065C50.1197 39.2159 50.1957 39.3284 50.265 39.444C50.3344 39.5597 50.4004 39.6784 50.4565 39.8003C50.5159 39.9222 50.5655 40.0472 50.6117 40.1722C50.9782 41.2065 50.8956 42.394 50.3542 43.3596C49.7367 44.4627 48.8354 44.9752 47.6072 45.3159C46.9633 45.3315 46.2865 45.2627 45.6724 45.069C45.5304 45.0252 45.395 44.9752 45.2597 44.919C45.1243 44.8627 44.9922 44.7971 44.8634 44.7284C44.7347 44.6596 44.6092 44.5846 44.4904 44.5002C44.3682 44.419 44.2526 44.3315 44.1437 44.2377C44.0314 44.144 43.9258 44.0471 43.8234 43.944C43.7211 43.8409 43.6286 43.7346 43.5362 43.6221C43.447 43.5096 43.3612 43.394 43.2852 43.2753C43.2093 43.1565 43.1367 43.0315 43.0739 42.9065C43.0145 42.7909 42.9617 42.6721 42.9154 42.5503C42.8692 42.4284 42.8296 42.3065 42.7999 42.1815C42.7669 42.0565 42.7438 41.9284 42.7239 41.8034C42.7074 41.6753 42.6942 41.5471 42.6909 41.419C42.6876 41.2909 42.6909 41.1628 42.7008 41.0347C42.7107 40.9065 42.7306 40.7784 42.7537 40.6534C42.7801 40.5284 42.8098 40.4034 42.8494 40.2784C42.889 40.1565 42.9353 40.0347 42.9881 39.9159C43.5527 38.6659 44.5795 38.0753 45.8407 37.5628Z" fill="#0A2587"/>
<path d="M46.2666 39.5159C47.3232 39.5847 47.9637 40.3566 48.6736 41.0159C48.2675 41.8409 47.8085 42.369 47.0723 42.9597C47.0062 42.9659 46.9369 42.9753 46.8675 42.9753C46.3096 42.9878 45.6955 42.8315 45.3025 42.4378C44.9427 42.0784 44.8799 41.5722 44.9625 41.1003C45.1011 40.3034 45.6162 39.9628 46.2633 39.5128L46.2666 39.5159Z" fill="#FEFEFE"/>
<path d="M75.2984 71.1968C76.0974 71.1718 77.0549 71.0374 77.7944 71.3686C78.2204 71.5593 78.4746 71.7624 78.6364 72.1811L78.4812 72.3999C78.0057 72.6436 77.5864 72.7593 77.045 72.7999C73.5055 73.0655 69.7317 72.828 66.1692 72.828L44.0544 72.8374L43.3578 72.8499C42.6809 72.8655 42.0305 72.9374 41.423 72.5936C41.0466 72.3811 40.8947 72.2686 40.7825 71.8655C40.8089 71.828 40.8287 71.7905 40.8584 71.7561C41.215 71.3843 41.9711 71.2874 42.4729 71.2374C45.5105 70.9374 49.8093 71.2124 52.9789 71.2186C60.4176 71.2499 67.8563 71.2405 75.2951 71.1968H75.2984Z" fill="#0A2587"/>
<path d="M82.6479 58.022C83.6318 57.9282 84.5893 57.7157 85.4312 58.3407C85.6095 58.472 85.6921 58.6188 85.7812 58.8094C85.6557 59.1563 85.4973 59.3501 85.1407 59.5219C84.553 59.8063 83.7441 59.6907 83.1035 59.6594L55.0524 59.5876L46.0189 59.5657C44.761 59.5657 43.4337 59.6719 42.189 59.5876C41.697 59.5532 41.489 59.4376 41.1357 59.1251C41.0466 58.7657 41.0103 58.7188 41.1555 58.3813C41.6574 58.0688 42.0932 58.0095 42.6875 57.9813C45.5864 57.8501 48.6174 58.0563 51.5262 58.0688L71.0722 58.122C74.9219 58.122 78.8014 58.2157 82.6446 58.022H82.6479Z" fill="#0A2587"/>
<path d="M34.7931 49.1595L34.77 68.1187C34.77 71.1812 34.4861 74.5499 34.869 77.5748C34.9516 78.2217 35.1563 78.6967 35.635 79.1717C36.4076 79.9311 37.3255 80.2186 38.3953 80.3561C38.3721 82.0029 38.4448 83.706 39.7027 84.9904C40.9838 86.2966 42.945 86.3841 44.7048 86.4029C50.1361 86.4591 55.5773 86.4091 61.0085 86.3935C63.5112 86.3872 66.1922 86.1997 68.6751 86.4404C69.2033 86.4904 69.342 86.5029 69.7712 86.7966C66.5917 87.9341 64.1253 89.8153 62.6924 92.7903C62.1509 93.9122 61.9165 95.0153 61.8406 96.2371C61.6821 98.8215 61.8373 101.465 61.8439 104.056L61.9825 122.199L61.9099 178.811C59.1002 178.842 56.2904 178.846 53.4807 178.827C51.4997 178.824 49.3272 178.655 47.3858 179.074C45.9892 179.374 44.6619 180.039 43.6549 181.008C43.4501 181.205 43.2587 181.414 43.0837 181.636C42.9087 181.858 42.7502 182.089 42.6082 182.33C42.4662 182.571 42.3441 182.821 42.2384 183.08C42.1328 183.336 42.0469 183.602 41.9776 183.87C41.3206 186.408 41.9413 194.233 41.7894 197.489C35.0771 190.989 27.4667 186.108 18.1097 183.739C18.9615 182.958 19.7506 181.708 20.4308 180.774C24.3928 175.339 27.3775 169.68 30.1641 163.639C27.9751 162.283 25.9182 160.658 23.9933 158.986C9.96108 146.787 6.15754 132.118 5.35522 114.778C15.1447 112.471 24.4918 109.034 31.5938 101.953C28.5529 101.159 22.217 95.0621 20.2459 92.6434C18.8591 90.9434 17.7234 89.0153 16.5414 87.181C16.0923 87.1029 15.6433 87.0185 15.2042 86.8935C13.8208 86.4997 12.5925 85.5248 11.9223 84.3154C11.8397 84.1654 11.7671 84.0123 11.7011 83.856C11.635 83.6998 11.5789 83.5404 11.5294 83.3779C11.4799 83.2154 11.4402 83.0529 11.4105 82.8873C11.3775 82.7217 11.3577 82.556 11.3412 82.3873C11.328 82.2185 11.3214 82.0529 11.328 81.8842C11.3313 81.7154 11.3445 81.5498 11.3676 81.381C11.3907 81.2123 11.4204 81.0498 11.4601 80.8842C11.4997 80.7186 11.5459 80.5592 11.6053 80.3998C12.2029 78.728 13.5269 77.9217 15.1282 77.2186C14.1146 73.9186 16.0593 69.3749 17.6177 66.4406C20.8864 60.2813 25.2182 55.472 31.1117 51.4126C32.2046 50.6595 33.5055 49.5627 34.7898 49.1595H34.7931Z" fill="#DFEAF5"/>
<path d="M15.1317 77.2186C16.4524 76.8905 17.8259 76.9436 19.0376 77.5874C20.2889 78.2499 21.2068 79.453 21.5865 80.7498C21.9794 82.0967 21.7483 83.4529 20.9625 84.6342C20.9096 84.7123 20.8568 84.7873 20.8007 84.8623C20.7446 84.9373 20.6884 85.0123 20.629 85.0842C20.5696 85.156 20.5068 85.2279 20.4441 85.2967C20.3814 85.3654 20.3153 85.4342 20.2493 85.4998C20.1833 85.5654 20.1139 85.631 20.0446 85.6935C19.9753 85.756 19.9026 85.8185 19.83 85.8779C19.7574 85.9373 19.6814 85.9967 19.6055 86.0498C19.5295 86.106 19.4503 86.1592 19.3711 86.2123C19.2918 86.2654 19.2093 86.3154 19.1267 86.3623C19.0442 86.4092 18.9616 86.456 18.8758 86.4998C18.79 86.5435 18.7041 86.5873 18.6183 86.6248C18.5324 86.6654 18.4433 86.7029 18.3541 86.7404C18.265 86.7748 18.1758 86.8092 18.0834 86.8404C17.9909 86.8717 17.9018 86.9029 17.8094 86.9279C17.7169 86.956 17.6245 86.981 17.5287 87.0029C17.4363 87.0248 17.3405 87.0466 17.2448 87.0654C17.0136 87.106 16.7825 87.1404 16.5514 87.1716C16.1024 87.0935 15.6534 87.0092 15.2142 86.8842C13.8308 86.4904 12.6026 85.5154 11.9323 84.3061C11.8498 84.1561 11.7772 84.0029 11.7111 83.8467C11.6451 83.6904 11.589 83.5311 11.5394 83.3686C11.4899 83.2061 11.4503 83.0436 11.4206 82.8779C11.3876 82.7123 11.3678 82.5467 11.3512 82.378C11.338 82.2092 11.3314 82.0436 11.338 81.8748C11.3413 81.7061 11.3545 81.5405 11.3777 81.3717C11.4008 81.203 11.4305 81.0405 11.4701 80.8748C11.5097 80.7092 11.556 80.5498 11.6154 80.3905C12.213 78.7186 13.537 77.9124 15.1383 77.2093L15.1317 77.2186Z" fill="#0A2587"/>
<path d="M16.1882 78.7686C16.7858 78.778 17.4627 78.8936 17.9942 79.1561C18.0933 79.2061 18.189 79.2592 18.2815 79.3186C18.3739 79.3779 18.4631 79.4404 18.5522 79.5061C18.6381 79.5717 18.7206 79.6436 18.7998 79.7186C18.8791 79.7936 18.955 79.8717 19.0244 79.9529C19.0937 80.0342 19.1597 80.1217 19.2225 80.2092C19.2852 80.2967 19.3413 80.3873 19.3909 80.4811C19.4437 80.5748 19.4899 80.6717 19.5328 80.7686C19.5757 80.8654 19.6121 80.9654 19.6418 81.0685C19.6748 81.181 19.7045 81.2935 19.7243 81.4092C19.7474 81.5248 19.7606 81.6404 19.7705 81.756C19.7804 81.8717 19.7838 81.9873 19.7771 82.106C19.7738 82.2217 19.7639 82.3373 19.7474 82.4529C19.7309 82.5685 19.7078 82.6842 19.6781 82.7967C19.6484 82.9092 19.6154 83.0217 19.5724 83.131C19.5295 83.2404 19.4833 83.3498 19.4305 83.4529C19.3776 83.5591 19.3182 83.6592 19.2555 83.7591C18.6876 84.6154 17.915 85.0435 16.9047 85.2904C16.4589 85.2435 15.9868 85.206 15.5576 85.0748C14.7289 84.8185 13.9596 84.2248 13.5733 83.481C13.5237 83.3873 13.4808 83.2873 13.4445 83.1904C13.4082 83.0904 13.3752 82.9904 13.3455 82.8873C13.319 82.7842 13.2959 82.681 13.2827 82.5748C13.2662 82.4717 13.2563 82.3654 13.253 82.2592C13.2497 82.1529 13.253 82.0467 13.2596 81.9435C13.2662 81.8373 13.2794 81.7342 13.2992 81.6279C13.319 81.5248 13.3421 81.4217 13.3752 81.3186C13.4049 81.2154 13.4412 81.1154 13.4841 81.0185C13.9959 79.7842 14.9501 79.2467 16.1882 78.7623V78.7686Z" fill="#FEFEFE"/>
<path d="M31.6039 101.953L32.7463 100.975C33.9184 102.118 35.0212 103.318 36.2626 104.4C41.367 108.85 47.5115 111.824 54.237 113.359C56.3666 113.843 58.549 114.006 60.6687 114.481C60.6885 117.749 60.0183 121.106 59.5494 124.346C59.0047 128.124 58.5292 131.977 57.4991 135.671C55.4388 143.059 50.6778 150.896 45.0022 156.34C41.5222 159.677 37.2762 163.421 32.7628 165.383C31.9044 164.802 31.0558 164.18 30.171 163.643C27.982 162.286 25.925 160.661 24.0001 158.99C9.96792 146.79 6.16437 132.121 5.36206 114.781C15.1516 112.474 24.4987 109.037 31.6006 101.956L31.6039 101.953Z" fill="#0A2587"/>
<path d="M33.1194 103.484C41.334 110.709 48.0958 114.099 59.3249 115.602C58.9848 118.759 58.407 121.896 57.8986 125.034C57.3208 128.584 56.7925 132.155 55.7789 135.624C52.8437 145.683 46.2898 154.065 37.8045 160.589C36.322 161.73 34.7669 162.768 33.2019 163.799C33.0236 162.127 32.7496 156.246 33.2877 154.761L33.1623 113.153L32.4392 112.412C32.4986 112.368 32.5614 112.331 32.6142 112.284C33.3307 111.603 33.1128 104.918 33.1194 103.484Z" fill="#DFEAF5"/>
<path d="M33.1622 113.153C38.7487 116.981 43.9885 119.271 50.8164 120.568C49.948 132.362 46.1577 144.577 36.4243 152.602C35.4701 153.386 34.4169 154.224 33.2844 154.761L33.1589 113.153H33.1622Z" fill="#FEBE0D"/>
<path d="M6.84766 115.828C13.5633 114.574 21.0482 111.718 26.5456 107.875C28.2459 106.684 31.1085 103.956 32.7263 103.246L33.1192 103.484C33.1126 104.918 33.3272 111.599 32.6141 112.284C32.5612 112.334 32.4985 112.371 32.4391 112.412L33.1621 113.153L33.2876 154.761C32.7494 156.246 33.0268 162.127 33.2018 163.799C31.3429 163.308 25.7498 158.611 24.198 157.174C20.8369 154.065 17.6739 150.562 15.2703 146.727C9.78616 137.984 6.97312 125.924 6.85096 115.828H6.84766Z" fill="#FEFEFE"/>
<path d="M32.4391 112.412L33.1622 113.152L33.2876 154.761C32.5448 154.311 31.8184 153.765 31.1382 153.233C28.6025 151.249 26.2914 148.699 24.3797 146.174C18.3541 138.205 16.2575 130.165 15.3132 120.612C17.0961 120.052 18.922 119.637 20.6785 118.987C24.8485 117.446 28.8865 114.962 32.4424 112.412H32.4391Z" fill="#FEBD0C"/>
<path d="M82.7471 16.8912C91.6649 8.81627 104.792 1.35073 117.405 1.6476C129.258 1.92885 137.773 7.39441 146.027 14.8412C148.015 16.6349 149.844 18.8412 151.951 20.4755C152.601 20.4818 153.152 20.5443 153.661 20.0911C154.433 19.4068 154.721 18.1912 155.054 17.2662C154.49 16.3974 153.39 15.0912 153.628 14.0037C153.948 12.5225 157.029 9.91626 158.399 9.17564C158.894 8.91002 159.257 8.85065 159.809 8.99752C160.961 9.30377 162.13 10.1788 163.114 10.8225C163.817 10.6131 164.527 10.4131 165.217 10.1663C165.656 8.8319 165.87 6.54755 167.267 5.83506C168.538 5.18819 173.332 5.30069 174.745 5.76631C175.31 5.95068 175.921 6.2788 176.168 6.82255C176.736 8.06316 175.488 9.31939 177.232 10.1319C178.004 10.4913 178.919 10.7069 179.761 10.435C180.956 10.0475 181.742 8.95377 183.122 9.57876C184.248 10.0881 187.975 13.7193 188.355 14.8787C188.556 15.4912 188.362 16.1287 188.015 16.6537C187.533 17.3818 186.516 18.1912 186.519 19.0849C186.767 19.5786 187.048 20.0505 187.592 20.2943C188.751 20.813 190.059 19.6818 190.825 21.0911C191.551 22.4349 191.3 24.4348 191.277 25.9161L236.652 25.8755H250.153C252.679 25.8692 255.379 25.6817 257.889 25.9536C259.232 26.1004 260.352 26.4223 261.322 27.3661C262.244 28.2598 262.696 29.2223 262.772 30.4629L262.914 31.6473C264.208 32.2098 265.416 33.2535 266.519 34.1066C271.931 38.2972 274.932 42.5628 277.362 48.7064C280.284 56.1032 279.231 64.4875 275.794 71.5531C271.396 80.5904 262.108 88.3185 252.613 92.3653C249.624 93.6372 244.134 95.4809 241.809 97.2434C239.492 99.0027 237.636 102.2 237.19 104.965C235.341 105.646 229.303 107.54 228.19 108.512L228.018 108.999C228.035 112.293 228.002 115.59 228.272 118.874C229.497 133.759 234.46 150.48 245.953 161.268C249.063 164.186 252.487 166.983 256.449 168.808C256.466 170.543 259.289 176.405 260.068 178.596C260.794 180.642 261.382 182.733 262.009 184.808C257.298 186.427 251.668 189.352 247.736 192.274C245.844 193.677 244.13 195.289 242.291 196.755C237.996 195.636 228.408 196.161 223.601 196.17L223.63 129.415L223.551 109.556C223.515 105.206 223.366 100.821 223.528 96.4746C223.452 93.909 222.323 91.1028 220.421 89.2528C218.767 87.6435 216.446 86.7091 214.115 86.4341C210.288 85.981 206.036 86.3435 202.169 86.3685L179.615 86.4373H96.6076C97.707 85.456 98.5358 84.556 98.8362 83.0998C99.1928 81.3717 98.998 79.3686 98.998 77.5967L99.0079 68.5062V51.6283C98.998 48.6408 99.1367 45.569 98.9155 42.5909C98.8428 41.619 98.7438 40.069 98.1197 39.2815C97.1424 38.0503 95.5477 37.8034 94.0422 37.6441C94.0587 35.5878 94.4483 32.4973 92.7413 30.9566C91.0079 29.3942 86.2304 30.0004 83.9852 30.016C84.005 25.4098 84.2592 21.363 82.7471 16.8881V16.8912Z" fill="#DFEAF5"/>
<path d="M119.505 39.5003C120.759 39.4815 123.236 39.1565 124.253 39.9378C124.385 40.2878 124.454 40.4503 124.233 40.8065C124.055 41.0971 123.675 41.2096 123.341 41.244C123.077 41.2721 122.79 41.2471 122.526 41.2378C121.648 41.0534 120.515 41.3253 119.749 40.9253C119.439 40.4065 119.508 40.0909 119.508 39.5034L119.505 39.5003Z" fill="#2045AD"/>
<path d="M117.653 39.4315C117.623 38.2253 117.365 36.3503 118.072 35.2753C118.26 34.9909 118.277 34.9784 118.633 34.894C118.752 34.9597 118.815 34.9847 118.91 35.1003C119.776 36.1722 119.518 38.2034 119.505 39.5002C119.505 40.0877 119.435 40.4065 119.746 40.9221C120.512 41.3252 121.648 41.0502 122.523 41.2346C121.558 41.2658 120.584 41.244 119.617 41.244C119.653 42.7908 119.901 44.6471 118.894 45.9783L118.435 45.9908C117.332 44.8283 117.606 42.6346 117.626 41.169C116.266 41.1627 113.922 41.369 112.829 40.5252C112.578 40.3315 112.657 40.4315 112.611 40.0971C112.69 40.0252 112.766 39.944 112.852 39.8784C113.869 39.0971 116.378 39.3909 117.646 39.4315H117.653Z" fill="url(#paint0_linear_275_2221)"/>
<path d="M239.32 171.993C239.541 172.083 239.759 172.202 239.973 172.308C240.657 173.296 240.281 175.524 240.254 176.696C241.548 176.655 243.13 176.446 244.352 176.918C244.754 177.074 244.929 177.18 245.075 177.564C244.989 177.718 244.992 177.739 244.834 177.874C243.879 178.696 241.436 178.449 240.205 178.436C240.205 179.383 240.294 180.33 240.267 181.277C240.244 182.136 240.228 182.583 239.551 183.186C239.293 183.074 239.069 182.946 238.828 182.802C238.138 181.789 238.488 179.642 238.504 178.452C237.401 178.464 236.18 178.561 235.09 178.417C234.394 178.327 233.624 178.186 233.182 177.63L233.268 177.436C234.427 176.427 236.995 176.708 238.488 176.724C238.541 175.561 238.362 174.399 238.481 173.239C238.55 172.564 238.801 172.402 239.313 171.986L239.32 171.993Z" fill="#0A2587"/>
<path d="M147.064 51.5189C147.539 51.5127 147.787 51.4814 148.2 51.7377C148.953 52.7501 148.589 54.7595 148.586 55.9782C149.87 56.022 151.478 55.8907 152.674 56.3751C153.08 56.5407 153.288 56.6282 153.466 57.0157L153.251 57.3032C151.822 57.9751 150.24 57.8251 148.688 57.8157C148.718 58.6688 148.854 59.5251 148.811 60.3813C148.774 61.1438 148.583 61.4688 147.995 61.9844C147.655 61.9594 147.242 61.9063 147.018 61.6407C146.341 60.8344 146.684 58.8344 146.704 57.8313C145.265 57.8563 142.821 58.1407 141.653 57.2626C141.369 57.0501 141.461 57.1626 141.408 56.7907C141.458 56.7407 141.501 56.6845 141.553 56.6407C142.712 55.647 145.281 55.9595 146.764 55.9814C146.839 54.5814 146.49 52.8376 147.057 51.5252L147.064 51.5189Z" fill="#3E69CC"/>
<path d="M262.775 30.4629L262.917 31.6473L262.944 37.0722C264.357 37.1253 265.45 37.1722 266.734 37.8066C267.183 38.6097 267.374 39.2222 267.454 40.1253C267.635 42.2503 267.53 44.4471 267.53 46.5815L267.487 58.2469L267.401 69.0187C267.401 70.9749 267.539 72.9718 267.44 74.9249C267.404 75.703 267.262 76.4655 267.021 77.2124C266.361 79.2123 265.004 80.6904 263.052 81.6779C261.804 82.3061 260.441 82.6279 259.038 82.7185C255.27 82.9654 251.457 82.8279 247.68 82.9123C235.569 83.1873 223.462 83.1904 211.351 83.331C207.954 83.3717 204.56 83.581 201.166 83.681C197.402 83.756 193.634 83.7935 189.87 83.7967C187.781 83.806 184.915 84.1373 182.94 83.5592C180.761 82.9217 178.853 80.6404 177.895 78.7561C177.562 78.0967 177.341 77.4374 177.202 76.7186C182.25 76.953 187.407 76.7436 192.472 76.7499L225.073 76.7717L246.838 76.878C250.318 76.8936 254.075 77.1717 257.525 76.8561C258.873 76.7311 260.127 76.3874 261.131 75.4905C261.811 74.8811 262.366 74.1686 262.547 73.2843C263.204 70.0437 262.811 63.3313 262.805 59.6313L262.775 30.466V30.4629Z" fill="#A6CBF3"/>
<path d="M165.217 10.1631C165.656 8.82875 165.87 6.5444 167.267 5.83191C168.538 5.18504 173.332 5.29754 174.745 5.76316C175.31 5.94753 175.921 6.27565 176.168 6.8194C176.736 8.06001 175.488 9.31624 177.232 10.1287C178.004 10.4881 178.919 10.7037 179.761 10.4319C180.956 10.0444 181.742 8.95062 183.122 9.57561C184.248 10.085 187.975 13.7162 188.355 14.8756C188.556 15.488 188.362 16.1255 188.015 16.6505C187.533 17.3786 186.516 18.188 186.519 19.0818C186.767 19.5755 187.048 20.0474 187.592 20.2911C188.751 20.8099 190.059 19.6786 190.825 21.088C191.551 22.4317 191.3 24.4317 191.277 25.9129L236.652 25.8723H250.153C252.679 25.8661 255.379 25.6786 257.889 25.9504C259.232 26.0973 260.352 26.4192 261.322 27.3629C262.244 28.2567 262.696 29.2191 262.772 30.4598L262.802 59.625C262.808 63.325 263.201 70.0374 262.544 73.278C262.366 74.1624 261.811 74.8749 261.128 75.4842C260.124 76.3811 258.869 76.7249 257.522 76.8499C254.072 77.1655 250.315 76.8905 246.835 76.8717L225.07 76.7655L192.469 76.7436C187.404 76.7374 182.247 76.9467 177.199 76.7124C177.152 76.6999 177.103 76.6905 177.057 76.678L176.819 76.6155C175.663 76.3217 174.613 75.7874 173.758 74.9811C172.83 74.1061 172.398 73.0655 172.18 71.8655C171.635 68.8624 171.952 65.5219 171.956 62.4688L172.012 44.6971C170.645 44.7221 169.05 44.8877 167.739 44.4783C165.97 43.9252 166.346 42.5909 165.58 41.3253C164.969 40.319 163.804 40.1659 162.714 39.8846C161.628 40.7315 160.644 41.2596 159.3 41.6628C159.046 41.5471 158.795 41.4253 158.547 41.294C156.999 40.4878 153.902 37.8159 153.459 36.1972C153.106 34.9035 154.087 34.1628 154.688 33.1378C154.991 32.6191 155.061 32.0566 154.869 31.4879C154.077 29.1723 151.964 30.5035 150.442 29.5973C150.009 29.341 149.907 28.8441 149.811 28.4035C149.517 27.0598 149.339 22.0348 150.075 20.9849C150.66 20.6224 151.274 20.5661 151.947 20.463C152.598 20.4692 153.149 20.5317 153.658 20.0786C154.43 19.3943 154.717 18.1786 155.051 17.2537C154.486 16.3849 153.387 15.0787 153.625 13.9912C153.945 12.51 157.025 9.90374 158.395 9.16312C158.891 8.8975 159.254 8.83812 159.805 8.985C160.958 9.29124 162.126 10.1662 163.11 10.81C163.814 10.6006 164.523 10.4006 165.213 10.1537L165.217 10.1631Z" fill="#0A2587"/>
<path d="M156.342 31.8004C156.418 31.8598 156.497 31.916 156.573 31.9754C157.596 32.7692 158.306 33.9223 159.356 34.691C160.386 35.4441 165.032 37.6847 165.415 38.216C165.382 38.6285 165.342 39.041 165.319 39.4535C164.395 39.166 163.437 38.941 162.499 38.691C161.605 39.3472 160.74 39.9847 159.736 40.4909C157.58 39.5566 155.635 37.5503 154.49 35.6035C155.143 34.3941 156.074 33.1473 156.338 31.8004H156.342Z" fill="#F96D73"/>
<path d="M173.893 6.53817C174.333 6.65067 174.57 6.69754 174.815 7.08504C175.399 8.01003 175.498 9.57564 175.815 10.6381C177.086 11.31 178.265 11.9819 179.774 11.61C180.817 11.3537 181.639 10.685 182.557 10.1944C184.251 11.6944 186.199 13.5318 187.414 15.4037C186.684 16.5006 184.858 18.3162 185.149 19.6568C185.255 20.1474 185.684 20.4974 186.136 20.7068C187.047 21.1349 189.712 21.3443 190.085 22.2661C190.293 22.7849 189.923 29.591 189.745 29.8285C189.015 30.7973 186.361 29.5723 185.004 33.0941C185.446 33.591 186.351 34.4004 186.308 35.091C186.215 36.5347 182.58 39.4253 181.355 40.2503C180.14 39.494 178.777 38.6222 177.231 38.8597C176.67 38.9472 176.277 39.2409 175.983 39.6815C175.25 40.7847 175.789 43.0503 174.283 43.3784C173.296 43.594 168.736 43.8627 167.99 43.4971C166.56 42.8003 167.64 40.5315 165.322 39.4472C165.342 39.0347 165.385 38.6222 165.418 38.2097C165.563 38.2628 165.712 38.3097 165.86 38.3503C169.179 39.2753 172.985 38.5097 175.934 36.9222C179.437 35.0347 182.283 31.8098 183.307 28.091C183.366 27.8661 183.419 27.6379 183.468 27.4098C183.515 27.1817 183.558 26.9536 183.594 26.7223C183.63 26.4911 183.66 26.2629 183.683 26.0317C183.706 25.8004 183.726 25.5692 183.736 25.338C183.749 25.1067 183.752 24.8723 183.752 24.6411C183.752 24.4098 183.746 24.1755 183.732 23.9442C183.719 23.713 183.703 23.4817 183.676 23.2505C183.653 23.0192 183.624 22.788 183.587 22.5599C183.551 22.3286 183.508 22.1005 183.462 21.8724C183.412 21.6442 183.359 21.4192 183.3 21.1911C183.241 20.9661 183.175 20.7411 183.102 20.5193C183.029 20.2974 182.953 20.0755 182.871 19.8568C182.788 19.638 182.699 19.4224 182.607 19.2068C182.514 18.9912 182.412 18.7787 182.309 18.5693C182.204 18.3599 182.095 18.1505 181.979 17.9474C181.864 17.7412 181.742 17.5412 181.616 17.3412C179.985 14.7506 177.377 12.6694 174.276 11.935C174.217 10.2256 174.521 8.15378 173.893 6.53192V6.53817Z" fill="#E63A57"/>
<path d="M166.257 10.7912C166.62 9.65375 166.689 7.93815 167.6 7.05691C168.512 6.17879 172.503 6.59129 173.893 6.53816C174.521 8.16002 174.217 10.2319 174.276 11.9412C177.373 12.6756 179.985 14.7568 181.616 17.3474C181.742 17.5474 181.864 17.7474 181.979 17.9537C182.095 18.1599 182.207 18.3662 182.309 18.5755C182.415 18.7849 182.514 18.9974 182.607 19.213C182.702 19.4286 182.788 19.6443 182.871 19.863C182.953 20.0818 183.029 20.3036 183.102 20.5255C183.174 20.7474 183.24 20.9724 183.3 21.1974C183.359 21.4224 183.412 21.6505 183.462 21.8786C183.511 22.1067 183.551 22.3349 183.587 22.5661C183.623 22.7974 183.653 23.0255 183.676 23.2567C183.699 23.488 183.719 23.7192 183.732 23.9505C183.746 24.1817 183.752 24.4161 183.752 24.6473C183.752 24.8786 183.746 25.113 183.736 25.3442C183.723 25.5754 183.706 25.8067 183.683 26.0379C183.66 26.2692 183.63 26.5004 183.594 26.7286C183.557 26.9598 183.515 27.1879 183.468 27.416C183.422 27.6442 183.366 27.8692 183.307 28.0973C182.283 31.8129 179.437 35.041 175.934 36.9284C172.985 38.5159 169.179 39.2815 165.86 38.3566C165.712 38.3159 165.563 38.2691 165.418 38.2159C165.032 37.6878 160.389 35.4441 159.359 34.691C158.306 33.9222 157.6 32.7691 156.576 31.9754C156.5 31.916 156.421 31.8598 156.345 31.8004C155.86 30.9129 155.358 30.0754 154.763 29.2473C153.571 29.0567 152.092 29.1192 151.019 28.5785C150.557 27.1598 150.709 23.6723 150.927 22.138C151.97 21.1286 152.891 21.7474 154.011 21.1974C155.43 20.5005 155.936 18.2474 156.394 16.9099C155.747 16.0943 155.203 15.3412 154.747 14.4131C155.774 12.5693 157.378 11.0694 159.161 9.86625C160.568 10.4944 161.717 11.46 163.183 12.01C164.236 11.6537 165.24 11.2412 166.253 10.7881L166.257 10.7912Z" fill="#F89794"/>
<path d="M168.74 18.7662C169.997 18.5818 171.166 18.4662 172.411 18.8224C171.84 19.163 171.156 19.1724 170.499 19.2255L170.354 19.3349L169.281 19.4224L168.74 18.763V18.7662Z" fill="#1C0E73"/>
<path d="M172.411 18.8224C172.579 18.8693 172.748 18.9193 172.913 18.9724C174.554 19.5162 175.954 20.7787 176.673 22.2693C177.406 23.7849 177.486 25.6536 176.862 27.2192C176.195 28.8879 174.798 30.3348 173.071 31.0535C171.424 31.7379 169.651 31.7973 167.983 31.1348C166.21 30.4317 164.82 28.9942 164.153 27.2973C164.114 27.1942 164.074 27.088 164.038 26.9817C164.002 26.8755 163.972 26.7692 163.942 26.6598C163.912 26.5536 163.886 26.4442 163.863 26.3348C163.84 26.2255 163.82 26.1161 163.8 26.0067C163.784 25.8974 163.767 25.788 163.757 25.6755C163.744 25.5661 163.737 25.4536 163.731 25.3442C163.724 25.2317 163.721 25.1224 163.724 25.0099C163.724 24.8974 163.727 24.788 163.734 24.6755C163.741 24.563 163.751 24.4536 163.761 24.3442C163.774 24.2349 163.787 24.1224 163.807 24.013C163.827 23.9036 163.846 23.7943 163.869 23.6849C163.893 23.5755 163.922 23.4693 163.952 23.3599C163.982 23.2536 164.015 23.1443 164.051 23.0411C164.087 22.9349 164.127 22.8318 164.167 22.7255C164.21 22.6224 164.252 22.5193 164.299 22.4161C164.345 22.313 164.394 22.213 164.447 22.113C165.355 20.3849 166.851 19.3693 168.736 18.7631L169.278 19.4224C167.508 20.0505 165.88 21.0974 165.098 22.788C164.464 24.1536 164.5 25.7942 165.127 27.1536C165.804 28.6223 167.158 29.8317 168.759 30.3629C170.169 30.8317 171.853 30.7598 173.18 30.0848C174.706 29.3067 175.673 27.7817 176.129 26.238C176.178 26.0724 176.218 25.9067 176.248 25.7349C176.277 25.5661 176.3 25.3942 176.31 25.2255C176.32 25.0567 176.323 24.8817 176.317 24.7099C176.31 24.538 176.294 24.3692 176.271 24.1974C176.244 24.0286 176.211 23.8599 176.168 23.6911C176.125 23.5255 176.073 23.3599 176.01 23.2005C175.947 23.038 175.878 22.8818 175.798 22.7255C175.719 22.5724 175.633 22.4193 175.538 22.2755C174.689 20.9443 173.141 19.8068 171.529 19.4537C171.143 19.3693 170.747 19.3506 170.354 19.3287L170.499 19.2193C171.156 19.1662 171.84 19.1568 172.411 18.8162V18.8224Z" fill="#0A2587"/>
<path d="M170.354 19.3348C170.747 19.3536 171.146 19.3755 171.529 19.4598C173.144 19.8098 174.689 20.9473 175.538 22.2817C175.633 22.4286 175.719 22.5786 175.799 22.7317C175.878 22.8879 175.947 23.0442 176.01 23.2067C176.073 23.3692 176.125 23.5317 176.168 23.6973C176.211 23.8629 176.248 24.0317 176.271 24.2035C176.297 24.3723 176.31 24.5442 176.317 24.716C176.324 24.8879 176.32 25.0598 176.31 25.2316C176.3 25.4035 176.277 25.5723 176.248 25.741C176.218 25.9098 176.178 26.0785 176.129 26.2441C175.673 27.7847 174.706 29.3128 173.18 30.091C171.853 30.766 170.172 30.841 168.759 30.3691C167.158 29.8378 165.808 28.6285 165.128 27.1597C164.5 25.8004 164.467 24.1598 165.098 22.7942C165.88 21.1036 167.511 20.0567 169.278 19.4286L170.351 19.3411L170.354 19.3348Z" fill="#FEFEFE"/>
<path d="M191.125 27.3379L235.163 27.2848L250.668 27.2473C253.025 27.2473 255.67 27.0348 257.998 27.3285C258.866 27.4379 259.625 27.8066 260.243 28.3941C260.801 28.9254 261.098 29.5597 261.197 30.3004C261.405 31.8535 261.276 33.5284 261.276 35.0941V44.0315C261.266 52.8814 261.445 61.7781 261.171 70.6249C261.121 72.1749 261.002 73.4405 259.744 74.5749C258.899 75.3405 257.39 75.4373 256.261 75.4905C251.78 75.703 247.185 75.4873 242.694 75.4686L216.68 75.3905H191.145C187.18 75.3905 183.135 75.6061 179.18 75.4248C177.416 75.3436 175.891 75.0124 174.656 73.6936C174.078 73.078 173.755 72.378 173.626 71.5718C173.121 68.4281 173.484 64.8 173.507 61.6125C173.547 55.9907 173.534 50.372 173.464 44.7533C174.511 44.6096 175.594 44.5721 176.267 43.6908C177.066 42.6471 176.294 40.7784 177.36 40.1909C178.423 40.144 179.117 40.4471 180.035 40.9252C180.487 41.1627 180.966 41.2534 181.431 41.4534C181.557 41.4002 181.603 41.3877 181.732 41.3065C183.482 40.2065 187.345 37.1878 187.632 35.2159C187.219 34.2097 186.519 33.1566 186.958 32.066C187.675 31.3316 189.563 31.6597 191.109 30.1129L191.128 27.341L191.125 27.3379Z" fill="#FEFEFE"/>
<path d="M185.149 66.4437C188.827 66.2093 192.627 66.3874 196.319 66.3937L217.654 66.4187L239.194 66.3874C242.806 66.378 246.534 66.1812 250.13 66.378C250.569 66.403 250.777 66.4812 251.11 66.7405C251.255 67.2062 251.163 67.3874 250.995 67.8218C237.649 67.9968 224.271 67.8218 210.922 67.8218L194.671 67.8124C191.894 67.8093 189.058 67.9187 186.288 67.7749C185.819 67.7499 185.482 67.7624 185.106 67.4655C184.977 67.0218 185.027 66.8999 185.146 66.4437H185.149Z" fill="#0A2587"/>
<path d="M233.331 46.8127C236.071 46.769 247.683 46.419 249.509 46.8502C249.922 47.344 250.057 47.919 250.156 48.5346C250.417 50.1908 250.248 52.0189 250.258 53.6939C250.272 55.7376 250.397 57.822 250.285 59.8626C250.235 60.7345 250.07 61.3345 249.374 61.9282C246.108 61.9313 242.836 61.8688 239.571 61.9094C237.771 61.9344 235.777 62.2126 234.007 61.9626C233.341 61.8688 232.885 61.6938 232.482 61.1657C232.155 59.7751 232.175 48.1346 232.601 47.2752C232.786 46.9002 232.944 46.9284 233.337 46.8096L233.331 46.8127Z" fill="#FCD171"/>
<path d="M187.503 46.8128C190.597 46.7159 193.714 46.7596 196.811 46.7596C198.762 46.7596 200.806 46.6503 202.75 46.8096C203.332 46.8565 203.781 46.9659 204.154 47.4346C204.646 48.0565 204.576 59.7157 204.276 61.2095C204.015 61.6032 203.734 61.7063 203.305 61.8876C199.627 61.697 195.913 61.7626 192.231 61.7595C190.745 61.7595 189.071 61.9345 187.612 61.7313C187.147 61.6657 186.856 61.522 186.483 61.2595C186.008 59.6595 185.892 48.7534 186.354 47.2627C186.704 46.9377 187.048 46.9002 187.506 46.8128H187.503Z" fill="#89D4F1"/>
<path d="M210.116 46.922C213.134 46.8408 225.562 46.4033 227.467 47.297C228.018 48.0501 227.922 58.2125 227.794 59.8656C227.721 60.7937 227.609 61.2625 226.849 61.8844C226.588 61.9 226.331 61.9125 226.07 61.9219C224.033 61.9969 211.107 62.1625 210.096 61.7562C210.001 61.7187 209.799 61.5469 209.747 61.4875C209.459 61.1594 209.334 60.7094 209.284 60.2937C209.129 58.9281 209.284 57.3938 209.278 56.0063C209.264 53.5344 209.05 50.8845 209.311 48.4314C209.39 47.6908 209.509 47.4033 210.116 46.922Z" fill="#1AA49B"/>
<path d="M187.629 35.2129C201.367 34.9879 215.142 35.191 228.886 35.2004L242.839 35.191C245.088 35.1785 247.482 34.9723 249.71 35.1504C250.463 35.2098 251.351 35.3691 251.893 35.916C252.563 36.5879 252.322 39.7722 252.246 40.7378C252.213 41.1691 252.15 41.5503 252.002 41.9597C251.305 42.3034 250.05 42.2347 249.274 42.2472C233.806 42.4784 218.288 42.2128 202.813 42.2191L189.203 42.2441C186.922 42.2503 184.35 42.4878 182.118 42.1316C181.821 41.9159 181.616 41.7628 181.428 41.4534C181.553 41.4003 181.6 41.3878 181.728 41.3066C183.478 40.2066 187.341 37.1879 187.629 35.216V35.2129Z" fill="#209FB0"/>
<path d="M243.539 197.452C244.91 195.908 246.725 194.245 248.548 193.195C248.515 193.283 248.482 193.37 248.446 193.458C247.491 195.814 246.392 196.386 246.382 199.348C245.474 198.642 244.533 198.045 243.539 197.452Z" fill="#5FC4A0"/>
<path d="M79.6897 180.624C81.0401 181.439 81.8721 182.364 82.1924 183.883C82.5159 185.427 82.3344 187.195 82.3079 188.774H79.9043C80.1618 186.227 80.0892 183.164 79.6897 180.627V180.624Z" fill="#D492AE"/>
<path d="M79.6897 189.88L82.2815 190.027C82.2815 193.695 82.298 197.364 82.3377 201.03C82.3575 203.105 82.5688 205.392 82.2914 207.445C81.958 204.039 82.1627 200.467 82.1594 197.045L79.9902 197.039L79.8647 196.995L79.6897 189.88Z" fill="#2045AD"/>
<path d="M36.7279 194.639C38.4415 196.083 40.1088 197.57 41.7333 199.102L41.7399 201.595C40.3862 201.308 38.8773 201.383 37.4873 201.277C37.0911 199.061 36.8138 196.883 36.7246 194.636L36.7279 194.639Z" fill="#83CE9A"/>
<path d="M9.27783 200.533C11.4735 199.573 20.0083 201.77 22.5011 200.773C24.0496 201.652 25.5453 203.055 27.0343 204.077C21.1276 202.842 15.1813 201.792 9.27783 200.533Z" fill="#5FC4A0"/>
<path d="M37.4907 201.28C38.8807 201.386 40.3896 201.311 41.7433 201.599C41.7433 206.136 42.057 210.902 41.5914 215.414C39.9241 212.802 38.227 204.492 37.494 201.28H37.4907Z" fill="#5FC4A0"/>
<path d="M41.3108 225.395H41.3966C41.8523 225.864 41.6046 230.332 41.6013 231.229C38.3657 230.595 35.2819 229.798 32.2113 228.623C31.1449 228.217 30.1048 227.704 29.0681 227.239C33.1655 226.767 37.2431 226.036 41.3141 225.395H41.3108Z" fill="#5FC4A0"/>
<path d="M71.7688 180.002C74.08 179.98 77.6854 179.477 79.6896 180.624C80.0891 183.161 80.1617 186.224 79.9042 188.77L75.2488 188.78C74.8295 185.717 73.1753 182.752 71.7688 180.002Z" fill="#DEABB6"/>
<path d="M36.1732 201.252C36.9788 205.298 38.1807 209.164 39.4452 213.098C35.9289 209.951 32.3136 206.905 28.6058 203.961C28.4341 203.067 28.2393 202.177 28.094 201.28C30.7882 201.292 33.4824 201.283 36.1732 201.252Z" fill="#5FC4A0"/>
<path d="M75.153 238.245C77.5237 238.298 79.8943 238.314 82.2649 238.289C82.3045 241.204 82.671 244.542 80.2575 246.779C77.527 249.313 72.2707 248.557 68.7676 248.514C71.5938 246.129 74.0965 241.667 75.153 238.245Z" fill="#DEABB6"/>
<path d="M25.0796 187.392C28.8369 189.17 32.2212 191.008 35.3148 193.742C35.503 196.255 35.645 198.777 36.1733 201.252C33.4791 201.283 30.7849 201.289 28.094 201.28C27.0243 196.661 26.2715 191.989 25.0829 187.395L25.0796 187.392Z" fill="#83CE9A"/>
<path d="M248.548 193.192C251.229 191.074 254.29 189.627 257.364 188.105C256.261 191.192 255.363 194.333 254.673 197.527C254.148 199.927 253.801 203.473 252.804 205.67C252.256 206.883 251.061 208.095 250.235 209.167C249.978 205.152 249.156 202.445 246.382 199.345C246.392 196.386 247.491 195.811 248.446 193.455C248.482 193.367 248.515 193.28 248.548 193.192Z" fill="#9DC8BE"/>
<path d="M164.503 230.948C173.765 230.858 183.029 230.845 192.291 230.914L192.277 235.167C186.81 235.323 181.342 235.189 175.874 235.189C172.078 235.189 168.271 235.339 164.477 235.304L164.503 230.945V230.948Z" fill="#CBCCDD"/>
<path d="M7.20098 200.127C5.17704 194.77 3.5328 189.464 2.02393 183.967C8.67684 189.749 15.7854 195.058 22.501 200.777C20.0082 201.773 11.4734 199.577 9.27774 200.536C8.58769 200.398 7.89764 200.248 7.20098 200.127Z" fill="#83CE9A"/>
<path d="M79.9867 197.039L82.1559 197.045C82.1592 200.47 81.9545 204.039 82.288 207.445C82.0998 217.292 82.2219 227.182 82.2054 237.035L75.4006 237.026C78.6561 230.764 80.3994 204.351 79.9867 197.036V197.039Z" fill="#DFEAF5"/>
<path d="M276.213 183.205C276.589 183.152 276.847 183.074 277.197 183.255C270.148 189.842 262.227 195.708 255.805 202.883C255.548 203.198 255.703 203.083 255.353 203.245C254.884 201.761 258.489 189.449 259.345 187.48C264.066 185.105 270.957 183.874 276.21 183.208L276.213 183.205Z" fill="#9DC8BE"/>
<path d="M272.73 202.358L272.954 202.389L273.05 202.611C272.723 203.892 270.303 210.133 269.507 210.923C268.064 212.355 253.375 213.477 250.43 213.664L250.265 213.692L250.044 213.545C249.869 211.289 252.754 208.433 254.168 206.667C258.78 206.398 268.196 203.914 272.73 202.358Z" fill="#9DC8BE"/>
<path d="M277.93 184.714L277.993 184.786C278.187 186.377 274.47 198.73 273.624 200.623C269.035 202.489 261.346 203.98 256.36 204.842C256.248 204.764 256.31 204.823 256.238 204.62C258.651 201.898 261.501 199.43 264.192 196.955C268.725 192.827 273.304 188.745 277.93 184.714Z" fill="#9DC8BE"/>
<path d="M266.585 213.198C267.173 213.089 267.764 212.973 268.355 212.873C263.591 219.792 257.75 226.033 249.951 229.998L249.932 220.276C249.918 218.648 249.667 216.648 250.001 215.073C255.601 214.792 261.098 214.33 266.585 213.195V213.198Z" fill="#5FC4A0"/>
<path d="M250.001 215.076C255.6 214.795 261.098 214.333 266.585 213.198L266.869 213.539C266.598 214.392 265.047 215.064 264.231 215.479C259.576 217.858 255.369 219.401 250.103 220.101C250.096 218.451 250.215 216.708 250.001 215.073V215.076Z" fill="#9DC8BE"/>
<path d="M83.5195 230.898L122.166 230.945L122.133 235.176L83.5658 235.061C83.5492 233.673 83.5195 232.286 83.5195 230.898Z" fill="#CBCCDD"/>
<path d="M3.03748 183.014C3.91903 183.024 4.80059 183.052 5.67884 183.099C6.56039 183.146 7.43864 183.214 8.31359 183.302C9.19184 183.389 10.0635 183.496 10.9351 183.621C11.8068 183.746 12.6751 183.892 13.5402 184.058C14.4052 184.224 15.2636 184.408 16.1188 184.611C16.9739 184.814 17.8225 185.036 18.6677 185.277C19.5129 185.517 20.3483 185.777 21.1803 186.055C22.0123 186.333 22.8344 186.63 23.6532 186.945C24.439 192.12 26.1989 197.202 26.7304 202.411C23.7028 200.052 20.8204 197.527 17.8423 195.111C12.8897 191.095 7.88437 187.142 3.03418 183.014H3.03748Z" fill="#83CE9A"/>
<path d="M15.9141 216.264C19.0672 216.233 22.2467 216.473 25.4031 216.548C30.8047 216.633 36.2063 216.689 41.6111 216.72L41.5715 223.908L39.2306 224.354C36.3581 224.876 29.7316 225.401 27.4799 226.451C26.9087 226.132 26.3441 225.798 25.7927 225.451C25.2413 225.104 24.6966 224.742 24.165 224.367C23.6334 223.992 23.1118 223.601 22.6033 223.201C22.0948 222.798 21.5963 222.383 21.1109 221.954C20.6256 221.526 20.1534 221.086 19.6912 220.633C19.2323 220.179 18.7832 219.717 18.3507 219.242C17.9182 218.767 17.4956 218.279 17.0928 217.783C16.6867 217.286 16.2971 216.779 15.9174 216.261L15.9141 216.264Z" fill="#5FC4A0"/>
<path d="M7.72607 201.623C11.8895 202.533 16.0695 203.364 20.2659 204.117C22.5639 204.523 25.9613 204.761 28.0447 205.633C30.1281 206.505 37.9828 213.433 39.802 215.364C31.4157 215.351 23.0393 215.126 14.6662 214.689C13.9531 213.67 13.2696 212.633 12.6225 211.576C11.9754 210.52 11.3612 209.445 10.7801 208.355C10.199 207.264 9.65426 206.155 9.1458 205.033C8.63734 203.911 8.1619 202.773 7.72607 201.623Z" fill="#5FC4A0"/>
<path d="M43.1004 188.774L43.0839 187.489C43.0641 185.433 42.9914 183.386 44.672 181.833C45.4875 181.08 46.4879 180.502 47.6039 180.258C50.2419 179.68 53.5733 180.017 56.3005 180.014L71.7723 180.002C73.1788 182.755 74.8362 185.717 75.2523 188.78L43.1037 188.77L43.1004 188.774Z" fill="#DFEAF5"/>
<path d="M43.1333 189.961C55.2901 189.627 67.5229 189.871 79.6896 189.88L79.8646 196.995C75.9686 197.108 72.0396 197.027 68.1403 197.03H43.1564C43.1696 194.677 43.163 192.317 43.1333 189.961Z" fill="#3E69CC"/>
<path d="M64.4489 190.814C64.5975 190.802 64.7428 190.786 64.8913 190.78C65.5154 190.749 66.0436 190.839 66.4993 191.261C66.8757 191.611 67.011 191.983 66.9714 192.477C66.9186 193.133 66.4167 193.595 65.9182 193.992C65.7234 194.017 65.5088 194.055 65.3074 194.052C64.7692 194.042 64.2904 193.92 63.9041 193.545C63.5277 193.183 63.4155 192.799 63.4452 192.302C63.4881 191.602 63.9207 191.236 64.4456 190.814H64.4489Z" fill="#FEFEFE"/>
<path d="M59.2027 190.649C59.3644 190.649 59.5262 190.642 59.6847 190.649C60.2658 190.667 60.7875 190.892 61.1573 191.321C61.4874 191.702 61.6063 192.136 61.527 192.617C61.4082 193.342 60.9889 193.68 60.3781 194.077L60.2163 194.083C59.5097 194.105 58.8824 194.074 58.3673 193.533C58.0206 193.17 57.8886 192.711 57.9678 192.23C58.0999 191.449 58.5621 191.089 59.2027 190.652V190.649Z" fill="#FEFEFE"/>
<path d="M54.1114 190.652C54.3524 190.67 54.3887 190.667 54.6495 190.717C55.1679 190.817 55.6599 191.105 55.9372 191.536C56.2112 191.964 56.2377 192.439 56.0726 192.911C55.8348 193.586 55.366 193.874 54.7288 194.195C54.4316 194.17 54.1213 194.149 53.834 194.077C53.3289 193.952 52.8402 193.561 52.5992 193.13C52.3615 192.702 52.3483 192.22 52.5662 191.783C52.8798 191.155 53.4741 190.914 54.1081 190.652H54.1114Z" fill="#FEFEFE"/>
<path d="M123.945 230.97L162.526 230.976C162.539 238.417 162.252 242.529 167.736 248.467L162.03 248.442C161.539 246.36 159.264 238.904 158.059 237.46C155.216 236.829 149.167 237.201 145.895 237.207L124.054 237.232C123.883 235.16 123.942 233.045 123.945 230.967V230.97Z" fill="#2045AD"/>
<path d="M43.0639 238.198C53.7482 238.176 64.4721 237.995 75.1564 238.245C74.0999 241.667 71.5972 246.132 68.7709 248.514C68.5002 248.52 68.2294 248.526 67.9587 248.526L55.7689 248.51C53.2959 248.51 50.4829 248.767 48.066 248.323C46.8543 248.101 45.7119 247.607 44.8535 246.754C42.605 244.526 43.0375 241.026 43.0706 238.195L43.0639 238.198Z" fill="#DFEAF5"/>
<path d="M164.477 235.304C168.271 235.336 172.078 235.186 175.874 235.189C181.345 235.189 186.81 235.323 192.277 235.167C192.191 239.329 192.231 242.567 195.437 245.767C196.517 246.845 197.818 247.785 199.165 248.542C193.466 248.604 187.767 248.514 182.068 248.52C179.176 248.523 174.983 248.904 172.259 248.345C170.866 248.06 169.641 247.31 168.637 246.373C165.633 243.567 164.474 239.739 164.477 235.851V235.304Z" fill="#DFEAF5"/>
<path d="M157.065 210.78C161.149 210.536 165.332 210.695 169.43 210.708C176.991 210.755 184.551 210.758 192.112 210.717C192.119 216.83 192.165 222.945 192.244 229.058L161.284 229.082C162.163 227.636 165.048 225.714 166.395 224.426C170.493 220.517 172.494 215.839 174.636 210.851L163.698 210.867C161.499 210.867 159.247 210.973 157.062 210.78H157.065Z" fill="#73A8F2"/>
<path d="M124.055 237.236L145.895 237.211C149.167 237.204 155.216 236.832 158.059 237.464C159.264 238.907 161.539 246.36 162.031 248.445L117.874 248.329C121.575 245.029 123.757 242.164 124.055 237.236Z" fill="#3E69CC"/>
<path d="M83.5692 235.061L122.136 235.176C122.136 235.432 122.136 235.689 122.136 235.945C122.1 239.745 121.004 243.198 118.065 245.904C116.873 247.001 115.414 248.001 113.77 248.354C111.152 248.92 105.922 248.557 103.036 248.554C95.4355 248.564 87.8317 248.532 80.2312 248.454C80.5911 248.132 80.9411 247.801 81.2877 247.467C84.6522 244.167 83.665 239.251 83.5659 235.061H83.5692Z" fill="#DFEAF5"/>
<path d="M240.641 197.995C243.655 198.992 245.844 200.486 247.267 203.27C247.752 204.223 248.063 205.105 248.168 206.164C248.363 208.123 248.264 210.152 248.261 212.12L248.248 221.883L248.225 233.098C248.218 235.111 248.314 237.17 248.168 239.176C248.109 240.001 247.947 240.776 247.647 241.554C246.633 244.176 244.695 246.401 241.984 247.56C241.413 247.807 240.822 248.007 240.215 248.16C239.607 248.314 238.993 248.42 238.366 248.479C233.611 248.885 227.876 248.595 223 248.598C217.047 248.598 210.942 248.879 205.009 248.52C203.807 248.448 202.615 248.329 201.486 247.914C198.386 246.77 195.899 244.376 194.589 241.514C195.582 241.429 196.665 241.545 197.669 241.554C199.637 241.576 201.608 241.561 203.579 241.557C210.153 241.492 216.73 241.479 223.307 241.511C226.632 241.526 230.448 241.917 233.681 241.236C235.206 240.914 236.606 240.079 237.722 239.061C238.868 238.017 239.894 236.629 240.215 235.142C240.921 231.879 240.479 225.223 240.472 221.608C240.41 213.733 240.469 205.861 240.641 197.989V197.995Z" fill="#FEBE0E"/>
<path d="M79.8613 196.995L79.9867 197.039C80.4027 204.355 78.6561 230.764 75.4007 237.029C64.6272 237.129 53.801 237.107 43.0276 236.939C42.9615 223.636 43.0045 210.336 43.1563 197.033H68.1402C72.0395 197.027 75.9719 197.108 79.8646 196.995H79.8613Z" fill="#FEFEFE"/>
<path d="M52.3879 221.442C54.8873 221.423 57.7664 221.161 60.2262 221.558C60.9063 222.104 61.669 222.667 62.2435 223.311C60.9063 224.251 58.1197 228.395 57.6872 229.864C57.0829 229.529 56.5217 229.136 55.9802 228.714C53.56 226.823 52.6653 224.307 52.3879 221.442Z" fill="#5FC4A0"/>
<path d="M71.7028 214.114C73.697 216.289 74.605 219.07 74.397 221.939C74.2121 224.52 72.9509 227.042 70.8741 228.742C68.5926 230.611 65.4428 231.464 62.4548 231.242C60.7478 231.114 59.1861 230.633 57.6838 229.864C58.1197 228.395 60.903 224.251 62.2402 223.311L63.4486 224.617C64.0528 223.933 64.5613 223.161 65.0928 222.423C67.1366 219.57 69.7845 217.036 71.6962 214.114H71.7028Z" fill="#1AA49B"/>
<path d="M52.3879 221.442C52.4044 218.858 53.5006 216.126 55.267 214.161C55.3826 214.033 55.4981 213.911 55.6203 213.789C55.7425 213.667 55.8646 213.548 55.9934 213.433C56.1222 213.317 56.2509 213.205 56.383 213.095C56.5151 212.986 56.6537 212.88 56.7924 212.776C56.9311 212.673 57.073 212.573 57.215 212.476C57.3603 212.38 57.5056 212.289 57.6541 212.198C57.8027 212.108 57.9546 212.023 58.1065 211.942C58.2584 211.861 58.4135 211.783 58.572 211.708C58.7305 211.633 58.889 211.561 59.0508 211.495C59.2125 211.426 59.3743 211.364 59.5394 211.305C59.7045 211.245 59.8696 211.189 60.038 211.139C60.2063 211.086 60.3747 211.039 60.5431 210.995C60.7115 210.951 60.8832 210.911 61.0549 210.876C61.2266 210.842 61.4016 210.808 61.5732 210.78C61.7482 210.751 61.9199 210.73 62.0982 210.708C62.2732 210.689 62.4482 210.673 62.6232 210.661C66.1956 210.426 69.0912 211.942 71.6995 214.111C69.7846 217.033 67.1399 219.567 65.0962 222.42C64.5646 223.158 64.0561 223.926 63.4519 224.614L62.2435 223.308C61.669 222.664 60.9063 222.101 60.2262 221.554C57.7664 221.158 54.8873 221.42 52.3879 221.439V221.442Z" fill="#F9AA47"/>
<path d="M61.3455 220.158C62.5341 221.008 63.7227 221.861 65.0995 222.423C64.5679 223.161 64.0595 223.929 63.4552 224.617L62.2468 223.311C61.6723 222.667 60.9096 222.104 60.2295 221.558C60.6356 221.101 61.012 220.661 61.3488 220.158H61.3455Z" fill="#FEFEFE"/>
<path d="M83.4734 210.945C101.537 210.723 119.601 210.676 137.664 210.801C144.129 210.808 150.607 210.664 157.068 210.78C159.254 210.97 161.509 210.867 163.705 210.867L174.643 210.851C172.5 215.839 170.499 220.517 166.402 224.426C165.052 225.714 162.169 227.636 161.291 229.082L83.4833 228.967V210.945H83.4734Z" fill="#A6CBF3"/>
<path d="M142.002 215.986C142.871 215.983 143.67 216.123 144.449 216.498C144.591 216.567 144.733 216.642 144.865 216.726C145 216.808 145.129 216.898 145.255 216.992C145.38 217.086 145.499 217.189 145.615 217.295C145.73 217.401 145.839 217.514 145.941 217.632C146.044 217.751 146.14 217.873 146.229 217.998C146.318 218.126 146.4 218.254 146.476 218.389C146.552 218.523 146.618 218.661 146.681 218.801C146.74 218.942 146.793 219.086 146.839 219.232C147.193 220.357 147.097 221.598 146.483 222.626C145.74 223.873 144.581 224.464 143.165 224.82C142.422 224.848 141.768 224.811 141.071 224.542C139.856 224.076 138.932 223.204 138.473 222.036C138.011 220.854 138.07 219.492 138.694 218.37C139.444 217.023 140.546 216.451 142.002 215.986Z" fill="#0A2587"/>
<path d="M84.2097 89.0122L173.332 89.0466L201.453 89.0747C205.653 89.0653 210.12 88.6372 214.293 89.0122C215.855 89.1528 217.195 89.7184 218.321 90.7684C220.844 93.1246 220.533 96.3465 220.513 99.4121C213.973 99.3964 207.432 99.5527 200.888 99.5839L64.3104 99.4402C64.2609 96.3808 64.1387 93.4746 66.6216 91.1122C66.8494 90.8934 67.0937 90.6934 67.3546 90.5059C67.6121 90.3184 67.8828 90.1497 68.1668 89.9997C68.4507 89.8497 68.7413 89.7153 69.0417 89.6028C69.3422 89.4903 69.6526 89.3966 69.9662 89.3216C72.634 88.6747 80.9741 89.0278 84.2064 89.0153L84.2097 89.0122Z" fill="#0F6296"/>
<path d="M196.669 91.2873C197.378 91.2591 198.068 91.306 198.716 91.6091C199.729 92.081 200.469 92.9716 200.779 93.9935C201.093 95.0185 201 96.1653 200.403 97.0841C199.822 97.9809 199 98.3809 197.956 98.6497C197.098 98.6497 196.239 98.5591 195.46 98.1903C194.499 97.7341 193.73 96.9528 193.397 95.981C193.36 95.8716 193.327 95.7591 193.301 95.6466C193.274 95.5341 193.255 95.4185 193.241 95.306C193.228 95.1903 193.222 95.0747 193.218 94.9591C193.218 94.8435 193.222 94.7279 193.235 94.6122C193.245 94.4966 193.264 94.3841 193.288 94.2685C193.311 94.156 193.34 94.0435 193.377 93.9341C193.413 93.8247 193.453 93.7154 193.502 93.6091C193.548 93.5029 193.601 93.3997 193.661 93.2966C194.308 92.1779 195.42 91.631 196.669 91.2966V91.2873Z" fill="#0A2587"/>
<path d="M196.606 92.5246C196.943 92.5184 197.266 92.5434 197.593 92.6184C198.326 92.7902 199.066 93.2215 199.442 93.8496C199.769 94.3933 199.812 95.0308 199.633 95.6246C199.356 96.5496 198.659 97.0152 197.827 97.4871C197.441 97.5121 197.061 97.5339 196.682 97.4527C195.965 97.2996 195.278 96.8839 194.905 96.2746C194.539 95.6777 194.503 94.9715 194.714 94.3215C195.021 93.3715 195.724 92.9652 196.606 92.5215V92.5246Z" fill="#FEFEFE"/>
<path d="M206.102 91.2997C207.105 91.2216 208.036 91.2872 208.928 91.7716C209.037 91.831 209.142 91.8966 209.245 91.9654C209.347 92.0341 209.446 92.1091 209.539 92.1904C209.634 92.2685 209.724 92.3528 209.806 92.4435C209.892 92.531 209.971 92.6247 210.047 92.7216C210.123 92.8185 210.192 92.9185 210.255 93.0216C210.318 93.1247 210.377 93.231 210.43 93.3403C210.483 93.4497 210.529 93.5591 210.569 93.6747C210.608 93.7872 210.641 93.9028 210.671 94.0185C210.701 94.1528 210.724 94.2872 210.74 94.4216C210.757 94.556 210.764 94.6934 210.767 94.8278C210.767 94.9653 210.764 95.0997 210.75 95.2372C210.737 95.3716 210.717 95.5091 210.691 95.6403C210.665 95.7747 210.628 95.9059 210.589 96.0372C210.546 96.1684 210.499 96.2966 210.443 96.4216C210.387 96.5466 210.324 96.6716 210.258 96.7903C210.189 96.909 210.116 97.0278 210.034 97.1403C209.347 98.0872 208.403 98.5528 207.231 98.7497C206.511 98.7059 205.828 98.634 205.167 98.3403C204.028 97.8372 203.104 96.9528 202.731 95.7997C202.443 94.9122 202.549 93.9185 203.051 93.1216C203.738 92.0247 204.854 91.5716 206.112 91.3091L206.102 91.2997Z" fill="#0A2587"/>
<path d="M206.148 92.5341C206.696 92.5122 207.26 92.4653 207.782 92.6497C207.858 92.6778 207.931 92.7059 208.003 92.7403C208.076 92.7747 208.145 92.8122 208.215 92.8528C208.284 92.8934 208.35 92.9372 208.413 92.9841C208.475 93.0309 208.538 93.0809 208.598 93.1309C208.657 93.1841 208.713 93.2372 208.766 93.2966C208.819 93.3528 208.868 93.4153 208.915 93.4747C208.961 93.5372 209.004 93.5997 209.047 93.6684C209.09 93.7372 209.123 93.8028 209.156 93.8715C209.443 94.484 209.407 95.1934 209.132 95.8028C208.736 96.684 208.096 97.0653 207.198 97.434C206.726 97.4246 206.263 97.409 205.814 97.2528C205.134 97.0215 204.513 96.5309 204.21 95.9028C203.946 95.3559 203.946 94.7434 204.167 94.1872C204.52 93.2997 205.286 92.9216 206.144 92.5341H206.148Z" fill="#FEFEFE"/>
<path d="M194.592 241.517C194.199 240.545 193.978 239.654 193.902 238.611C193.552 233.661 193.879 228.536 193.872 223.57L193.813 212.67C193.806 210.226 193.582 207.505 194.189 205.117C194.81 202.667 196.523 200.377 198.815 199.08C200.076 198.367 201.4 197.98 202.849 197.833C205.676 197.552 208.627 197.699 211.47 197.705L227.011 197.783C229.824 197.802 238.359 197.433 240.637 197.992C240.462 205.864 240.406 213.736 240.469 221.611C240.475 225.223 240.918 231.882 240.211 235.145C239.888 236.632 238.861 238.02 237.719 239.064C236.603 240.082 235.203 240.917 233.677 241.239C230.445 241.92 226.628 241.529 223.303 241.514C216.726 241.479 210.153 241.495 203.576 241.56C201.608 241.564 199.637 241.576 197.666 241.557C196.662 241.548 195.579 241.432 194.585 241.517H194.592Z" fill="#FEBE0D"/>
<path d="M232.076 207.392C232.479 207.364 232.878 207.348 233.281 207.423C234.724 207.695 237.662 210.858 238.471 212.058C238.94 212.754 239.274 213.801 239.023 214.623C238.821 215.289 238.035 216.064 237.54 216.583C233.77 220.523 229.497 224.129 225.486 227.854C223.366 229.823 219.589 234.082 217.185 235.367L217.073 235.195C216.865 235.479 216.99 235.401 216.756 235.495C214.501 234.851 210.836 230.714 209.056 228.998C206.795 226.782 203.483 224.592 202.159 221.726C204.285 219.658 206.428 217.604 208.588 215.567C211.09 217.951 213.642 220.289 216.244 222.576C219.064 219.729 222.006 216.986 224.822 214.136C226.701 212.236 228.451 210.13 230.488 208.383C230.97 207.967 231.495 207.676 232.073 207.395L232.076 207.392Z" fill="#0A2587"/>
<path d="M232.482 208.858C233.575 209.189 234.714 210.433 235.477 211.22C236.223 211.992 237.309 213.158 237.213 214.267C237.161 214.87 236.434 215.551 236.002 215.992C232.816 219.258 229.124 222.348 225.773 225.504C222.719 228.383 219.86 231.47 216.697 234.239C213.946 231.989 211.49 229.411 208.934 226.967C207.214 225.414 205.445 223.889 203.837 222.229C205.365 220.664 206.944 219.126 208.386 217.492C211.094 219.758 213.58 222.286 216.215 224.626C219.665 221.52 222.986 218.164 226.242 214.873C228.263 212.833 230.22 210.655 232.485 208.855L232.482 208.858Z" fill="#FEFEFE"/>
<path d="M64.3433 101.784L220.771 101.878L220.843 196.28L210.304 196.295C207.297 196.302 203.853 196.005 200.944 196.767C200.697 196.833 200.456 196.905 200.211 196.986C199.97 197.067 199.732 197.155 199.495 197.248C199.26 197.342 199.029 197.445 198.798 197.555C198.57 197.664 198.346 197.78 198.125 197.902C197.903 198.023 197.689 198.155 197.477 198.289C197.266 198.427 197.058 198.567 196.857 198.717C196.655 198.867 196.457 199.02 196.266 199.183C196.074 199.342 195.889 199.511 195.708 199.683C192.911 202.327 192.224 205.348 192.251 208.97L126.392 208.876L98.3573 208.911C93.4477 208.911 88.5249 208.98 83.6185 208.858C83.6119 208.067 83.5657 207.255 83.602 206.467C83.1926 201.32 83.4964 194.952 83.5129 189.724C83.5195 187.655 83.7242 185.333 83.3511 183.296C83.2521 182.764 83.0011 182.242 82.7766 181.749C81.6276 180.217 80.3994 179.161 78.3556 178.864C76.7807 178.636 75.087 178.755 73.4989 178.764C70.4481 178.783 67.394 178.852 64.3466 178.789V101.79L64.3433 101.784Z" fill="#FEFEFE"/>
<path d="M132.401 147.058C140.064 146.965 147.764 147.071 155.43 147.077C159.505 147.08 163.751 146.812 167.799 147.083C168.353 147.121 168.644 147.293 169.01 147.693C169.109 147.958 169.202 148.171 169.136 148.458C169.01 148.983 168.621 149.243 168.162 149.487C164.619 149.727 133.223 149.968 132.22 149.487C131.747 149.258 131.622 148.912 131.53 148.468C131.691 147.887 132.012 147.53 132.401 147.065V147.058Z" fill="#DFEAF5"/>
<path d="M154.341 140.88L174.207 140.965C177.813 140.965 181.471 140.821 185.073 140.943C185.631 140.962 186.403 140.987 186.889 141.258C187.236 141.452 187.384 141.677 187.411 142.055C187.44 142.474 187.242 142.893 186.952 143.19C185.789 143.783 168.333 143.365 165.362 143.362L141.339 143.277C138.76 143.265 136.155 143.455 133.58 143.377C133.127 143.365 132.642 143.34 132.236 143.133C132.028 143.03 131.912 142.796 131.866 142.587C131.77 142.158 131.949 141.493 132.312 141.202C132.566 140.999 132.923 140.94 133.243 140.921C135.363 140.796 137.578 140.94 139.711 140.93L154.341 140.88Z" fill="#DFEAF5"/>
<path d="M133.725 134.634C143.297 134.571 152.872 134.955 162.443 134.827C172.837 134.69 183.201 134.609 193.595 134.649C196.49 134.662 201.796 134.321 204.451 134.849C204.787 135.09 205.019 135.215 205.101 135.646C205.17 136.024 204.992 136.605 204.725 136.896C204.378 137.274 204.196 137.265 203.698 137.346L148.626 137.309C143.647 137.271 138.631 137.502 133.662 137.365C133.283 137.355 132.827 137.34 132.487 137.159C132.431 137.13 132.378 137.096 132.325 137.062C132.272 137.027 132.223 136.99 132.177 136.949C132.127 136.909 132.084 136.868 132.041 136.824C131.998 136.78 131.955 136.734 131.919 136.687C131.88 136.64 131.847 136.59 131.813 136.537C131.78 136.487 131.751 136.434 131.724 136.377C131.698 136.324 131.672 136.268 131.652 136.212C131.632 136.155 131.612 136.096 131.599 136.04C131.652 135.665 131.721 135.427 131.998 135.143C132.487 134.64 133.055 134.671 133.732 134.637L133.725 134.634Z" fill="#DFEAF5"/>
<path d="M164.92 113.068C171.998 112.971 179.107 113.137 186.189 113.153C191.709 113.165 197.293 112.984 202.806 113.153C203.199 113.165 203.893 113.159 204.226 113.39C204.824 113.806 204.926 114.931 204.936 115.559C204.962 117.109 205.454 122.199 204.381 123.256C201.529 123.918 196.21 123.596 193.129 123.599C186.133 123.627 179.137 123.606 172.14 123.537L147.186 123.556C143.039 123.568 138.777 123.777 134.64 123.568C134.075 123.54 133.236 123.515 132.791 123.152C132.418 122.849 132.332 122.399 132.282 121.965C132.041 119.881 131.718 114.981 133.134 113.368C135.122 112.787 143.584 113.137 146.255 113.137L164.92 113.071V113.068Z" fill="#DFEAF5"/>
<path d="M82.7766 181.746C82.8129 181.677 82.8525 181.611 82.8856 181.542C83.3115 180.664 83.1233 178.902 83.12 177.936L83.0639 169.746C83.054 168.371 82.879 166.855 83.1002 165.499C83.1893 164.955 83.328 164.477 83.7176 164.055C84.5925 163.802 85.4411 163.674 86.3556 163.639C89.4229 163.521 116.163 163.424 117.084 163.883C117.501 164.089 117.669 164.33 117.775 164.752C118.29 166.808 117.946 173.58 117.943 176.192C117.936 179.477 118.144 182.858 117.926 186.136C117.884 186.789 117.824 187.539 117.487 188.12C117.302 188.442 116.609 188.57 116.256 188.633C113.459 189.127 108.797 188.77 105.809 188.749C98.42 188.655 91.0308 188.611 83.6417 188.611L83.6615 199.986C83.6681 202.12 83.7902 204.336 83.6053 206.464C83.1959 201.317 83.4997 194.948 83.5162 189.72C83.5228 187.652 83.7275 185.33 83.3544 183.292C83.2554 182.761 83.0044 182.239 82.7799 181.746H82.7766Z" fill="#A0DBFF"/>
<path d="M106.073 172.486C106.248 172.53 106.509 172.577 106.671 172.661C107.09 172.877 107.123 172.946 107.246 173.352C106.803 174.505 100.949 179.38 99.6979 180.308C97.915 178.986 96.3731 177.171 94.6925 175.705C94.293 175.352 93.8473 174.996 93.4907 174.605C93.21 174.299 93.1902 174.174 93.2332 173.78C93.5798 173.524 93.6492 173.514 94.0883 173.464C95.9967 174.177 98.0734 176.733 99.5691 178.146C101.874 176.48 103.967 174.383 106.07 172.489L106.073 172.486Z" fill="#0A2587"/>
<path d="M168.934 163.664C174.243 163.433 179.645 163.621 184.967 163.624C190.118 163.63 195.364 163.446 200.505 163.655C201.542 163.699 202.199 163.933 202.889 164.661C203.13 165.439 203.209 166.221 203.246 167.027C203.414 171.017 203.17 175.055 203.186 179.052C203.196 181.136 203.589 184.936 203.209 186.811C203.031 187.686 202.516 188.117 201.783 188.617C199.366 188.758 196.916 188.67 194.493 188.664L182.551 188.658L174.088 188.67C172.424 188.67 170.641 188.805 169.004 188.536C168.508 188.455 167.944 188.37 167.64 187.958C167.445 187.202 167.346 186.442 167.307 185.667C167.224 184.024 167.049 165.174 167.472 164.536C167.832 163.996 168.324 163.839 168.934 163.674V163.664Z" fill="#A0DBFF"/>
<path d="M191.498 171.993C191.769 172.064 192.04 172.186 192.244 172.377C192.561 172.677 192.518 172.83 192.456 173.205C191.277 174.674 186.304 179.174 184.706 180.224C182.881 178.727 181.177 177.008 179.477 175.38C178.866 174.799 178.496 174.439 178.423 173.608L178.757 173.286L178.661 173.552L178.476 173.439L178.74 173.283C180.229 173.474 183.607 177.214 184.789 178.371C186.849 176.136 189.164 173.974 191.495 171.993H191.498Z" fill="#0A2587"/>
<path d="M126.257 163.686C130.331 163.505 134.458 163.655 138.542 163.671C144.733 163.705 150.924 163.708 157.114 163.68C158.158 163.68 159.683 163.527 160.429 164.33C160.667 164.586 160.674 164.855 160.703 165.18C160.984 168.393 160.723 171.821 160.703 175.055C160.684 178.996 160.885 183.067 160.548 186.995C160.099 187.717 159.64 188.217 158.953 188.752C152.971 189.024 146.833 188.77 140.834 188.761C137.948 188.758 135.059 188.733 132.17 188.761C130.414 188.777 128.614 188.886 126.861 188.799C126.28 188.77 125.801 188.68 125.276 188.439C124.887 187.777 124.788 186.883 124.725 186.136C124.533 183.836 124.296 165.936 124.807 164.821C125.058 164.277 125.722 163.924 126.257 163.686Z" fill="#E85D56"/>
<path d="M148.705 172.146C148.887 172.161 149.111 172.236 149.289 172.277C149.676 172.618 149.715 172.611 149.785 173.099C149.27 174.089 142.795 179.655 141.606 180.261C140.137 178.774 138.655 177.349 137.07 175.971C136.717 175.674 136.439 175.396 136.152 175.039C136.046 174.546 136.04 174.283 136.159 173.792L136.347 173.68C137.555 173.899 140.655 177.214 141.804 178.152C144.182 176.483 146.453 174.033 148.702 172.146H148.705Z" fill="#0A2587"/>
<path d="M99.7143 112.112C105.334 111.384 111.3 113.096 115.761 116.321C116.081 116.553 116.394 116.793 116.701 117.04C117.009 117.287 117.309 117.54 117.603 117.799C117.897 118.059 118.184 118.327 118.465 118.602C118.745 118.877 119.019 119.156 119.283 119.443C119.551 119.731 119.808 120.021 120.059 120.321C120.31 120.618 120.555 120.924 120.789 121.234C121.023 121.543 121.251 121.859 121.472 122.177C121.69 122.496 121.902 122.821 122.106 123.152C122.308 123.484 122.503 123.815 122.687 124.156C122.872 124.493 123.051 124.837 123.216 125.184C123.384 125.531 123.543 125.881 123.691 126.234C123.84 126.587 123.982 126.946 124.114 127.306C124.246 127.665 124.368 128.031 124.48 128.396C124.593 128.762 124.695 129.131 124.791 129.502C124.883 129.874 124.969 130.246 125.042 130.621C125.118 130.996 125.18 131.371 125.236 131.749C126.065 137.73 124.434 143.627 120.522 148.374C116.5 153.255 110.973 156.265 104.475 157.024C98.5719 157.555 92.5463 156.152 87.8216 152.68C82.704 148.921 79.2537 142.977 78.5042 136.896C77.8142 131.305 79.4617 125.281 83.1794 120.856C87.3825 115.859 93.0185 112.856 99.7143 112.109V112.112Z" fill="#0A2587"/>
<path d="M100.923 114.153C105.73 113.84 110.551 115.44 114.344 118.178C119.155 121.649 122.229 126.374 122.995 132.09C123.695 137.318 122.275 142.768 118.805 146.915C114.873 151.618 109.59 154.321 103.323 154.987C98.0141 155.321 92.9361 153.721 88.7925 150.58C88.5184 150.368 88.2477 150.149 87.9836 149.924C87.7194 149.699 87.4619 149.468 87.211 149.23C86.96 148.993 86.7124 148.752 86.4747 148.502C86.2337 148.255 86.0026 148.002 85.7747 147.743C85.5469 147.483 85.329 147.221 85.1144 146.952C84.8998 146.684 84.6951 146.409 84.497 146.13C84.2989 145.852 84.1074 145.571 83.9225 145.284C83.7376 144.996 83.5626 144.705 83.3909 144.409C83.2225 144.115 83.0607 143.815 82.9056 143.512C82.7504 143.209 82.6051 142.902 82.4664 142.593C82.3278 142.284 82.199 141.971 82.0768 141.655C81.9547 141.34 81.8391 141.021 81.7335 140.702C81.6278 140.38 81.5288 140.059 81.4396 139.734C81.3505 139.409 81.2679 139.08 81.1953 138.752C81.1227 138.424 81.0566 138.093 81.0005 137.762C80.9444 137.43 80.8981 137.096 80.8585 136.762C80.2873 131.421 81.9217 125.827 85.5337 121.662C89.466 117.131 94.8148 114.693 100.923 114.146V114.153Z" fill="white"/>
<path d="M91.1598 144.283C88.4854 141.699 87.168 138.496 87.2341 134.874C87.31 130.759 88.6934 127.237 91.8729 124.349C94.7124 121.768 98.123 120.571 102.045 120.674C106.222 120.787 110.039 122.252 112.928 125.152C115.582 127.815 117.062 131.621 116.916 135.277C116.906 135.493 116.893 135.712 116.87 135.927C116.85 136.143 116.824 136.359 116.794 136.574C116.764 136.79 116.728 137.002 116.688 137.218C116.649 137.43 116.603 137.643 116.553 137.855C116.504 138.068 116.447 138.277 116.385 138.487C116.325 138.696 116.259 138.902 116.187 139.109C116.117 139.315 116.041 139.518 115.959 139.724C115.88 139.927 115.794 140.127 115.705 140.327C115.615 140.527 115.52 140.724 115.421 140.921C115.322 141.118 115.216 141.308 115.11 141.499C115.001 141.69 114.889 141.88 114.77 142.065C114.651 142.252 114.532 142.433 114.404 142.615C114.278 142.796 114.146 142.974 114.014 143.149C113.879 143.324 113.74 143.496 113.598 143.668C113.456 143.837 113.308 144.005 113.159 144.168C113.007 144.33 112.852 144.49 112.697 144.646C112.561 144.924 112.637 144.827 112.367 145.071C109.725 147.449 104.977 148.874 101.375 148.668C97.8094 148.462 93.5469 146.874 91.1598 144.287V144.283Z" fill="#FEFEFE"/>
<path d="M100.768 124.727C101.913 124.634 102.963 124.687 104.023 125.14C104.185 125.209 104.34 125.284 104.492 125.365C104.644 125.446 104.792 125.537 104.934 125.634C105.076 125.731 105.215 125.834 105.347 125.943C105.479 126.052 105.605 126.168 105.727 126.29C105.846 126.412 105.961 126.537 106.067 126.671C106.173 126.802 106.272 126.94 106.364 127.081C106.457 127.221 106.539 127.368 106.618 127.518C106.694 127.668 106.764 127.821 106.823 127.977C106.886 128.137 106.939 128.296 106.981 128.459C107.024 128.621 107.061 128.787 107.087 128.952C107.114 129.118 107.133 129.287 107.143 129.456C107.153 129.624 107.153 129.793 107.143 129.962C107.133 130.131 107.117 130.299 107.09 130.465C107.064 130.631 107.028 130.796 106.985 130.962C106.942 131.124 106.889 131.287 106.83 131.446C106.77 131.606 106.701 131.759 106.622 131.912C105.826 133.474 104.429 134.284 102.769 134.849C101.672 135.096 100.51 134.937 99.49 134.477C98.1792 133.887 97.2448 132.752 96.7826 131.468C96.2807 130.074 96.36 128.596 97.0995 127.293C97.9085 125.868 99.1565 125.149 100.761 124.734L100.768 124.727Z" fill="#0A2587"/>
<path d="M91.1597 144.283C92.1502 141.234 93.7779 138.521 96.8617 136.999C99.4568 135.715 102.64 135.612 105.403 136.474C108.348 137.396 110.385 139.58 111.706 142.162C112.109 142.949 112.459 143.799 112.697 144.646C112.561 144.924 112.637 144.827 112.366 145.071C109.725 147.449 104.977 148.874 101.375 148.668C97.8093 148.462 93.5468 146.874 91.1597 144.287V144.283Z" fill="#0A2587"/>
<defs>
<linearGradient id="paint0_linear_275_2221" x1="113.017" y1="40.1877" x2="119.371" y2="40.5156" gradientUnits="userSpaceOnUse">
<stop stop-color="#074EA1"/>
<stop offset="1" stop-color="#176AB9"/>
</linearGradient>
</defs>
</svg>
