<svg width="25" height="25" viewBox="0 0 25 25" fill="none" xmlns="http://www.w3.org/2000/svg">
<g clip-path="url(#clip0_1289_883)">
<path d="M14.2605 0L14.6697 0.152685C17.3122 2.55839 20.0837 4.90301 22.6619 7.3875C22.9531 7.66783 23.3464 7.99763 23.4657 8.38911C23.9709 10.0509 21.8545 10.9536 20.8049 9.68083L14.0348 3.4177L6.85367 9.98925C5.33548 11.0336 3.69006 9.13422 4.93055 7.77654C7.76569 5.26396 10.4895 2.60969 13.3638 0.152685L13.773 0H14.2611H14.2605Z" fill="#36AFFA"/>
<path d="M0 12.2887C0.144357 12.0511 0.308287 11.8038 0.613516 11.7555C1.03313 11.6895 2.37944 11.7213 2.79477 11.8147C3.77101 12.034 4.42979 12.8915 4.49524 13.8717C4.34783 16.7947 4.68486 19.8985 4.49524 22.7995C4.41817 23.9795 3.61442 24.8662 2.41675 24.9664C2.01488 25 0.987253 25.0226 0.613516 24.964C0.308287 24.9157 0.144357 24.6684 0 24.4308L0 12.2887Z" fill="#36AFFA"/>
<path d="M21.5378 0C21.6986 0.0647384 22.0748 0.393316 22.0748 0.560659V4.87614L17.7258 0.905116C17.5527 0.50386 17.8891 0.172228 18.2169 0H21.5378Z" fill="#36AFFA"/>
<path d="M5.95801 23.5043V13.8736C7.801 12.563 10.2037 12.6509 12.01 13.9756C12.2889 14.1802 12.6443 14.6101 12.9783 14.6669C14.2922 14.7836 15.7749 14.5509 17.0686 14.6792C18.8412 14.8551 18.8614 17.4476 17.0221 17.6064C15.0745 17.7744 12.8981 17.4684 10.9267 17.6156C10.1223 17.8538 10.1798 18.9256 11.0123 19.0685C13.0963 18.9323 15.4042 19.2463 17.4619 19.0685C17.8735 19.0331 18.2326 18.8499 18.5366 18.5812L22.4887 13.6525C23.7634 12.4891 25.6125 13.8595 24.8008 15.4249C23.2686 17.4299 21.9932 19.8326 20.4353 21.7937C19.6321 22.8044 18.4644 23.4091 17.1689 23.5062L5.95862 23.5043H5.95801Z" fill="#36AFFA"/>
<path d="M16.2142 13.2152V10.8504C16.2142 10.829 16.0337 10.5187 15.9958 10.4833C15.931 10.4229 15.69 10.3062 15.6007 10.2922C15.0202 10.2012 13.1974 10.2311 12.5735 10.2873C12.3991 10.3032 12.1826 10.3661 12.0511 10.4833C11.9917 10.5365 11.8186 10.8418 11.8186 10.8986V12.1421C10.4583 11.4953 8.89541 11.2773 7.4231 11.6541L7.42188 11.4452L14.0329 5.41663L20.5987 11.4941V13.6689L19.6078 14.8727C19.212 14.1856 18.6279 13.5999 17.851 13.3605C17.7116 13.3178 17.3372 13.2158 17.2143 13.2158H16.213L16.2142 13.2152Z" fill="#36AFFA"/>
<path d="M14.7492 11.7518V13.2152H13.357L13.2842 13.1419V11.7518H14.7492Z" fill="#36AFFA"/>
</g>
<defs>
<clipPath id="clip0_1289_883">
<rect width="25" height="25" fill="white"/>
</clipPath>
</defs>
</svg>
