<svg width="17" height="17" viewBox="0 0 17 17" fill="none" xmlns="http://www.w3.org/2000/svg">
<g clip-path="url(#clip0_270_934)">
<path d="M17 3.88492C16.9459 4.12027 16.9044 4.35936 16.8358 4.59055C16.6641 5.17019 16.3449 5.66251 15.9192 6.0883C14.4794 7.52783 13.0428 8.97111 11.5992 10.4073C10.4644 11.5362 8.90108 11.8107 7.4795 11.1096C7.14821 10.9462 6.84935 10.7013 6.56711 10.4581C6.26699 10.1994 6.26949 9.76406 6.53011 9.47591C6.78616 9.19316 7.21887 9.16031 7.51358 9.42518C7.85443 9.73121 8.22687 9.96532 8.68577 10.0381C9.34668 10.1433 9.93527 9.98361 10.447 9.54909C10.5018 9.50252 10.5534 9.45221 10.6041 9.40148C12.0402 7.96568 13.4772 6.53072 14.9116 5.09326C15.7081 4.29491 15.8066 3.13895 15.159 2.27033C14.4166 1.27529 12.968 1.11936 12.0518 1.96013C11.5102 2.45744 11.0044 2.99384 10.4831 3.51318C10.1851 3.81007 9.89037 4.10987 9.59068 4.40468C9.27352 4.71654 8.84331 4.72985 8.55442 4.44169C8.2647 4.15312 8.2755 3.72109 8.59058 3.40507C9.40321 2.59008 10.2142 1.77343 11.0368 0.968839C11.588 0.429532 12.2609 0.12807 13.0253 0.0303542C13.0565 0.0261961 13.0864 0.0103953 13.1168 0C13.3379 0 13.5595 0 13.7806 0C13.8172 0.0103953 13.8534 0.0245328 13.8908 0.0303542C15.3273 0.251565 16.3033 1.04285 16.8034 2.4063C16.899 2.66659 16.9364 2.94893 17.0004 3.22087V3.88492H17Z" fill="#2E2E48"/>
<path d="M7.64912 5.91078C8.51038 5.92741 9.3359 6.25965 10.0251 6.92203C10.3198 7.2052 10.3393 7.62725 10.0766 7.92039C9.81641 8.21021 9.38162 8.24265 9.08151 7.96738C8.6197 7.54409 8.09471 7.30707 7.46082 7.33285C6.96077 7.35323 6.51975 7.52496 6.15105 7.8601C5.88128 8.10543 5.62855 8.36989 5.37042 8.6281C4.27098 9.72709 3.16946 10.824 2.07376 11.9267C1.24159 12.7646 1.20086 14.0203 1.96818 14.8782C2.74756 15.7493 4.1043 15.8345 4.95891 15.0333C5.65682 14.3788 6.31939 13.6873 6.9961 13.0103C7.20726 12.7991 7.44752 12.6956 7.74638 12.7821C8.2269 12.9209 8.41312 13.496 8.10677 13.891C8.0864 13.9172 8.06562 13.9434 8.04234 13.9667C7.32864 14.6769 6.6353 15.4091 5.89666 16.0923C3.97295 17.8712 0.760664 16.9007 0.12677 14.3588C-0.18415 13.1122 0.0739801 11.9779 0.963926 11.0548C2.34187 9.62522 3.75763 8.23142 5.17423 6.8397C5.80397 6.22098 6.67687 5.90829 7.64995 5.91078H7.64912Z" fill="#2E2E48"/>
</g>
<defs>
<clipPath id="clip0_270_934">
<rect width="17" height="17" fill="white"/>
</clipPath>
</defs>
</svg>
