<svg width="274" height="280" viewBox="0 0 274 280" fill="none" xmlns="http://www.w3.org/2000/svg">
<path d="M269.592 108.857C266.578 71.6255 265.074 53.0065 258.07 40.9628C238.003 6.47412 179.67 -1.7253 142.829 1.41943C93.507 5.62863 37.078 34.0711 12.2444 88.9793C-10.315 138.851 0.0853643 195.304 34.0762 232.238C96.3876 299.932 224.922 287.846 256.323 243.43C268.852 225.699 269.756 197.384 271.084 155.791C271.721 135.767 270.478 119.812 269.592 108.87V108.857Z" fill="#E7F5FE"/>
<path d="M245.96 23.5785C242.77 20.9325 237.936 19.4909 233.843 19.199C204.855 17.1369 200.628 77.9088 205.068 91.4913C209.513 105.074 206.632 109.533 183.806 116.637C160.98 123.742 171.932 137.422 174.709 145.426C177.493 153.425 182.999 160.183 166.359 168.133C149.718 176.083 155.497 181.01 155.497 181.01C155.497 181.01 186.189 212.494 184.491 202.415C182.793 192.336 185.868 177.111 213.382 175.955C225.232 175.456 243.382 169.787 247.403 157.056C248.337 154.094 248.992 149.562 248.276 146.497C247.288 142.239 244.504 138.887 242.958 134.885C239.356 125.548 248.391 118.717 253.595 112.477C256.312 109.222 259.022 105.877 261.102 102.166C265.42 94.4536 263.801 86.1873 259.101 79.0827C256.845 75.6764 253.716 72.0573 252.734 67.994C251.678 63.6267 252.6 57.6596 252.849 53.1706C253.043 49.6487 253.382 46.1391 253.182 42.605C252.812 36.0358 251.284 28.0066 245.954 23.5846L245.96 23.5785Z" fill="#9DC8BE"/>
<mask id="mask0_1765_3572" style="mask-type:luminance" maskUnits="userSpaceOnUse" x="154" y="19" width="110" height="186">
<path d="M245.96 23.5785C242.77 20.9325 237.936 19.4909 233.843 19.199C204.855 17.1369 200.628 77.9088 205.068 91.4913C209.513 105.074 206.632 109.533 183.806 116.637C160.98 123.742 171.932 137.422 174.709 145.426C177.493 153.425 182.999 160.183 166.359 168.133C149.718 176.083 155.497 181.01 155.497 181.01C155.497 181.01 186.189 212.494 184.491 202.415C182.793 192.336 185.868 177.111 213.382 175.955C225.232 175.456 243.382 169.787 247.403 157.056C248.337 154.094 248.992 149.562 248.276 146.497C247.288 142.239 244.504 138.887 242.958 134.885C239.356 125.548 248.391 118.717 253.595 112.477C256.312 109.222 259.022 105.877 261.102 102.166C265.42 94.4536 263.801 86.1873 259.101 79.0827C256.845 75.6764 253.716 72.0573 252.734 67.994C251.678 63.6267 252.6 57.6596 252.849 53.1706C253.043 49.6487 253.382 46.1391 253.182 42.605C252.812 36.0358 251.284 28.0066 245.954 23.5846L245.96 23.5785Z" fill="white"/>
</mask>
<g mask="url(#mask0_1765_3572)">
<g style="mix-blend-mode:soft-light" opacity="0.8">
<path d="M153.09 198.674C152.89 198.747 152.666 198.662 152.568 198.467C152.459 198.254 152.538 197.999 152.75 197.889C152.878 197.822 165.801 191.004 180.21 179.781C193.491 169.435 210.793 153.127 217.797 134.161C223.649 118.322 228.986 92.1423 232.436 62.3312C235.535 35.5979 236.02 15.8293 234.704 12.1614C234.626 11.9364 234.741 11.693 234.965 11.614C235.19 11.5349 235.432 11.6505 235.511 11.8755C237.051 16.1699 236.075 38.3777 233.285 62.4407C229.823 92.3187 224.474 118.571 218.597 134.472C211.52 153.626 194.091 170.061 180.719 180.481C166.25 191.752 153.272 198.595 153.139 198.662C153.12 198.674 153.102 198.68 153.084 198.686L153.09 198.674Z" fill="white"/>
<path d="M232.388 67.5135C232.163 67.5926 231.939 67.5317 231.86 67.3067C231.751 67.0147 220.95 37.8545 207.014 31.273C206.802 31.1696 206.711 30.9263 206.814 30.7134C206.917 30.5005 207.172 30.4154 207.384 30.5127C221.635 37.2462 232.218 65.7921 232.66 67.0086C232.739 67.2337 232.612 67.4283 232.388 67.5135Z" fill="white"/>
<path d="M227.118 101.333C226.954 101.394 226.76 101.345 226.645 101.199C226.493 101.017 226.518 100.743 226.706 100.597C226.784 100.53 234.741 93.9852 244.559 88.4926C257.822 81.0717 267.986 78.9976 274.772 82.3369C274.984 82.4403 275.075 82.7019 274.966 82.9148C274.863 83.1277 274.602 83.2189 274.39 83.1094C258.78 75.4331 227.567 101.005 227.251 101.26C227.215 101.29 227.166 101.315 227.124 101.333H227.118Z" fill="white"/>
<path d="M192.484 170.45C192.442 170.469 192.393 170.475 192.345 170.475C192.108 170.475 191.914 170.286 191.908 170.049C191.908 169.921 191.684 157.415 189.076 144.234C186.681 132.148 181.738 117.008 171.787 113.523C171.562 113.444 171.447 113.2 171.526 112.975C171.605 112.75 171.847 112.635 172.072 112.714C180.374 115.621 186.377 126.175 189.919 144.082C192.545 157.336 192.763 169.915 192.769 170.043C192.769 170.231 192.654 170.396 192.484 170.457V170.45Z" fill="white"/>
<path d="M210.193 150.238C210.017 150.299 209.817 150.244 209.701 150.086C209.562 149.897 209.598 149.623 209.792 149.484C211.175 148.462 243.729 124.453 256.427 126.747C256.658 126.789 256.815 127.014 256.773 127.245C256.731 127.477 256.506 127.635 256.276 127.592C243.941 125.366 210.635 149.928 210.302 150.177C210.265 150.201 210.229 150.22 210.193 150.238Z" fill="white"/>
</g>
</g>
<path d="M271.393 113.085C269.283 109.514 265.22 106.515 261.472 104.855C234.892 93.0788 210.41 148.826 210.01 163.115C209.61 177.403 205.395 180.62 181.519 179.562C157.644 178.504 163.332 195.091 163.254 203.564C163.175 212.037 166.08 220.267 147.735 222.098C129.396 223.929 133.174 230.529 133.174 230.529C133.174 230.529 151.434 270.577 153.235 260.51C155.042 250.449 163.066 237.165 189.349 245.419C200.671 248.971 219.658 249.799 227.736 239.184C229.616 236.715 231.757 232.676 232.121 229.543C232.624 225.206 231.138 221.101 231.035 216.806C230.792 206.8 241.605 203.437 248.604 199.331C252.26 197.19 255.941 194.963 259.149 192.178C265.814 186.387 267.082 178.06 265.056 169.775C264.086 165.803 262.358 161.338 262.8 157.178C263.279 152.713 266.16 147.409 267.912 143.267C269.289 140.019 270.787 136.831 271.788 133.437C273.661 127.13 274.923 119.058 271.4 113.085H271.393Z" fill="#CAE7E0"/>
<mask id="mask1_1765_3572" style="mask-type:luminance" maskUnits="userSpaceOnUse" x="132" y="103" width="142" height="160">
<path d="M271.393 113.085C269.283 109.514 265.22 106.515 261.472 104.855C234.892 93.0788 210.41 148.826 210.01 163.115C209.61 177.403 205.395 180.62 181.519 179.562C157.644 178.504 163.332 195.091 163.254 203.564C163.175 212.037 166.08 220.267 147.735 222.098C129.396 223.929 133.174 230.529 133.174 230.529C133.174 230.529 151.434 270.577 153.235 260.51C155.042 250.449 163.066 237.165 189.349 245.419C200.671 248.971 219.658 249.799 227.736 239.184C229.616 236.715 231.757 232.676 232.121 229.543C232.624 225.206 231.138 221.101 231.035 216.806C230.792 206.8 241.605 203.437 248.604 199.331C252.26 197.19 255.941 194.963 259.149 192.178C265.814 186.387 267.082 178.06 265.056 169.775C264.086 165.803 262.358 161.338 262.8 157.178C263.279 152.713 266.16 147.409 267.912 143.267C269.289 140.019 270.787 136.831 271.788 133.437C273.661 127.13 274.923 119.058 271.4 113.085H271.393Z" fill="white"/>
</mask>
<g mask="url(#mask1_1765_3572)">
<g style="mix-blend-mode:soft-light" opacity="0.8">
<path d="M124.939 246.338C124.727 246.338 124.545 246.179 124.514 245.967C124.484 245.729 124.648 245.516 124.878 245.48C125.024 245.462 139.481 243.43 156.831 237.755C172.817 232.53 194.6 223.053 207.59 207.585C218.439 194.665 232.29 171.843 245.596 144.964C257.524 120.858 264.656 102.422 264.656 98.5229C264.656 98.2857 264.85 98.0911 265.087 98.0911C265.323 98.0911 265.517 98.2857 265.517 98.5229C265.517 103.085 257.106 123.656 246.366 145.347C233.03 172.287 219.137 195.176 208.245 208.145C195.122 223.771 173.181 233.321 157.08 238.582C139.657 244.276 125.139 246.313 124.993 246.332C124.975 246.332 124.951 246.332 124.933 246.332L124.939 246.338Z" fill="white"/>
<path d="M243.801 149.915C243.564 149.915 243.376 149.739 243.37 149.502C243.37 149.192 243.037 118.061 232.145 107.136C231.975 106.966 231.975 106.698 232.145 106.534C232.315 106.364 232.582 106.37 232.751 106.534C243.892 117.708 244.219 148.2 244.225 149.496C244.225 149.733 244.037 149.915 243.801 149.915Z" fill="white"/>
<path d="M227.439 179.854C227.263 179.854 227.099 179.745 227.033 179.568C226.954 179.343 227.069 179.1 227.293 179.021C227.39 178.984 237.087 175.529 248.173 173.686C263.158 171.205 273.419 172.707 278.677 178.145C278.841 178.315 278.834 178.589 278.665 178.753C278.495 178.917 278.222 178.911 278.058 178.741C265.96 166.223 227.96 179.69 227.578 179.824C227.53 179.842 227.481 179.848 227.433 179.848L227.439 179.854Z" fill="white"/>
<path d="M171.525 233.138C171.477 233.138 171.434 233.132 171.386 233.114C171.161 233.035 171.04 232.792 171.119 232.567C171.161 232.451 175.17 220.602 177.165 207.311C178.99 195.128 179.445 179.203 171.258 172.543C171.076 172.391 171.046 172.123 171.198 171.941C171.349 171.758 171.616 171.728 171.798 171.88C178.627 177.433 180.719 189.404 178.014 207.457C176.013 220.821 171.974 232.731 171.938 232.852C171.877 233.029 171.713 233.144 171.531 233.144L171.525 233.138Z" fill="white"/>
<path d="M195.013 220.134C194.831 220.134 194.661 220.012 194.601 219.829C194.534 219.604 194.661 219.361 194.886 219.294C196.529 218.801 235.268 207.257 246.439 213.722C246.645 213.844 246.712 214.106 246.597 214.312C246.475 214.519 246.215 214.586 246.008 214.471C235.153 208.187 195.529 220 195.128 220.121C195.086 220.134 195.043 220.14 195.007 220.14L195.013 220.134Z" fill="white"/>
</g>
</g>
<path d="M182.295 12.6541L181.992 14.85C180.973 14.8986 179.979 15.0264 179.002 15.2453L178.171 13.1955C177.947 12.6359 177.304 12.3682 176.746 12.5994L173.229 14.0531C172.665 14.2843 172.392 14.929 172.616 15.4886L173.447 17.5628C172.598 18.1042 171.792 18.7246 171.04 19.4059L169.275 18.0312C168.796 17.6602 168.105 17.7514 167.729 18.238L165.369 21.2672C164.993 21.7538 165.072 22.4472 165.545 22.8183L167.316 24.199C166.843 25.0871 166.449 26.0299 166.128 27.0092L163.878 26.7112C163.271 26.6321 162.713 27.064 162.622 27.6722L162.058 31.4921C161.967 32.1065 162.386 32.6661 162.992 32.7452L165.248 33.0432C165.272 34.0773 165.388 35.087 165.588 36.0785L163.471 36.9665C162.901 37.2037 162.622 37.8607 162.847 38.4385L164.26 42.0334C164.484 42.6112 165.133 42.8789 165.703 42.6416L167.819 41.7536C168.353 42.6234 168.96 43.4446 169.633 44.2049L168.22 46.0419C167.838 46.5406 167.923 47.2523 168.402 47.6294L171.428 50.0077C171.913 50.3909 172.616 50.2936 172.992 49.7948L174.387 47.9701C175.279 48.4445 176.219 48.8399 177.201 49.1562L176.886 51.4372C176.801 52.0637 177.225 52.6294 177.832 52.7145L181.652 53.2194C182.265 53.2985 182.829 52.8605 182.914 52.234L183.223 49.9712C184.26 49.9287 185.285 49.7948 186.273 49.5698L187.11 51.6561C187.341 52.234 187.996 52.5077 188.566 52.2705L192.125 50.7559C192.696 50.5126 192.968 49.8496 192.732 49.2717L191.895 47.1976C192.762 46.6319 193.581 45.9932 194.345 45.2876L196.086 46.644C196.571 47.0212 197.268 46.9299 197.644 46.4311L199.979 43.329C200.349 42.8363 200.258 42.1246 199.773 41.7475L198.05 40.4093C198.523 39.4969 198.912 38.5298 199.221 37.5261L201.38 37.812C201.986 37.8911 202.538 37.4592 202.617 36.8449L203.108 33.0128C203.187 32.3984 202.762 31.8388 202.156 31.7598L200.003 31.4739C199.961 30.4277 199.827 29.4058 199.609 28.4082L201.604 27.5688C202.162 27.3316 202.429 26.6807 202.198 26.1151L200.743 22.581C200.513 22.0153 199.87 21.7477 199.306 21.9849L197.298 22.8243C196.753 21.9667 196.134 21.1516 195.449 20.4034L196.777 18.6699C197.147 18.1894 197.056 17.4959 196.577 17.1249L193.581 14.8135C193.102 14.4424 192.417 14.5337 192.047 15.0142L190.712 16.7538C189.827 16.2916 188.893 15.9084 187.917 15.6042L188.214 13.4205C188.293 12.8184 187.874 12.2709 187.28 12.1918L183.538 11.6992C182.938 11.6201 182.386 12.0459 182.301 12.642L182.295 12.6541ZM169.093 30.4642C170.172 22.9156 177.086 17.6176 184.533 18.5969C191.98 19.5762 197.213 26.4679 196.213 34.0286C195.206 41.638 188.281 47.0333 180.755 46.0419C173.223 45.0504 168.007 38.0553 169.099 30.4581L169.093 30.4642Z" fill="url(#paint0_linear_1765_3572)"/>
<path d="M124.896 11.462L124.423 14.8622C122.853 14.9352 121.306 15.1359 119.802 15.4765L118.523 12.3075C118.171 11.4437 117.188 11.0301 116.321 11.389L110.888 13.6335C110.02 13.9924 109.596 14.9899 109.942 15.8537L111.227 19.0653C109.911 19.9047 108.668 20.8597 107.51 21.912L104.775 19.7891C104.041 19.2174 102.968 19.3573 102.385 20.1054L98.7346 24.7891C98.1524 25.5373 98.2737 26.6139 99.0136 27.1917L101.755 29.3268C101.027 30.7014 100.414 32.1552 99.9171 33.6698L96.4423 33.2136C95.5083 33.0919 94.6411 33.7549 94.5017 34.6977L93.6284 40.604C93.4889 41.5529 94.1317 42.4166 95.0717 42.5444L98.5587 43.0006C98.6012 44.5942 98.771 46.1636 99.0803 47.6903L95.8055 49.0589C94.9201 49.4299 94.4895 50.4457 94.8352 51.3338L97.0123 56.8873C97.364 57.7753 98.3647 58.2011 99.244 57.8301L102.519 56.4554C103.344 57.7997 104.283 59.0649 105.32 60.2449L103.137 63.0855C102.549 63.8519 102.67 64.9529 103.422 65.5429L108.098 69.2229C108.844 69.8129 109.929 69.6609 110.524 68.8945L112.677 66.0721C114.053 66.8081 115.509 67.4224 117.031 67.9091L116.54 71.4309C116.406 72.3981 117.061 73.28 118.007 73.4017L123.914 74.1803C124.86 74.3019 125.733 73.6207 125.861 72.6596L126.34 69.1621C127.947 69.0952 129.523 68.8823 131.058 68.5356L132.355 71.7655C132.713 72.6596 133.72 73.0854 134.605 72.7083L140.112 70.3665C140.991 69.9954 141.41 68.9614 141.052 68.0672L139.754 64.8616C141.1 63.9918 142.362 63.0004 143.538 61.9116L146.231 64.0101C146.983 64.594 148.062 64.448 148.638 63.6816L152.247 58.8885C152.823 58.1221 152.677 57.0272 151.931 56.4432L149.263 54.3691C149.991 52.9579 150.591 51.4616 151.07 49.9105L154.406 50.3484C155.339 50.4701 156.201 49.801 156.322 48.8521L157.08 42.9276C157.201 41.9848 156.54 41.1149 155.606 40.9933L152.283 40.5553C152.216 38.9434 152.01 37.3559 151.67 35.8169L154.757 34.5213C155.624 34.1564 156.037 33.1527 155.673 32.2768L153.423 26.8146C153.065 25.9448 152.071 25.5312 151.204 25.89L148.105 27.1857C147.262 25.8536 146.304 24.6005 145.242 23.4387L147.292 20.7563C147.862 20.0081 147.723 18.9437 146.983 18.3719L142.35 14.8014C141.61 14.2296 140.548 14.3695 139.978 15.1177L137.917 17.8062C136.546 17.0945 135.103 16.5045 133.599 16.0361L134.06 12.6603C134.187 11.7296 133.538 10.878 132.61 10.7564L126.825 9.99606C125.897 9.87441 125.042 10.5253 124.914 11.4559L124.896 11.462ZM104.49 38.9982C106.163 27.3256 116.843 19.1383 128.359 20.6529C139.875 22.1675 147.959 32.8243 146.413 44.5152C144.854 56.279 134.151 64.6244 122.513 63.0916C110.869 61.5588 102.804 50.7438 104.49 38.9982Z" fill="url(#paint1_linear_1765_3572)"/>
<path d="M119.359 44.3813L94.0464 255.437C93.6644 258.6 95.8415 261.441 98.8858 261.739L204.327 273.351C210.786 273.752 214.321 270.443 214.721 267.08L241.302 42.6964C241.696 39.3509 238.53 36.3218 232.041 36.3218L125.642 38.5724C122.561 38.6271 119.741 41.2426 119.365 44.3874L119.359 44.3813Z" fill="url(#paint2_linear_1765_3572)"/>
<path d="M114.611 44.0163L89.1586 256.125C88.7766 259.306 90.9598 262.159 94.0162 262.463L203.333 273.381C206.759 273.722 209.9 271.234 210.301 267.852L237.026 42.3071C237.426 38.9434 234.91 36.2427 231.441 36.2974L120.912 38.1709C117.819 38.2257 114.987 40.8534 114.605 44.0163H114.611Z" fill="url(#paint3_linear_1765_3572)"/>
<path d="M116.685 55.7194L93.0944 252.384C92.7366 255.352 94.7803 258.016 97.6427 258.29L200.452 268.314C203.636 268.625 206.559 266.301 206.929 263.156L231.629 54.807C231.999 51.6744 229.664 49.138 226.444 49.1745L122.579 50.2815C119.687 50.3119 117.037 52.7571 116.685 55.7133V55.7194Z" fill="#D8DEE8"/>
<path d="M171.816 43.8704C171.683 45.0017 172.489 45.902 173.623 45.8898C174.757 45.8776 175.788 44.947 175.922 43.8156C176.055 42.6842 175.249 41.7779 174.115 41.7962C172.981 41.8144 171.956 42.739 171.822 43.8704H171.816Z" fill="url(#paint4_linear_1765_3572)"/>
<g style="mix-blend-mode:soft-light">
<path d="M134.46 187.731C155.509 148.699 186.947 137.02 196.413 96.7955C201.532 75.05 198.045 54.2413 192.174 36.9665L231.441 36.3035C234.904 36.2427 237.421 38.9495 237.026 42.3132L210.301 267.858C209.9 271.24 206.759 273.728 203.333 273.387L117.401 264.805C116.764 229.829 125.084 205.134 134.466 187.737L134.46 187.731Z" fill="white"/>
</g>
<path d="M10.8252 66.4005C10.8252 45.6587 28.8606 28.8523 50.5044 28.8523C71.5114 28.8523 88.0853 44.7767 88.0853 64.4237C88.0853 84.0707 71.5053 100.841 50.5044 101.917C28.8606 103.03 10.8252 87.1424 10.8252 66.4005Z" fill="url(#paint5_linear_1765_3572)"/>
<path d="M13.1602 64.746C13.1602 44.0041 30.6741 27.1978 51.6932 27.1978C72.0877 27.1978 88.1886 43.1222 88.1886 62.7691C88.1886 82.4161 72.0937 99.186 51.6932 100.263C30.6741 101.376 13.1602 85.4879 13.1602 64.746Z" fill="#FF735D"/>
<g style="mix-blend-mode:soft-light" opacity="0.5">
<path d="M19.1572 64.5879C19.1572 47.1611 33.8694 33.0432 51.5289 33.0432C68.6668 33.0432 82.1903 46.4251 82.1903 62.9273C82.1903 79.4296 68.6668 93.5231 51.5289 94.4294C33.8694 95.3601 19.1572 82.0147 19.1572 64.594V64.5879Z" fill="white"/>
</g>
<g style="mix-blend-mode:soft-light" opacity="0.5">
<path d="M50.3166 35.7257C67.4545 35.7257 80.9781 49.1075 80.9781 65.6098C80.9781 69.5331 80.2079 73.3165 78.807 76.8262C80.972 72.6048 82.1909 67.8786 82.1909 62.9334C82.1909 46.4312 68.6674 33.0493 51.5295 33.0493C37.9089 33.0493 26.047 41.4495 21.335 53.2863C26.6777 42.8789 37.7512 35.7257 50.3166 35.7257Z" fill="white"/>
</g>
<path d="M36.8896 60.3238V75.5304C36.8896 79.9282 40.5768 83.3953 45.1129 83.2737L56.3563 82.9817C60.8379 82.8661 64.4583 79.2409 64.4583 74.8918V59.8433L36.8896 60.3238ZM47.2476 76.0475L49.3398 69.6972C48.4423 69.2349 47.8358 68.3225 47.8358 67.258C47.8358 65.6948 49.1397 64.4053 50.7467 64.3748C52.3538 64.3444 53.6516 65.5853 53.6516 67.1425C53.6516 68.2008 53.0451 69.1376 52.1537 69.6424L54.2337 75.8893L47.2415 76.0536L47.2476 76.0475Z" fill="white"/>
<path d="M61.2628 58.5295C60.0682 58.5477 59.1039 57.6232 59.1039 56.4614C59.1039 51.9906 55.3622 48.4018 50.7472 48.4627C46.1201 48.5235 42.3359 52.2339 42.3359 56.729C42.3359 57.8969 41.3535 58.864 40.1406 58.8823C38.9277 58.9005 37.9453 57.9699 37.9453 56.7959C37.9453 49.9468 43.7004 44.3143 50.7411 44.2352C57.7455 44.1562 63.4157 49.6062 63.4157 56.3884C63.4157 57.5502 62.4514 58.5051 61.2568 58.5234L61.2628 58.5295Z" fill="white"/>
<path d="M87.3099 145.268C87.3099 145.268 86.5458 142.391 87.0855 141.655C87.6252 140.919 90.9424 137.981 90.621 138.936C90.2996 139.897 89.8266 140.536 89.8266 140.536C89.8266 140.536 91.6095 141.369 90.4634 142.616C89.3172 143.863 88.9351 144.149 88.8684 145.268C88.8078 146.387 88.074 146.771 87.3099 145.268Z" fill="url(#paint6_linear_1765_3572)"/>
<path d="M55.4779 269.433C55.4779 269.433 55.0716 271.921 55.1261 272.809C55.1747 273.697 64.9747 274.147 65.0717 273.484C65.1687 272.821 63.4525 271.769 62.2457 271.392C61.0389 271.021 57.4973 270.023 57.4973 270.023L55.4839 269.433H55.4779Z" fill="#A7A8A8"/>
<path d="M57.8549 266.952L57.5396 270.048C57.5396 270.048 56.3995 270.802 55.3988 270.218L54.8955 266.848L57.8489 266.952H57.8549Z" fill="url(#paint7_linear_1765_3572)"/>
<path d="M38.0003 273.466C38.0003 273.466 37.594 275.954 37.6486 276.842C37.6971 277.73 47.4971 278.18 47.5942 277.517C47.6912 276.854 45.975 275.802 44.7682 275.425C43.5614 275.054 40.0198 274.056 40.0198 274.056L38.0064 273.466H38.0003Z" fill="#A7A8A8"/>
<path d="M40.3774 270.984L40.062 274.081C40.062 274.081 38.9219 274.835 37.9213 274.251L37.418 270.881L40.3713 270.984H40.3774Z" fill="url(#paint8_linear_1765_3572)"/>
<path d="M56.0779 186.198C57.2119 188.504 58.3399 190.803 59.4739 193.108C60.3836 206.247 60.8384 220.535 60.5473 235.815C60.329 247.183 59.7226 257.949 58.8554 268.059C57.3211 267.986 55.7868 267.919 54.2525 267.846C52.033 263.424 49.4132 256.733 49.1706 248.467C48.9219 239.847 51.5236 238.704 51.3598 230.45C51.1476 219.75 46.6721 216.898 44.2888 204.027C43.3791 199.106 42.7666 192.676 43.4943 184.878C47.6909 185.316 51.8874 185.754 56.0779 186.198Z" fill="#3A4649"/>
<path style="mix-blend-mode:multiply" opacity="0.3" d="M43.4883 184.878C45.7563 185.116 48.0183 185.353 50.2864 185.59C54.3677 192.707 55.5018 200.122 54.7862 203.394C53.7734 208.029 51.093 209.519 51.2446 214.172C51.3901 218.777 54.0949 219.975 55.8111 225.401C56.9997 229.16 56.6843 232.615 56.0112 239.379C54.6467 252.998 51.3719 257.159 54.1191 261.623C54.9014 262.895 56.3023 264.403 59.0616 265.553C58.9949 266.386 58.9282 267.225 58.8554 268.053C57.3211 267.98 55.7868 267.913 54.2525 267.84C52.033 263.418 49.4132 256.727 49.1706 248.46C48.9219 239.841 51.5236 238.698 51.3598 230.444C51.1476 219.744 46.6721 216.891 44.2888 204.021C43.3791 199.1 42.7666 192.67 43.4943 184.872L43.4883 184.878Z" fill="url(#paint9_linear_1765_3572)"/>
<path d="M49.9834 190.341C47.8608 201.965 45.9809 214.41 44.5133 227.603C42.7425 243.533 41.8025 258.558 41.4326 272.499C39.7467 272.548 38.0608 272.596 36.3749 272.645C29.7344 259.47 29.3281 250.535 30.2863 244.72C30.6562 242.481 31.6568 238.083 31.8873 231.514C32.0449 226.934 31.7539 223.455 31.39 219.264C30.5956 210.079 29.6253 208.078 29.4858 201.052C29.3524 194.459 29.3281 191.125 31.202 189.179C36.1445 184.051 49.0009 189.884 49.9773 190.335L49.9834 190.341Z" fill="#3A4649"/>
<path d="M86.4305 144.824C87.5524 144.745 88.6743 144.666 89.7902 144.587C92.4342 155.305 90.5361 165.694 84.5688 169.52C75.2478 175.493 57.9219 164.24 54.1681 151.99C52.5185 146.612 52.8945 138.851 56.1875 137.342C57.1032 136.923 58.5223 136.856 61.5908 138.589C70.7723 143.76 71.0088 153.528 75.6784 154.356C77.7524 154.721 81.106 153.395 86.4245 144.824H86.4305Z" fill="#FDC939"/>
<path d="M60.7602 195.462C62.3733 192.774 60.3478 190.183 59.8869 185.091C59.3654 179.319 61.5789 178.364 63.7742 168.802C65.2296 162.446 66.6305 156.339 64.9628 149.192C64.1623 145.767 62.8039 139.958 58.013 137.154C55.5387 135.706 52.1609 135.852 45.5083 136.199C37.2789 136.631 33.1673 136.844 30.0987 138.468C29.6499 138.705 20.3169 143.796 19.674 152.099C19.0191 160.548 28.1945 161.679 29.4134 172.95C29.9653 178.005 28.9829 185.785 28.3461 190.833C27.7336 195.675 27.3152 196.916 28.2673 198.382C30.5657 201.916 37.5943 200.906 51.6636 198.893C57.1822 198.102 59.5534 197.476 60.7602 195.468V195.462Z" fill="#FDC939"/>
<path opacity="0.2" d="M39.3649 171.132C38.7706 173.327 36.6298 174.97 35.1441 180.31C34.8227 181.466 32.5303 189.678 35.5019 191.697C37.2181 192.865 38.7584 190.651 42.9186 190.365C50.1352 189.866 53.5676 195.949 58.2857 194.288C59.1044 194.002 60.1839 193.388 61.2633 191.971C61.4756 193.242 61.4392 194.349 60.766 195.468C59.5592 197.476 57.1881 198.102 51.6695 198.893C37.6062 200.906 30.5715 201.916 28.2731 198.382C27.321 196.916 27.7395 195.675 28.352 190.833C28.9887 185.791 29.9651 178.011 29.4193 172.95C28.1943 161.685 19.025 160.548 19.6799 152.099C19.8558 149.842 20.6805 147.829 21.7903 146.077C33.4279 150.797 41.2388 164.234 39.3709 171.132H39.3649Z" fill="black"/>
<path d="M24.6643 187.749L26.993 189.24C27.4114 188.753 28.3817 187.78 29.8918 187.445C31.5958 187.068 33.5486 187.609 33.591 188.151C33.6274 188.589 32.4388 189.027 32.2508 189.094C30.765 189.641 29.6613 189.185 29.0609 189.787C28.8487 190 28.5819 190.395 27.9754 190.76C27.8177 190.858 27.6479 190.943 27.557 190.973C26.5685 191.362 24.8644 189.629 24.7188 189.477L24.6582 187.743L24.6643 187.749Z" fill="url(#paint10_linear_1765_3572)"/>
<path d="M31.5416 157.123C33.2275 153.078 34.3919 146.886 31.7296 137.683C14.2036 144.611 5.26469 161.028 8.75171 174.051C11.6262 184.781 22.0933 190.012 24.4342 191.107C24.98 189.866 25.5197 188.625 26.0655 187.385C23.3608 184.361 20.3104 179.891 20.741 174.793C21.3413 167.725 28.1274 165.311 31.5416 157.117V157.123Z" fill="#FDC939"/>
<path d="M45.0713 127.872C45.0713 127.872 44.9319 130.95 43.9798 133.249C43.1186 135.329 38.5946 136.637 37.6789 137.105C36.7631 137.568 39.3951 138.93 42.0452 139.198C44.6893 139.465 52.2455 138.863 53.61 137.853C54.9745 136.85 52.5184 136.923 50.6263 136.229C48.7403 135.536 47.6426 131.832 47.9762 130.147C48.3097 128.468 45.0713 127.872 45.0713 127.872Z" fill="url(#paint11_linear_1765_3572)"/>
<path d="M49.2559 126.759C50.6264 125.408 50.8205 125.25 50.9721 124.782C51.5725 122.902 50.1231 120.335 48.2189 119.703C48.1219 119.672 46.8423 119.259 46.3571 119.818C45.9448 120.293 46.5512 120.944 46.2601 121.85C45.9872 122.701 45.2534 122.762 43.8889 123.882C42.767 124.8 42.0696 125.372 41.9059 126.175C41.5723 127.835 43.5736 130.232 45.3444 130.171C45.9811 130.147 46.157 129.818 49.2559 126.765V126.759Z" fill="url(#paint12_linear_1765_3572)"/>
<path d="M45.5204 130.42C45.5204 130.42 46.9819 132.075 49.2015 131.527C51.1906 131.035 50.6812 126.454 49.2258 125.725C48.7406 125.481 47.8552 125.499 47.1942 125.822C46.8 126.01 46.6908 126.211 46.048 126.503C45.4537 126.777 45.2597 126.74 45.102 126.935C44.9019 127.178 44.817 127.695 45.4416 128.948C44.9868 128.626 44.5016 128.559 44.1984 128.772C44.1499 128.808 44.0286 128.924 43.974 129.082C43.786 129.648 44.3743 130.226 45.5144 130.42H45.5204Z" fill="url(#paint13_linear_1765_3572)"/>
<path d="M211.987 68.3711L212.502 71.1509L201.926 71.1752L110.148 71.3942C107.788 71.3942 105.617 73.3589 105.29 75.7676L83.3794 222.633C83.0519 225.066 86.8239 228.777 89.1708 228.959L129.887 232.098V232.049L190.792 236.739L190.937 236.8C193.539 237.001 195.922 235.109 196.262 232.542V232.554L216.777 75.7494C217.111 73.2068 214.588 68.3711 211.974 68.3772L211.987 68.3711Z" fill="url(#paint14_linear_1765_3572)"/>
<path d="M194.2 229.482C193.867 232.049 191.477 233.971 188.876 233.771L87.0002 225.924C84.6533 225.742 83.022 223.625 83.3494 221.198L103.265 72.7687C103.586 70.36 105.757 68.4014 108.116 68.3953L210.568 68.1155C213.182 68.1094 215.037 70.1653 214.704 72.7079L194.194 229.488L194.2 229.482Z" fill="url(#paint15_linear_1765_3572)"/>
<path d="M195.553 147.853C195.389 149.124 194.2 150.073 192.909 150.025L103.247 146.74C102.064 146.697 101.234 145.718 101.391 144.508L103.156 131.4C103.32 130.183 104.399 129.362 105.582 129.398L195.322 131.898C196.62 131.935 197.536 132.853 197.366 134.125L195.547 147.853H195.553Z" fill="white"/>
<path d="M192.078 174.483C191.908 175.754 190.726 176.843 189.434 176.782L99.8389 172.342C98.6563 172.281 97.8316 171.15 97.9953 169.933L99.7722 156.576C99.9359 155.359 101.028 154.319 102.21 154.368L191.86 157.993C193.151 158.048 194.067 159.222 193.903 160.493L192.084 174.489L192.078 174.483Z" fill="white"/>
<path style="mix-blend-mode:multiply" opacity="0.1" d="M197.378 134.076C197.165 134.009 196.935 133.973 196.692 133.961L106.946 131.461C105.763 131.424 104.684 132.251 104.52 133.462L102.755 146.57C102.755 146.606 102.749 146.637 102.743 146.667C101.833 146.412 101.245 145.548 101.385 144.508L103.149 131.4C103.313 130.189 104.393 129.362 105.575 129.399L195.322 131.899C196.595 131.935 197.511 132.823 197.378 134.07V134.076Z" fill="url(#paint16_linear_1765_3572)"/>
<path style="mix-blend-mode:multiply" opacity="0.1" d="M193.921 160.195C193.703 160.11 193.472 160.055 193.224 160.049L103.574 156.424C102.392 156.375 101.3 157.421 101.136 158.632L99.3594 171.989C99.3473 172.074 99.3412 172.16 99.3412 172.245C98.4316 171.947 97.8555 170.967 97.9889 169.933L99.7657 156.576C99.9295 155.359 101.021 154.319 102.204 154.368L191.853 157.993C193.048 158.042 193.921 159.045 193.915 160.201L193.921 160.195Z" fill="url(#paint17_linear_1765_3572)"/>
<path d="M168.251 196.071C168.517 194.063 167.098 192.208 165.085 192.093L118.705 189.422C116.782 189.313 115.011 190.937 114.751 192.889L112.834 207.36C112.574 209.319 113.908 211.198 115.824 211.326L162.18 214.507C164.194 214.647 166.049 212.938 166.31 210.924L168.244 196.064L168.251 196.071Z" fill="#FF735D"/>
<path d="M171.756 98.5777C171.143 103.2 168.778 107.379 165.406 110.451C161.774 113.76 156.995 115.779 152.022 115.682C147.074 115.585 142.908 113.419 140.233 110.031C137.765 106.911 136.558 102.75 137.165 98.2066C138.426 88.7481 147.092 81.0961 156.601 81.1204C166.201 81.1447 173.023 88.961 171.75 98.5837L171.756 98.5777Z" fill="#FDC939"/>
<path d="M162.508 93.3221C161.962 97.4644 158.147 100.786 154.005 100.737C149.882 100.688 146.995 97.3123 147.541 93.1944C148.087 89.0825 151.865 85.7614 155.989 85.7796C160.13 85.7979 163.06 89.1737 162.508 93.316V93.3221Z" fill="white"/>
<path d="M165.407 110.451C161.774 113.76 156.995 115.779 152.023 115.682C147.074 115.585 142.908 113.419 140.233 110.031C143.296 105.755 148.341 102.908 153.702 102.981C159.094 103.054 163.436 106.047 165.401 110.451H165.407Z" fill="white"/>
<g style="mix-blend-mode:soft-light" opacity="0.4">
<path d="M214.703 72.702L194.194 229.483C193.86 232.049 191.319 233.959 188.724 233.759L127.534 229.045C124.629 226.058 122.234 222.475 120.524 218.181C119.687 216.07 119.068 213.795 118.662 211.405C117.528 204.787 117.965 197.263 119.62 189.872C120.894 184.185 122.889 178.571 125.448 173.51C127.492 169.459 129.899 165.761 132.586 162.646C134.52 160.408 136.613 158.23 138.82 156.095C141.482 153.522 144.308 151.004 147.225 148.516C154.023 142.707 161.301 137.032 168.038 131.035C183.581 117.203 196.195 101.747 193.163 79.691C193.066 78.9976 192.12 73.6753 190.907 68.1644L210.416 68.1096C213.03 68.1035 215.037 70.1595 214.703 72.702Z" fill="white"/>
</g>
<defs>
<linearGradient id="paint0_linear_1765_3572" x1="162.052" y1="32.4593" x2="203.114" y2="32.4593" gradientUnits="userSpaceOnUse">
<stop stop-color="#2EA0E7"/>
<stop offset="1" stop-color="#075382"/>
</linearGradient>
<linearGradient id="paint1_linear_1765_3572" x1="93.5981" y1="42.0882" x2="157.086" y2="42.0882" gradientUnits="userSpaceOnUse">
<stop stop-color="#2EA0E7"/>
<stop offset="1" stop-color="#075382"/>
</linearGradient>
<linearGradient id="paint2_linear_1765_3572" x1="168.978" y1="149.392" x2="210.534" y2="153.909" gradientUnits="userSpaceOnUse">
<stop stop-color="#444B8C"/>
<stop offset="1" stop-color="#26264F"/>
</linearGradient>
<linearGradient id="paint3_linear_1765_3572" x1="132.361" y1="44.3326" x2="235.687" y2="395.024" gradientUnits="userSpaceOnUse">
<stop stop-color="#444B8C"/>
<stop offset="1" stop-color="#26264F"/>
</linearGradient>
<linearGradient id="paint4_linear_1765_3572" x1="170.864" y1="35.6892" x2="292.271" y2="363.502" gradientUnits="userSpaceOnUse">
<stop stop-color="#FFC444"/>
<stop offset="1" stop-color="#F36F56"/>
</linearGradient>
<linearGradient id="paint5_linear_1765_3572" x1="-884.191" y1="948.435" x2="-801.361" y2="870.564" gradientUnits="userSpaceOnUse">
<stop stop-color="#311944"/>
<stop offset="1" stop-color="#893976"/>
</linearGradient>
<linearGradient id="paint6_linear_1765_3572" x1="92.6283" y1="138.973" x2="79.477" y2="152.321" gradientUnits="userSpaceOnUse">
<stop stop-color="#FFC444"/>
<stop offset="1" stop-color="#F36F56"/>
</linearGradient>
<linearGradient id="paint7_linear_1765_3572" x1="57.1992" y1="276.004" x2="55.7762" y2="260.655" gradientUnits="userSpaceOnUse">
<stop stop-color="#FFC444"/>
<stop offset="1" stop-color="#F36F56"/>
</linearGradient>
<linearGradient id="paint8_linear_1765_3572" x1="39.4982" y1="277.639" x2="38.0813" y2="262.291" gradientUnits="userSpaceOnUse">
<stop stop-color="#FFC444"/>
<stop offset="1" stop-color="#F36F56"/>
</linearGradient>
<linearGradient id="paint9_linear_1765_3572" x1="62.0842" y1="225.879" x2="45.7681" y2="227.182" gradientUnits="userSpaceOnUse">
<stop stop-color="#311944"/>
<stop offset="1" stop-color="#893976"/>
</linearGradient>
<linearGradient id="paint10_linear_1765_3572" x1="20.8498" y1="177.524" x2="31.2055" y2="191.473" gradientUnits="userSpaceOnUse">
<stop stop-color="#FFC444"/>
<stop offset="1" stop-color="#F36F56"/>
</linearGradient>
<linearGradient id="paint11_linear_1765_3572" x1="49.7124" y1="142.732" x2="39.7489" y2="130.373" gradientUnits="userSpaceOnUse">
<stop stop-color="#FFC444"/>
<stop offset="1" stop-color="#F36F56"/>
</linearGradient>
<linearGradient id="paint12_linear_1765_3572" x1="42.611" y1="138.437" x2="47.903" y2="121.084" gradientUnits="userSpaceOnUse">
<stop stop-color="#444B8C"/>
<stop offset="1" stop-color="#3E4177"/>
</linearGradient>
<linearGradient id="paint13_linear_1765_3572" x1="55.5872" y1="132.12" x2="40.7696" y2="125.545" gradientUnits="userSpaceOnUse">
<stop stop-color="#FFC444"/>
<stop offset="1" stop-color="#F36F56"/>
</linearGradient>
<linearGradient id="paint14_linear_1765_3572" x1="83.3612" y1="152.592" x2="216.82" y2="152.592" gradientUnits="userSpaceOnUse">
<stop stop-color="#311944"/>
<stop offset="1" stop-color="#893976"/>
</linearGradient>
<linearGradient id="paint15_linear_1765_3572" x1="164.503" y1="415.873" x2="148.494" y2="139.404" gradientUnits="userSpaceOnUse">
<stop stop-color="#2EA0E7"/>
<stop offset="1" stop-color="#075382"/>
</linearGradient>
<linearGradient id="paint16_linear_1765_3572" x1="101.366" y1="138.036" x2="197.39" y2="138.036" gradientUnits="userSpaceOnUse">
<stop stop-color="#F36F56"/>
<stop offset="1" stop-color="#FFC444"/>
</linearGradient>
<linearGradient id="paint17_linear_1765_3572" x1="97.9707" y1="163.303" x2="193.921" y2="163.303" gradientUnits="userSpaceOnUse">
<stop stop-color="#F36F56"/>
<stop offset="1" stop-color="#FFC444"/>
</linearGradient>
</defs>
</svg>
