<svg width="196" height="192" viewBox="0 0 196 192" fill="none" xmlns="http://www.w3.org/2000/svg">
<path d="M168.13 159.376C163.21 164.38 158.807 167.322 155.436 169.543C122.564 191.2 84.9874 184.958 73.3696 182.824C54.6257 179.382 38.8037 176.953 25.2091 164.835C-5.68071 137.299 -4.17865 79.8544 19.4256 44.2704C22.2242 40.0512 45.7928 5.58024 83.4505 0.723105C84.3717 0.60416 85.0587 0.536578 85.6608 0.473727C91.4861 -0.135189 127.586 -3.34669 157.023 20.9863C161.236 24.4695 168.017 30.7526 174.306 40.3344C197.298 75.3717 197.371 129.637 168.13 159.376L168.13 159.376Z" fill="url(#paint0_linear_1_23122)"/>
<path d="M143.074 111.228C157.865 104.9 164.262 85.5104 159.412 78.7465C156.889 75.2283 152.368 76.5815 150.257 72.5761C147.919 68.1384 152.314 64.2836 154.181 53.9951C155.146 48.6795 156.896 39.0394 152.13 34.3652C147.404 29.7296 140.983 34.5982 135.622 29.8916C130.554 25.4412 134.369 19.3961 128.72 11.6479C128.195 10.9269 122.183 2.88933 115.615 3.98696C108.941 5.1022 104.049 15.2534 105.604 22.7418C107.016 29.5452 113.335 32.1516 112.103 35.6621C110.745 39.5309 102.627 37.6327 100.849 41.4734C98.2811 47.0242 113.369 55.0393 111.558 64.3435C110.493 69.8147 104.799 69.4958 101.964 76.0527C98.3064 84.5156 103.301 95.4363 108.453 101.52C115.92 110.337 130.254 116.714 143.074 111.228H143.074Z" fill="#CAE7E0"/>
<mask id="mask0_1_23122" style="mask-type:luminance" maskUnits="userSpaceOnUse" x="100" y="3" width="62" height="111">
<path d="M143.074 111.228C157.865 104.9 164.262 85.5104 159.412 78.7465C156.889 75.2283 152.368 76.5815 150.257 72.5761C147.919 68.1384 152.314 64.2836 154.181 53.9951C155.146 48.6795 156.896 39.0394 152.13 34.3652C147.404 29.7296 140.983 34.5982 135.622 29.8916C130.554 25.4412 134.369 19.3961 128.72 11.6479C128.195 10.9269 122.183 2.88933 115.615 3.98696C108.941 5.1022 104.049 15.2534 105.604 22.7418C107.016 29.5452 113.335 32.1516 112.103 35.6621C110.745 39.5309 102.627 37.6327 100.849 41.4734C98.2811 47.0242 113.369 55.0393 111.558 64.3435C110.493 69.8147 104.799 69.4958 101.964 76.0527C98.3064 84.5156 103.301 95.4363 108.453 101.52C115.92 110.337 130.254 116.714 143.074 111.228H143.074Z" fill="white"/>
</mask>
<g mask="url(#mask0_1_23122)">
<g style="mix-blend-mode:soft-light" opacity="0.7">
<path d="M134.593 118.318L135.103 118.306C134.61 98.5671 133.037 79.9911 130.428 63.0936C128.341 49.5728 125.589 37.089 122.25 25.9902C116.56 7.07622 111.052 -1.37676 110.998 -1.45984L110.572 -1.17892C110.626 -1.09584 116.103 7.31561 121.772 26.1718C127.006 43.577 133.478 73.6912 134.593 118.318Z" fill="white"/>
<path d="M122.732 27.8219C128.96 13.2964 126.837 -0.203293 126.815 -0.337769L126.311 -0.254689C126.333 -0.121621 128.43 13.238 122.263 27.6213L122.732 27.8219Z" fill="white"/>
<path d="M130.852 65.5077C142.223 52.5804 146.956 42.6468 148.924 36.5904C151.068 29.9933 150.511 26.5075 150.487 26.3625L149.984 26.4477C149.99 26.4822 150.542 29.9912 148.422 36.4862C146.463 42.4876 141.758 52.3361 130.469 65.1704L130.852 65.507V65.5077Z" fill="white"/>
<path d="M134.291 101.566C158.741 84.0114 163.425 66.8935 163.469 66.7224L162.976 66.5942C162.965 66.6372 161.737 71.0707 157.382 77.6656C153.547 83.4727 146.376 92.2616 133.994 101.152L134.291 101.566Z" fill="white"/>
<path d="M124.615 59.0084C126.245 59.6864 127.939 60.287 129.697 60.7904L129.837 60.3004C118.351 57.0138 109.553 49.4839 104.194 43.7464C98.3856 37.5268 95.2603 32.021 95.2293 31.9661L94.785 32.216C94.816 32.2716 97.9716 37.8302 103.822 44.0943C108.405 49.0023 115.489 55.2121 124.615 59.0084Z" fill="white"/>
<path d="M130.869 93.9422C131.749 94.3083 132.654 94.6483 133.585 94.9595L133.747 94.4758C121.936 90.526 114.345 81.8604 110.057 75.2859C105.407 68.1572 103.533 61.8918 103.515 61.8298L103.025 61.9742C103.044 62.0375 104.939 68.3741 109.629 75.5654C113.624 81.6893 120.459 89.6122 130.869 93.9422Z" fill="white"/>
</g>
</g>
<path d="M152.252 135.728C135.431 129.508 127.224 108.278 132.246 100.475C134.858 96.417 139.968 97.6709 142.095 93.0931C144.45 88.0217 139.342 83.9755 136.687 72.6239C135.316 66.759 132.829 56.1234 137.874 50.6529C142.876 45.2274 150.298 50.2896 156.003 44.75C161.398 39.5118 156.812 32.9943 162.67 24.0513C163.214 23.2198 169.457 13.9339 176.832 14.7893C184.325 15.6581 190.34 26.6873 189.027 35.1114C187.834 42.7653 180.944 46.0201 182.513 49.8608C184.241 54.0922 193.174 51.5259 195.368 55.7024C198.538 61.7398 182.186 71.5065 184.722 81.7647C186.214 87.7971 194.104 87.4796 193.767 95.4362C193.225 108.261 191.025 111.554 185.628 118.616C177.807 128.85 166.832 141.12 152.251 135.728H152.252Z" fill="url(#paint1_linear_1_23122)"/>
<mask id="mask1_1_23122" style="mask-type:luminance" maskUnits="userSpaceOnUse" x="130" y="14" width="66" height="124">
<path d="M152.252 135.728C135.431 129.508 127.224 108.278 132.246 100.475C134.858 96.417 139.968 97.6709 142.095 93.0931C144.45 88.0217 139.342 83.9755 136.687 72.6239C135.316 66.759 132.829 56.1234 137.874 50.6529C142.876 45.2274 150.298 50.2896 156.003 44.75C161.398 39.5118 156.812 32.9943 162.67 24.0513C163.214 23.2198 169.457 13.9339 176.832 14.7893C184.325 15.6581 190.34 26.6873 189.027 35.1114C187.834 42.7653 180.944 46.0201 182.513 49.8608C184.241 54.0922 193.174 51.5259 195.368 55.7024C198.538 61.7398 182.186 71.5065 184.722 81.7647C186.214 87.7971 194.104 87.4796 193.767 95.4362C193.225 108.261 191.025 111.554 185.628 118.616C177.807 128.85 166.832 141.12 152.251 135.728H152.252Z" fill="white"/>
</mask>
<g mask="url(#mask1_1_23122)">
<g style="mix-blend-mode:soft-light" opacity="0.7">
<path d="M162.093 143.149L161.525 143.163C160.97 121.158 161.684 100.387 163.644 81.4278C165.212 66.2566 167.578 52.2035 170.676 39.6592C175.955 18.2824 181.614 8.56285 181.671 8.4671L182.16 8.75647C182.104 8.85152 176.477 18.5239 171.217 39.8352C166.364 59.5067 160.84 93.3982 162.092 143.149H162.093Z" fill="white"/>
<path d="M170.243 41.7259C162.497 25.9007 164.106 10.7514 164.124 10.6007L164.688 10.6648C164.672 10.8147 163.083 25.8064 170.753 41.476L170.243 41.7259Z" fill="white"/>
<path d="M163.307 84.1397C149.925 70.3816 144.099 59.5862 141.57 52.9525C138.814 45.7267 139.239 41.8149 139.259 41.6523L139.823 41.7192C139.819 41.7579 139.4 45.6957 142.124 52.8089C144.64 59.382 150.429 70.0845 163.715 83.7433L163.307 84.1397Z" fill="white"/>
<path d="M161.492 124.479C133.288 106.3 127.116 87.5027 127.057 87.3147L127.599 87.1443C127.614 87.1915 129.228 92.0594 134.446 99.1592C139.041 105.411 147.516 114.795 161.799 124.002L161.492 124.48V124.479Z" fill="white"/>
<path d="M169.888 76.5548C168.111 77.401 166.259 78.1642 164.33 78.8225L164.146 78.2846C176.75 73.9835 186.126 65.1081 191.772 58.4202C197.892 51.1705 201.064 44.8656 201.095 44.8029L201.604 45.0564C201.572 45.1197 198.37 51.4852 192.206 58.787C187.377 64.5075 179.837 71.8178 169.888 76.5548Z" fill="white"/>
<path d="M164.876 115.8C163.916 116.257 162.929 116.686 161.908 117.085L161.701 116.555C174.632 111.497 182.599 101.425 187.006 93.8655C191.785 85.6688 193.522 78.588 193.538 78.5176L194.091 78.6507C194.074 78.7218 192.318 85.8835 187.498 94.1521C183.392 101.194 176.224 110.397 164.876 115.8Z" fill="white"/>
</g>
</g>
<mask id="mask2_1_23122" style="mask-type:luminance" maskUnits="userSpaceOnUse" x="3" y="33" width="186" height="101">
<path d="M188.568 33.8124H3.54773V133.327H188.568V33.8124Z" fill="white"/>
</mask>
<g mask="url(#mask2_1_23122)">
<path d="M177.283 93.2073V95.6968L188.362 95.7989L185.91 93.2404L177.283 93.2073Z" fill="#D8DEE8"/>
<path d="M47.0252 93.6107V146.718L45.0792 146.298L11.2771 139.025V93.265L47.0252 93.6107Z" fill="url(#paint2_linear_1_23122)"/>
<path d="M185.91 93.1161L177.655 93.2752V139.265L94.774 143.996L60.4418 145.956L47.0653 146.72V93.611L104.608 77.2176L138.911 44.1027L185.911 93.1175L185.91 93.1161ZM162.394 135.219V89.6563L111.877 89.5704V137.813L162.394 135.219Z" fill="url(#paint3_linear_1_23122)"/>
<g opacity="0.2">
<path d="M186.737 93.2939L140.223 44.5502L138.797 43.0562L137.382 44.415L103.28 77.1969L46.1648 93.284L38.3328 95.4898V96.6959H47.0653V95.9165L104.41 79.7625L138.911 46.6504L183.475 93.2939H186.737Z" fill="#D8DEE8"/>
</g>
<path d="M138.797 40.5067L140.223 42.0007L187.302 91.2837L188.517 92.5546V95.7841L188.362 95.7989L185.925 93.2537L138.911 44.101L104.41 77.213L47.5588 94.0669L38.3328 96.6262V92.9404L46.1648 90.7346L103.28 74.6467L137.382 41.8656L138.797 40.5067Z" fill="white"/>
<path d="M161.885 90.2896V134.61L112.449 137.113V90.2418L161.885 90.2889V90.2896ZM159.261 130.387V93.1798L147.38 93.208V130.928L159.261 130.387ZM144.153 131.075V93.2157L131.851 93.2453V131.636L144.153 131.075ZM128.506 131.789V93.2537L115.759 93.284V132.369L128.506 131.789Z" fill="white"/>
<path d="M111.734 137.865V89.527L162.599 89.5763V135.291L111.734 137.866V137.865ZM113.163 90.9576V136.361L161.169 133.93V91.0034L113.163 90.9576ZM115.043 133.117V92.5706L129.22 92.5368V132.471L115.043 133.117ZM116.473 93.9971V131.621L127.79 131.105V93.9696L116.473 93.9971ZM131.135 132.384V92.5319L144.867 92.4988V131.758L131.135 132.384ZM132.565 93.9583V130.887L143.437 130.392V93.9316L132.565 93.9576V93.9583ZM146.664 131.676V92.4953L159.975 92.4636V131.07L146.664 131.676ZM148.094 93.921V130.18L158.545 129.704V93.8964L148.094 93.9217V93.921Z" fill="white"/>
<path d="M138.798 40.5067L137.384 41.8663L103.281 74.6467L61.9263 76.8117L93.0318 48.1268L94.3294 46.9327L138.798 40.5067Z" fill="#FEC427"/>
<path d="M73.4841 117.004L90.9949 116.777L90.9836 155.514L73.4841 156.508V117.004Z" fill="#F4F7FA"/>
<path d="M70.2524 154.623V118.398L89.7071 118.166V153.146L70.2524 154.623Z" fill="#97A6B7"/>
<path d="M60.4424 157.513V112.394L94.7141 112.047V155.302L90.9832 155.513V116.855L73.4837 117.122V156.772L60.4424 157.513Z" fill="#D8DEE8"/>
<path d="M103.281 74.6467L46.1646 90.7353L38.3326 92.9397L3.51453 92.6862L10.5016 90.7881L61.9264 76.8117L103.281 74.6467Z" fill="url(#paint4_linear_1_23122)"/>
<path d="M38.3333 96.6261L3.51453 95.858V92.6862L38.3333 92.9403V96.6261Z" fill="white"/>
<path d="M159.031 93.4642V130.114L147.615 130.63V93.4952L159.031 93.4642Z" fill="#E34F47"/>
<path d="M128.26 93.5481V131.506L116.01 132.06V93.5812L128.26 93.5481Z" fill="#E34F47"/>
<path d="M143.916 93.5054V130.798L132.094 131.333V93.5378L143.916 93.5054Z" fill="#E34F47"/>
<path style="mix-blend-mode:multiply" opacity="0.3" d="M45.0998 146.298L11.2766 139.025V99.0884C14.4167 100.571 21.4989 104.567 21.4067 111.347C21.2856 120.163 18.1532 123.303 26.1239 127.288C34.0946 131.274 45.2019 132.119 45.0815 144.317C45.0745 145.007 45.078 145.669 45.0998 146.297V146.298Z" fill="url(#paint5_linear_1_23122)"/>
</g>
<path d="M0.182626 128.903C0.182626 128.903 -2.50267 119.801 12.7206 121.975C27.9438 124.15 36.8749 133.008 48.9665 127.652C61.058 122.295 82.5094 121.492 103.414 128.256C124.318 135.019 133.738 120.285 140.018 119.319C146.298 118.353 150.404 121.493 161.998 123.184C173.592 124.874 197.335 118.44 191.182 131.394C185.03 144.348 9.37699 143.318 0.181922 128.903L0.182626 128.903Z" fill="white"/>
<path d="M191.923 129.308C188.708 138.794 183.713 147.605 177.276 155.448C159.137 177.556 129.546 191.95 96.121 191.95C62.6963 191.95 31.6366 176.831 13.6351 153.786C7.74912 146.254 3.1713 137.875 0.18396 128.902C3.04598 127.491 8.29266 126.125 16.8217 127.888C31.2395 130.871 45.3764 137.624 55.5839 131.762C65.7935 125.9 75.9841 125.692 95.1269 131.762C114.269 137.832 122.969 134.849 136.517 128.883C150.066 122.917 154.041 129.381 174.427 130.871C183.397 131.528 188.617 130.018 191.924 129.308L191.923 129.308Z" fill="url(#paint6_linear_1_23122)"/>
<path style="mix-blend-mode:multiply" opacity="0.3" d="M177.276 155.448C159.137 177.556 129.546 191.949 96.1212 191.949C62.6965 191.949 31.6367 176.831 13.6353 153.785C16.1692 151.66 20.5942 149.312 25.2875 153.126C32.5337 159.01 57.654 156.514 68.5233 150.235C79.3926 143.955 94.6096 165.455 112.967 159.174C131.324 152.892 135.671 147.339 147.749 154.704C156.478 160.03 168.236 159.107 177.277 155.448H177.276Z" fill="url(#paint7_linear_1_23122)"/>
<defs>
<linearGradient id="paint0_linear_1_23122" x1="208.145" y1="215.539" x2="76.763" y2="73.7952" gradientUnits="userSpaceOnUse">
<stop stop-color="#BDE4FB"/>
<stop offset="1" stop-color="#E7F5FE"/>
</linearGradient>
<linearGradient id="paint1_linear_1_23122" x1="130.783" y1="75.8886" x2="195.777" y2="75.8886" gradientUnits="userSpaceOnUse">
<stop stop-color="#9DC8BE"/>
<stop offset="1" stop-color="#7EC4B4"/>
</linearGradient>
<linearGradient id="paint2_linear_1_23122" x1="29.3729" y1="114.4" x2="27.1988" y2="169.228" gradientUnits="userSpaceOnUse">
<stop stop-color="#D8DEE8"/>
<stop offset="1" stop-color="white"/>
</linearGradient>
<linearGradient id="paint3_linear_1_23122" x1="-13.0342" y1="102.391" x2="194.479" y2="89.4204" gradientUnits="userSpaceOnUse">
<stop stop-color="#D8DEE8"/>
<stop offset="1" stop-color="white"/>
</linearGradient>
<linearGradient id="paint4_linear_1_23122" x1="87.7705" y1="71.3299" x2="-2.83119" y2="103.846" gradientUnits="userSpaceOnUse">
<stop stop-color="#FFC444"/>
<stop offset="1" stop-color="#F3C756"/>
</linearGradient>
<linearGradient id="paint5_linear_1_23122" x1="28.3614" y1="118.326" x2="26.4844" y2="165.68" gradientUnits="userSpaceOnUse">
<stop stop-color="#D8DEE8"/>
<stop offset="1" stop-color="white"/>
</linearGradient>
<linearGradient id="paint6_linear_1_23122" x1="-3.8116" y1="159.175" x2="196.051" y2="159.175" gradientUnits="userSpaceOnUse">
<stop stop-color="#38B3FF"/>
<stop offset="1" stop-color="#054F7D"/>
</linearGradient>
<linearGradient id="paint7_linear_1_23122" x1="10.2255" y1="170.51" x2="180.799" y2="170.51" gradientUnits="userSpaceOnUse">
<stop stop-color="#38B3FF"/>
<stop offset="1" stop-color="#054F7D"/>
</linearGradient>
</defs>
</svg>
