<svg width="20" height="20" viewBox="0 0 20 20" fill="none" xmlns="http://www.w3.org/2000/svg">
<g clip-path="url(#clip0_1289_1493)">
<path d="M11.4821 0C11.7556 0 12.0291 0 12.3026 0C12.3597 0.010459 12.416 0.0265497 12.4732 0.0297679C13.3709 0.0844764 14.2404 0.280784 15.0569 0.649262C17.7662 1.86975 19.3951 3.94626 19.8898 6.88523C20.1448 8.39937 19.9493 9.87168 19.35 11.278C18.4563 13.373 16.9215 14.8349 14.8164 15.6845C13.5808 16.1833 12.2857 16.3233 10.9657 16.1583C9.89663 16.0248 8.89354 15.6788 7.9572 15.1422C7.64751 14.9644 7.56224 14.9821 7.30966 15.2347C6.00249 16.5413 4.69935 17.8519 3.38656 19.152C3.1758 19.3604 2.94011 19.5567 2.68431 19.7039C1.94828 20.1287 1.10043 20.1504 0.438402 19.4119C0.213168 19.1609 0.0844629 18.8728 0 18.5559V18.0868C0.14962 17.308 0.668463 16.7754 1.205 16.246C2.3352 15.1309 3.45332 14.003 4.57628 12.8798C5.04605 12.41 5.08466 12.4671 4.72992 11.7961C3.72441 9.89259 3.45815 7.87642 4.10972 5.82646C5.12328 2.63406 7.32172 0.716038 10.6335 0.109417C10.9134 0.0587312 11.199 0.0362042 11.4821 0ZM17.8804 8.1202C17.8981 4.83608 15.2291 2.13283 11.9044 2.12237C8.5758 2.11191 5.92607 4.75964 5.89631 8.08319C5.86735 11.3834 8.54684 14.0826 11.8674 14.1027C15.1655 14.122 17.8627 11.4389 17.8804 8.1202Z" fill="#36AFFA"/>
<path d="M11.9169 3.83837C12.1969 3.83837 12.476 3.83516 12.7559 3.83837C13.2611 3.84562 13.5209 4.1626 13.4622 4.66624C13.3053 6.01545 13.1573 7.36627 13.0061 8.71629C12.99 8.85869 12.9779 9.00109 12.961 9.14269C12.9192 9.48945 12.6715 9.72115 12.3207 9.73081C12.048 9.73805 11.7745 9.73805 11.501 9.73081C11.1592 9.72115 10.9098 9.49991 10.8704 9.15637C10.7449 8.07185 10.6283 6.98573 10.5068 5.9004C10.4601 5.48044 10.4167 5.06047 10.3636 4.6413C10.3049 4.17387 10.5671 3.85286 11.0385 3.83998C11.3313 3.83194 11.6241 3.83837 11.9161 3.83837H11.9169Z" fill="#36AFFA"/>
<path d="M11.0116 11.4574C11.0116 11.3407 11.01 11.2233 11.0116 11.1066C11.0173 10.8025 11.2079 10.582 11.5088 10.5643C11.7807 10.5482 12.055 10.5482 12.326 10.5651C12.618 10.5836 12.8087 10.8017 12.8143 11.0953C12.8191 11.3423 12.8191 11.5893 12.8143 11.8355C12.8087 12.1372 12.6092 12.3544 12.3075 12.3697C12.0485 12.3834 11.7879 12.3826 11.5289 12.3705C11.2184 12.3568 11.0173 12.1372 11.0108 11.8267C11.0084 11.7036 11.0108 11.5797 11.0108 11.4566L11.0116 11.4574Z" fill="#36AFFA"/>
</g>
<defs>
<clipPath id="clip0_1289_1493">
<rect width="20" height="20" fill="white"/>
</clipPath>
</defs>
</svg>
