<svg width="26" height="25" viewBox="0 0 26 25" fill="none" xmlns="http://www.w3.org/2000/svg">
<path d="M13.7556 24.9999H12.194C12.1236 24.9856 12.0532 24.9641 11.9822 24.9582C9.57987 24.7647 7.38546 23.9789 5.49085 22.496C1.77202 19.5849 0.0866178 15.7459 0.58911 11.0398C0.969727 7.4784 2.6838 4.60702 5.55212 2.48036C9.59943 -0.520035 14.8779 -0.822355 19.2126 1.70371C22.5443 3.64533 24.5601 6.56037 25.2738 10.3589C25.3592 10.8124 25.4028 11.2737 25.4654 11.7311V13.2922C25.4517 13.3547 25.4302 13.4173 25.425 13.4805C25.2608 15.6215 24.5992 17.5989 23.4007 19.3783C21.4109 22.3318 18.6586 24.1516 15.151 24.8064C14.6902 24.8924 14.2216 24.9367 13.7562 24.9999H13.7556ZM13.3613 9.5588C12.8308 9.67217 12.3159 9.75296 11.818 9.89305C9.75715 10.4742 8.21187 11.7363 7.08631 13.5359C6.48736 14.493 6.06699 15.5277 5.76849 16.6138C5.68963 16.8998 5.7522 17.1057 5.94512 17.2478C6.1654 17.4093 6.3492 17.3129 6.54667 17.1878C6.8204 17.0138 7.0987 16.8444 7.38937 16.7018C9.11909 15.8528 10.972 15.5811 12.8744 15.555C13.0321 15.5531 13.1905 15.555 13.3606 15.555C13.3606 16.0834 13.3652 16.563 13.3593 17.0419C13.3554 17.3487 13.4727 17.5826 13.7504 17.7149C14.0313 17.8485 14.2854 17.7755 14.5175 17.5813C16.3215 16.0769 18.1275 14.5757 19.9315 13.0707C20.3264 12.741 20.3219 12.2777 19.9223 11.9448C18.1307 10.4508 16.3371 8.96003 14.5461 7.46472C14.3004 7.25948 14.0404 7.16566 13.7393 7.31421C13.4512 7.45625 13.3521 7.70514 13.358 8.01788C13.3671 8.53652 13.3606 9.0558 13.3606 9.55945L13.3613 9.5588Z" fill="#1169A0"/>
</svg>
