<svg width="17" height="17" viewBox="0 0 17 17" fill="none" xmlns="http://www.w3.org/2000/svg">
<g clip-path="url(#clip0_274_1909)">
<path d="M7.75118 0.0226266C10.7518 -0.186909 13.565 1.03382 15.3487 3.45284C18.6333 7.90688 16.8097 14.2987 11.7208 16.3753C11.3848 16.5124 10.7312 16.7827 10.3882 16.6934C9.91074 16.5685 9.84935 15.8192 10.3174 15.568C10.6173 15.4071 11.1444 15.2986 11.5005 15.1377C15.5746 13.2968 17.0393 8.17535 14.5363 4.44206C11.6139 0.0848326 5.14697 0.187262 2.34268 4.6109C-0.0225652 8.34139 1.50445 13.3618 5.51478 15.1476C5.86526 15.3038 6.30898 15.394 6.62525 15.5456C7.28403 15.8613 7.04648 16.8351 6.20636 16.7013C4.78337 16.4754 2.84544 15.0115 1.93739 13.9203C-2.40609 8.69919 0.996067 0.495018 7.75118 0.0226266Z" fill="black"/>
<path d="M9.12573 7.20371V16.3765C9.12573 16.3882 9.08215 16.5809 9.07372 16.6052C8.90223 17.1066 8.13568 17.1375 7.93607 16.6539C7.91827 16.6104 7.86251 16.4074 7.86251 16.3765V7.20371L6.127 8.92349C5.52256 9.45669 4.70682 8.74389 5.21332 8.0802L8.07195 5.22107C8.39666 4.97318 8.6703 5.0279 8.96783 5.27345C9.92039 6.05968 10.7732 7.20885 11.721 8.02688C12.3161 8.66625 11.5177 9.48007 10.8603 8.92302L9.12479 7.20324L9.12573 7.20371Z" fill="black"/>
</g>
<defs>
<clipPath id="clip0_274_1909">
<rect width="17" height="17" fill="white"/>
</clipPath>
</defs>
</svg>
