<svg width="20" height="13" viewBox="0 0 20 13" fill="none" xmlns="http://www.w3.org/2000/svg">
<g clip-path="url(#clip0_444_2116)">
<path d="M20 -0.000130345C19.9092 0.00304918 19.8183 0.00940822 19.7275 0.00940822C13.2458 0.00940822 6.76458 0.00940822 0.282854 0.00940822L0 0.00940822V2.163C0.0533066 2.16671 0.108789 2.17466 0.164818 2.17466C6.73738 2.17519 13.3105 2.17466 19.8831 2.17466C19.9222 2.17466 19.9608 2.17148 20 2.16936C20 1.44602 20 0.722151 20 -0.00119019L20 -0.000130345Z" fill="#36AFFA"/>
<path d="M3.32957 5.44547V7.57786H16.6504V5.44547H3.32957Z" fill="#36AFFA"/>
<path d="M7.77639 10.8634V13H12.2036V10.8634H7.77639Z" fill="#36AFFA"/>
</g>
<defs>
<clipPath id="clip0_444_2116">
<rect width="20" height="13" fill="white" transform="matrix(-1 0 0 1 20 0)"/>
</clipPath>
</defs>
</svg>
