<svg width="29" height="28" viewBox="0 0 29 28" fill="none" xmlns="http://www.w3.org/2000/svg">
<g clip-path="url(#clip0_1248_906)">
<path d="M3.33875 0.734738L25.233 0.713562C26.8145 0.860909 28.0394 2.0838 28.1875 3.65874V24.2432C28.0394 25.819 26.8127 27.0402 25.233 27.1884H3.51703C1.93555 27.0411 0.710626 25.8182 0.5625 24.2432L0.566048 3.59521C0.738122 2.11998 1.86281 0.950023 3.33875 0.734738ZM3.51969 2.83377C3.22255 2.89201 2.68948 3.36228 2.68948 3.66139V24.2415C2.68948 24.5044 3.2536 25.0691 3.51969 25.0691H25.2303C25.4964 25.0691 26.0605 24.5053 26.0605 24.2415V3.66051C26.0605 3.39757 25.4964 2.83289 25.2303 2.83289H3.51969V2.83377Z" fill="white"/>
<path d="M6.70575 12.3628C5.98818 12.2357 5.69104 11.3578 6.01834 10.7517C6.1363 10.5337 9.31524 7.36268 9.53078 7.23739C10.2563 6.81741 11.1752 7.24357 11.193 8.09412C11.2107 8.94467 9.95742 9.54289 9.56094 10.2443H21.5121C22.5676 10.2443 22.5676 12.3619 21.5121 12.3619H6.70575V12.3628Z" fill="white"/>
<path d="M7.76893 16.0685H22.5744C23.2317 16.0685 23.5767 17.0964 23.2618 17.6797C23.1438 17.8976 19.9649 21.0686 19.7494 21.1939C19.0238 21.6139 18.1049 21.1878 18.0872 20.3372C18.0694 19.4866 19.3227 18.8884 19.7192 18.187H7.76893C6.79857 18.187 6.60965 16.2309 7.76893 16.0694V16.0685Z" fill="white"/>
</g>
<defs>
<clipPath id="clip0_1248_906">
<rect width="27.625" height="26.474" fill="white" transform="translate(0.5625 0.713562)"/>
</clipPath>
</defs>
</svg>
