<svg width="19" height="20" viewBox="0 0 19 20" fill="none" xmlns="http://www.w3.org/2000/svg">
<g clip-path="url(#clip0_285_1409)">
<path d="M7.34526 12.9649L3.32348 8.94356C2.00948 7.49169 2.33174 5.19927 4.02972 4.20278C7.16511 2.36263 9.51573 6.88721 11.5995 8.47762C11.6463 8.51365 11.6588 8.5677 11.7398 8.54658L11.7423 5.08061C11.7666 4.32765 11.6787 3.46349 11.7386 2.70929C11.9274 0.311871 14.9338 -0.849251 16.7901 0.710715C18.0848 1.79915 17.851 3.00873 17.8629 4.52645C17.8847 7.30594 17.8566 10.0972 17.8678 12.8922C21.2276 16.8366 16.4491 22.1458 12.1955 19.093L2.74003 19.0582C0.0403485 18.732 -0.991277 15.3648 1.15363 13.6172C1.45221 13.3737 2.22578 12.9649 2.60165 12.9649H7.34651H7.34526ZM16.9291 4.31523V2.80372C16.9291 1.82276 15.7441 0.930017 14.8023 0.930017C13.8604 0.930017 12.6754 1.82462 12.6754 2.80372V4.31523H16.9297H16.9291ZM10.7113 14.9182C10.864 14.1596 11.2654 13.534 11.7304 12.932C11.6856 12.0393 11.8239 11.0279 11.7423 10.1494C11.7348 10.0699 11.7386 9.99286 11.6874 9.92514C10.0512 8.31547 8.47413 6.63188 6.77179 5.09552C4.81513 3.83375 2.60352 6.06778 3.80095 8.00423L10.7113 14.9182ZM16.9291 5.29183H12.6748V8.22166H16.9291V5.29183ZM16.9291 9.15168H12.6748V12.2207C13.9477 11.4572 15.6587 11.4528 16.9291 12.2207V9.15168ZM14.6763 12.6058C12.1612 12.6897 10.7069 15.5531 12.1232 17.6293C13.3966 19.4968 16.2085 19.4962 17.4814 17.6293C18.973 15.4425 17.3068 12.5183 14.6763 12.6058ZM11.319 18.1269C11.1246 17.8616 10.975 17.5653 10.8634 17.2547C10.7294 16.8813 10.6945 16.5185 10.571 16.1501L8.35257 13.9391L8.16557 13.8925C6.47383 14.0074 4.59758 13.7483 2.92766 13.8962C1.1393 14.0546 0.280958 16.2153 1.56441 17.5063C1.80128 17.7442 2.45454 18.1269 2.78678 18.1269H11.319Z" fill="black"/>
<path d="M14.5821 13.8614C17.0075 13.5843 17.6371 17.1671 15.2871 17.725C12.55 18.3742 11.8581 14.1726 14.5821 13.8614ZM14.5328 14.8355C13.5492 15.0343 13.543 16.6744 14.6195 16.8204C16.2495 17.0416 16.1629 14.5062 14.5328 14.8355Z" fill="black"/>
</g>
<defs>
<clipPath id="clip0_285_1409">
<rect width="19" height="20" fill="white"/>
</clipPath>
</defs>
</svg>
