<svg width="24" height="23" viewBox="0 0 24 23" fill="none" xmlns="http://www.w3.org/2000/svg">
<g clip-path="url(#clip0_1266_857)">
<path d="M12.5388 0L13.6474 0.147628C18.8358 1.0196 22.7977 5.63688 23.092 10.9833V22.9994L11.3299 22.9988C6.10732 22.7005 1.56624 18.6444 0.722641 13.3508L0.578125 12.2183V10.7811C0.645683 10.5224 0.638046 10.2266 0.672119 9.9565C1.32185 4.87953 5.35889 0.768747 10.3247 0.0960184C10.5891 0.0600115 10.8787 0.0690132 11.1319 0H12.5388ZM12.8907 13.7906C12.7897 11.674 15.1672 11.2624 15.623 9.32698C16.3902 6.06716 13.2879 4.79852 10.6466 5.36683C8.95474 5.7305 7.96369 7.04235 7.96604 8.80488H10.7365C10.7982 7.95032 11.173 7.37121 12.0795 7.45523C12.9148 7.53264 13.0723 8.55824 12.849 9.23337C12.6258 9.9085 11.7793 10.4288 11.3299 10.9605C10.659 11.7538 10.5203 12.771 10.5609 13.7912H12.8913L12.8907 13.7906ZM11.5178 14.9261C9.55689 15.1583 9.81949 18.0431 12.0659 17.7316C13.8841 17.4801 13.601 14.6788 11.5178 14.9261Z" fill="#36AFFA"/>
</g>
<defs>
<clipPath id="clip0_1266_857">
<rect width="22.5151" height="23" fill="white" transform="translate(0.578125)"/>
</clipPath>
</defs>
</svg>
