<svg width="15" height="10" viewBox="0 0 15 10" fill="none" xmlns="http://www.w3.org/2000/svg">
<path fill-rule="evenodd" clip-rule="evenodd" d="M7.72271 9.94887C12.0064 10.0163 13.9879 7.02034 14.6525 5.69851C14.8479 5.30988 14.8517 4.86027 14.6635 4.46812C14.0179 3.12325 12.0674 0.0499878 7.72271 0.0499878C3.38944 0.0499878 1.43776 3.10715 0.787063 4.4575C0.594927 4.85622 0.601143 5.31254 0.806354 5.7047C1.484 6.99969 3.4675 9.88189 7.72271 9.94887ZM7.72271 8.0469C9.50702 8.0469 10.9535 6.69218 10.9535 5.02104C10.9535 3.34991 9.50702 1.99518 7.72271 1.99518C5.93839 1.99518 4.49194 3.34991 4.49194 5.02104C4.49194 6.69218 5.93839 8.0469 7.72271 8.0469Z" fill="#9499A5"/>
<path d="M9.52271 5.02104C9.52271 5.9521 8.71682 6.70688 7.72271 6.70688C6.72859 6.70688 5.92271 5.9521 5.92271 5.02104C5.92271 4.08998 6.72859 3.33521 7.72271 3.33521C8.71682 3.33521 9.52271 4.08998 9.52271 5.02104Z" fill="#9499A5"/>
</svg>
